<?xml version="1.0" encoding="UTF-8"?>
<svg width="262px" height="417px" viewBox="0 0 262 417" version="1.1" xmlns="http://www.w3.org/2000/svg" xmlns:xlink="http://www.w3.org/1999/xlink">
    <title>logo_velik</title>
    <g id="PODOBA-1" stroke="none" stroke-width="1" fill="none" fill-rule="evenodd">
        <g id="logo_velik">
            <path d="M210.470469,119.856422 C207.425582,115.250539 203.976022,108.040635 194.267528,108.040635 C188.732443,108.040635 184.245365,112.419922 184.245365,117.498405 C184.245365,119.918841 185.267147,122.117925 186.933573,123.759699 C185.828916,123.785925 184.72426,123.795629 183.619603,123.78645 C182.51075,123.772025 181.401373,123.768354 180.29252,123.688363 C179.183405,123.614142 178.07429,123.513171 176.965175,123.299163 L176.965175,125.811392 C178.07429,125.597384 179.183405,125.496412 180.29252,125.422192 C181.401373,125.342201 182.51075,125.338792 183.619603,125.324105 C184.72426,125.314925 185.828916,125.324892 186.933311,125.350856 C185.267147,126.992629 184.245365,129.191714 184.245365,131.61215 C184.245365,136.690633 188.732443,141.06992 194.267528,141.06992 C203.976022,141.06992 207.425582,133.860016 210.470469,129.254133 C212.778394,125.763135 215.948905,124.555408 215.948905,124.555408 C215.948905,124.555408 212.778394,123.34742 210.470469,119.856422" id="Fill-1" fill="#429B44"></path>
            <path d="M81.7984053,123.688311 C80.6892902,123.768301 79.5801751,123.771973 78.47106,123.78666 C77.3666657,123.795577 76.2620091,123.785873 75.1573525,123.759647 C76.8235166,122.117873 77.84556,119.918788 77.84556,117.498615 C77.84556,112.419869 73.3582204,108.040582 67.8231355,108.040582 C58.1146411,108.040582 54.6650808,115.250486 51.6204562,119.856369 C49.3125317,123.347367 46.1420204,124.555356 46.1420204,124.555356 C46.1420204,124.555356 49.3125317,125.763082 51.6204562,129.254081 C54.6650808,133.859964 58.1146411,141.07013 67.8231355,141.07013 C73.3582204,141.07013 77.84556,136.690843 77.84556,131.612098 C77.84556,129.191662 76.8232543,126.992577 75.1573525,125.350803 C76.2620091,125.324839 77.3666657,125.315135 78.47106,125.324052 C79.5801751,125.338739 80.6892902,125.342411 81.7984053,125.422139 C82.9075204,125.49636 84.0166355,125.597332 85.1257506,125.811339 L85.1257506,123.299111 C84.0166355,123.513118 82.9075204,123.61409 81.7984053,123.688311" id="Fill-3" fill="#3CB200"></path>
            <path d="M198.063644,167.438771 C198.30755,161.922831 199.754461,154.061988 191.900436,148.355644 C187.422276,145.102257 181.218155,146.007593 178.233065,150.116223 C176.810282,152.074288 176.344501,154.454335 176.727406,156.761997 C175.818661,156.133612 174.919095,155.492376 174.030806,154.835667 C173.142255,154.172138 172.246885,153.517265 171.396625,152.800497 C170.542955,152.088712 169.705021,151.355159 168.933702,150.530076 L167.456893,152.562361 C168.479985,153.041255 169.436725,153.611418 170.377729,154.203348 C171.321618,154.790557 172.221184,155.439661 173.127044,156.079586 C174.026085,156.721608 174.91385,157.378842 175.792172,158.048927 C173.479265,158.398001 171.359908,159.576354 169.937125,161.534418 C166.952035,165.643048 168.00791,171.823565 172.48607,175.077214 C180.340357,180.783557 187.369299,176.978105 192.539836,175.041808 C196.45885,173.573916 199.73348,174.460106 199.73348,174.460106 C199.73348,174.460106 197.878748,171.619523 198.063644,167.438771" id="Fill-5" fill="#429B44"></path>
            <path d="M91.7132228,94.907233 C90.7690719,94.3200236 89.8697681,93.6709198 88.9639077,93.0309953 C88.0648662,92.3889726 87.1771021,91.7317387 86.2985172,91.0616538 C88.611687,90.7125802 90.7310436,89.5342274 92.1538266,87.5761632 C95.1389172,83.467533 94.0827794,77.287016 89.6046191,74.0336292 C81.7505945,68.3270236 74.721653,72.1324764 69.5511153,74.0687726 C65.6321021,75.5366651 62.3569474,74.6504745 62.3569474,74.6504745 C62.3569474,74.6504745 64.212204,77.4910575 64.0273077,81.6718104 C63.7834021,87.18775 62.3359662,95.0485934 70.1905153,100.754937 C74.6684134,104.008324 80.8727964,103.102988 83.857887,98.9943575 C85.28067,97.0362934 85.7461889,94.6562462 85.3635455,92.348584 C86.2722908,92.9769689 87.1718568,93.6182047 88.0598832,94.2749142 C88.9486964,94.9387047 89.843804,95.593316 90.6940643,96.310084 C91.5477342,97.0218689 92.3856681,97.7554217 93.1572492,98.5805047 L94.6340587,96.5482198 C93.610704,96.0693255 92.6542266,95.4991632 91.7132228,94.907233" id="Fill-7" fill="#3FAD2B"></path>
            <path d="M166.28869,179.579817 C164.578203,174.315651 159.026595,171.401372 154.196477,172.970761 C151.894584,173.718476 150.119056,175.370215 149.072097,177.462034 C148.706239,176.419797 148.355592,175.372314 148.023041,174.318798 C147.694162,173.259514 147.354792,172.203638 147.088069,171.124159 C146.816101,170.046253 146.569311,168.960217 146.429786,167.8393 L144.040822,168.615602 C144.587118,169.604338 145.025624,170.627955 145.438952,171.659965 C145.857788,172.689876 146.203977,173.743653 146.560656,174.794021 C146.910516,175.841766 147.242543,176.895282 147.559095,177.95378 C145.48275,176.876661 143.075428,176.584236 140.773797,177.331951 C135.943678,178.90134 133.165252,184.522185 134.875739,189.786614 C137.875778,199.019885 145.798778,200.072614 151.120118,201.545227 C155.153478,202.661161 157.282014,205.30321 157.282014,205.30321 C157.282014,205.30321 157.451175,201.914757 160.057818,198.641176 C163.497412,194.321948 169.288467,188.813089 166.28869,179.579817" id="Fill-9" fill="#429B44"></path>
            <path d="M127.215187,59.3240723 C124.215147,50.0908006 116.292147,49.0380723 110.970545,47.5654591 C106.937447,46.4492628 104.808649,43.807476 104.808649,43.807476 C104.808649,43.807476 104.639751,47.1959289 102.032583,50.46951 C98.5932508,54.7887383 92.802196,60.2975968 95.8022357,69.5308685 C97.5127225,74.7950345 103.06433,77.7093138 107.894449,76.1399251 C110.196079,75.3919477 111.97187,73.7402081 113.018304,71.6483892 C113.384687,72.6908892 113.735334,73.7383723 114.067885,74.7916251 C114.396764,75.85091 114.736134,76.9070477 115.002856,77.986527 C115.274824,79.0641704 115.521615,80.1502062 115.660877,81.2711232 L118.050104,80.4948213 C117.503807,79.5060855 117.065302,78.4824685 116.651973,77.4507213 C116.233138,76.4205477 115.886949,75.3667704 115.530007,74.3166647 C115.180147,73.2689194 114.848383,72.2154043 114.53183,71.1569062 C116.607913,72.2340251 119.015236,72.5264496 121.317128,71.7784723 C126.147247,70.2090836 128.925411,64.5882383 127.215187,59.3240723" id="Fill-11" fill="#429B44"></path>
            <path d="M121.317049,177.33203 C119.015419,176.584053 116.607834,176.876477 114.531751,177.953858 C114.848304,176.895098 115.180331,175.841845 115.530191,174.7941 C115.88687,173.743732 116.232797,172.689955 116.651895,171.659781 C117.064961,170.628034 117.503729,169.604417 118.050025,168.615681 L115.660798,167.839379 C115.521536,168.960296 115.274746,170.046332 115.002778,171.123975 C114.736055,172.203717 114.396685,173.259592 114.067806,174.318877 C113.735255,175.37213 113.384608,176.419613 113.018225,177.462113 C111.971791,175.370294 110.196263,173.718555 107.89437,172.970577 C103.064251,171.401188 97.5126438,174.315468 95.802157,179.579896 C92.8021174,188.813168 98.5931721,194.321764 102.032766,198.640992 C104.639672,201.914836 104.808832,205.303288 104.808832,205.303288 C104.808832,205.303288 106.937368,202.661239 110.970466,201.545043 C116.292068,200.07243 124.215068,199.019702 127.215108,189.78643 C128.925595,184.522264 126.147168,178.901419 121.317049,177.33203" id="Fill-13" fill="#429B44"></path>
            <path d="M160.057871,50.4694838 C157.451227,47.1959026 157.282067,43.8074498 157.282067,43.8074498 C157.282067,43.8074498 155.153531,46.4492366 151.120171,47.5654328 C145.798831,49.038046 137.875831,50.0907743 134.875529,59.324046 C133.165305,64.5882121 135.943731,70.2090574 140.77385,71.778446 C143.07548,72.5264234 145.482803,72.2339989 147.559148,71.15688 C147.242595,72.2153781 146.910569,73.2688932 146.560708,74.3166385 C146.204029,75.3667442 145.85784,76.4205215 145.439005,77.4506951 C145.025938,78.4824423 144.587171,79.5060592 144.040874,80.4947951 L146.430101,81.271097 C146.569101,80.15018 146.816154,79.0641442 147.088122,77.9865008 C147.354582,76.9070215 147.693952,75.851146 148.022831,74.7915989 C148.355644,73.738346 148.706291,72.690863 149.07215,71.648363 C150.119108,73.7401819 151.894637,75.3919215 154.196267,76.1398989 C159.026386,77.7092875 164.577993,74.7950083 166.288742,69.5308423 C169.28852,60.2975706 163.497465,54.7887121 160.057871,50.4694838" id="Fill-15" fill="#3CB200"></path>
            <path d="M86.2986483,158.049006 C87.1769709,157.378659 88.0647351,156.721425 88.9637766,156.079664 C89.869637,155.439478 90.769203,154.790636 91.713354,154.203427 C92.6540955,153.611496 93.6108351,153.041072 94.6339275,152.56244 L93.1571181,150.529893 C92.3857992,151.354976 91.5478653,152.088528 90.6941955,152.800576 C89.8439351,153.517081 88.9485653,154.171955 88.0600143,154.835745 C87.1717257,155.492193 86.2721596,156.133691 85.3636766,156.761813 C85.74632,154.454151 85.2805389,152.074366 83.8577558,150.116302 C80.8729275,146.007672 74.6682823,145.102074 70.1903842,148.355723 C62.3360974,154.062066 63.7832709,161.922647 64.0271766,167.438849 C64.2120728,171.619602 62.3570785,174.460185 62.3570785,174.460185 C62.3570785,174.460185 65.6319709,173.573995 69.5512464,175.041625 C74.7215219,176.978183 81.7504634,180.783636 89.6044879,175.07703 C94.0829106,171.823644 95.138786,165.643127 92.1536955,161.534496 C90.7309125,159.576432 88.6115558,158.397817 86.2986483,158.049006" id="Fill-17" fill="#3FAD2B"></path>
            <path d="M199.733532,74.6503696 C199.733532,74.6503696 196.458902,75.5365602 192.539627,74.06893 C187.369089,72.1323715 180.34041,68.3269187 172.485861,74.0335243 C168.007962,77.2869111 166.952087,83.4674281 169.937178,87.5760583 C171.359698,89.5341225 173.479317,90.7127375 175.792225,91.0615489 C174.913902,91.731896 174.026138,92.3888677 173.127096,93.0308904 C172.221236,93.6710772 171.321932,94.3199187 170.377519,94.9071281 C169.436515,95.4990583 168.480038,96.0694828 167.456945,96.5481149 L168.933755,98.5806621 C169.705074,97.7555791 170.543008,97.0220262 171.396678,96.3099791 C172.246938,95.5934734 173.142045,94.9385998 174.030859,94.2748092 C174.919147,93.6183621 175.818189,92.976864 176.727196,92.3487413 C176.344291,94.6564036 176.810334,97.0361885 178.233117,98.9942526 C181.217945,103.102883 187.422328,104.008481 191.900489,100.755094 C199.754513,95.0484885 198.307602,87.1879074 198.063696,81.6717055 C197.8788,77.4909526 199.733532,74.6503696 199.733532,74.6503696" id="Fill-19" fill="#429B44"></path>
            <path d="M256.440707,119.856422 C253.39582,115.250539 249.946259,108.040635 240.237765,108.040635 C234.70268,108.040635 230.215603,112.419922 230.215603,117.498405 C230.215603,119.918841 231.237384,122.117925 232.903548,123.759699 C231.799154,123.785925 230.694497,123.795629 229.589841,123.78645 C228.480988,123.772025 227.37161,123.768354 226.262758,123.688363 C225.15338,123.614142 224.044527,123.513171 222.935412,123.299163 L222.935412,125.811392 C224.044527,125.597384 225.15338,125.496412 226.262758,125.422192 C227.37161,125.342201 228.480988,125.338792 229.589841,125.324105 C230.694497,125.314925 231.799154,125.324892 232.903548,125.350856 C231.237384,126.992629 230.215603,129.191714 230.215603,131.61215 C230.215603,136.690633 234.70268,141.06992 240.237765,141.06992 C249.946259,141.06992 253.39582,133.860016 256.440707,129.254133 C258.748631,125.763135 261.919142,124.555408 261.919142,124.555408 C261.919142,124.555408 258.748631,123.34742 256.440707,119.856422" id="Fill-21" fill="#429B44"></path>
            <path d="M35.8281679,123.688311 C34.7190528,123.768301 33.6099377,123.771973 32.5008226,123.78666 C31.3964283,123.795577 30.2917717,123.785873 29.1871151,123.759647 C30.8532792,122.117873 31.8753226,119.918788 31.8753226,117.498615 C31.8753226,112.419869 27.387983,108.040582 21.8531604,108.040582 C12.1444038,108.040582 8.6948434,115.250486 5.65021887,119.856369 C3.34229434,123.347367 0.171783019,124.555356 0.171783019,124.555356 C0.171783019,124.555356 3.34229434,125.763082 5.65021887,129.254081 C8.6948434,133.859964 12.1444038,141.07013 21.8531604,141.07013 C27.387983,141.07013 31.8753226,136.690843 31.8753226,131.612098 C31.8753226,129.191662 30.8532792,126.992577 29.1871151,125.350803 C30.2917717,125.324839 31.3964283,125.315135 32.5008226,125.324052 C33.6099377,125.338739 34.7190528,125.342411 35.8281679,125.422139 C36.937283,125.49636 38.0463981,125.597332 39.1555132,125.811339 L39.1555132,123.299111 C38.0463981,123.513118 36.937283,123.61409 35.8281679,123.688311" id="Fill-23" fill="#429B44"></path>
            <path d="M235.254432,194.4594 C235.498337,188.943461 236.945248,181.082617 229.090962,175.376274 C224.613064,172.122625 218.408943,173.028223 215.42359,177.136853 C214.001069,179.094917 213.535288,181.474964 213.918194,183.782364 C213.009186,183.154242 212.109882,182.513006 211.221332,181.856296 C210.332781,181.192506 209.437673,180.537895 208.58715,179.821127 C207.733481,179.109342 206.895809,178.375789 206.124228,177.550706 L204.647681,179.582991 C205.670511,180.061885 206.62725,180.632047 207.568254,181.223978 C208.512405,181.811187 209.411971,182.460028 210.317832,183.100215 C211.216611,183.742238 212.104375,184.399472 212.982698,185.069557 C210.670052,185.41863 208.550433,186.596983 207.127913,188.555047 C204.14256,192.663678 205.198698,198.844195 209.676858,202.097581 C217.531145,207.804187 224.559824,203.998734 229.730624,202.062176 C233.649637,200.594545 236.924267,201.480736 236.924267,201.480736 C236.924267,201.480736 235.069535,198.640153 235.254432,194.4594" id="Fill-25" fill="#429B44"></path>
            <path d="M54.5226713,67.8866034 C53.5782581,67.299394 52.6789543,66.6502902 51.773094,66.0103657 C50.8740525,65.368343 49.9862883,64.7111091 49.1079657,64.0410242 C51.4208732,63.6919506 53.5404921,62.5135977 54.9630128,60.5555336 C57.9483657,56.4469034 56.8919657,50.2663864 52.4140675,47.0129996 C44.5597808,41.306394 37.5311015,45.1118468 32.3603015,47.0484053 C28.4412883,48.5160355 25.1663958,47.6298449 25.1663958,47.6298449 C25.1663958,47.6298449 27.0213902,50.4704279 26.836494,54.6511808 C26.5925883,60.1671204 25.1454147,68.0279638 32.9999638,73.7343072 C37.4778619,76.9879562 43.6819826,76.0823581 46.6673355,71.9737279 C48.0898562,70.0156638 48.5556374,67.6356166 48.1727317,65.3282166 C49.0817392,65.9563392 49.981043,66.5975751 50.8693317,67.2542845 C51.7581449,67.9180751 52.6532525,68.5726864 53.5035128,69.2894543 C54.3571826,70.0012392 55.1948543,70.7347921 55.9666977,71.5598751 L57.4432449,69.5275902 C56.4201525,69.0486958 55.4636751,68.4785336 54.5226713,67.8866034" id="Fill-27" fill="#429B44"></path>
            <path d="M180.494254,223.300117 C178.783767,218.035951 173.232159,215.121672 168.402041,216.69106 C166.100148,217.439038 164.32462,219.090515 163.277661,221.182596 C162.911803,220.140096 162.561156,219.092613 162.228605,218.039098 C161.899725,216.979813 161.560356,215.923938 161.293633,214.844458 C161.021665,213.766553 160.774875,212.680779 160.635612,211.5596 L158.246386,212.335902 C158.792682,213.324638 159.23145,214.348255 159.644516,215.380264 C160.063614,216.410175 160.409541,217.463953 160.76622,218.514321 C161.11608,219.562066 161.448107,220.615581 161.764659,221.674079 C159.688314,220.59696 157.280992,220.304536 154.979361,221.052251 C150.149242,222.621639 147.370816,228.242485 149.081303,233.506651 C152.081342,242.740185 160.004342,243.792913 165.325682,245.265526 C169.359042,246.38146 171.487578,249.023509 171.487578,249.023509 C171.487578,249.023509 171.656739,245.635056 174.263644,242.361475 C177.702976,238.042247 183.494031,232.533388 180.494254,223.300117" id="Fill-29" fill="#3CB200"></path>
            <path d="M113.009623,15.6037991 C110.009583,6.37052736 102.086583,5.31779906 96.7649811,3.84518585 C92.731883,2.72898962 90.6030849,0.0872028302 90.6030849,0.0872028302 C90.6030849,0.0872028302 90.4341868,3.47565566 87.8270189,6.74923679 C84.3876868,11.0684651 78.5963698,16.5773236 81.5966717,25.8105953 C83.3071585,31.0747613 88.8585038,33.9890406 93.6886226,32.4196519 C95.9905151,31.6716745 97.7663057,30.0199349 98.8127396,27.928116 C99.1791226,28.970616 99.5297698,30.0180991 99.8623208,31.0713519 C100.1912,32.1306368 100.53057,33.1867745 100.797292,34.2662538 C101.06926,35.3438972 101.316051,36.429933 101.455051,37.55085 L103.84454,36.7745481 C103.298243,35.7858123 102.859475,34.7621953 102.446409,33.7304481 C102.027311,32.7002745 101.681385,31.6464972 101.324443,30.5963915 C100.974583,29.5486462 100.642819,28.4951311 100.326266,27.436633 C102.402349,28.5137519 104.809672,28.8061764 107.111564,28.0581991 C111.941683,26.4888104 114.719847,20.8679651 113.009623,15.6037991" id="Fill-31" fill="#3FAD2B"></path>
            <path d="M107.111512,221.052303 C104.809882,220.304326 102.402297,220.59675 100.325951,221.674132 C100.642766,220.615371 100.974793,219.562118 101.324653,218.514373 C101.681332,217.464005 102.027259,216.410228 102.446095,215.380316 C102.859423,214.348307 103.298191,213.32469 103.844487,212.335954 L101.455261,211.559652 C101.315998,212.680569 101.069208,213.766605 100.79724,214.844248 C100.530517,215.92399 100.191148,216.979865 99.8622683,218.03915 C99.5297174,219.092403 99.1790702,220.139886 98.8126872,221.182386 C97.7662532,219.090567 95.9907249,217.438828 93.6885702,216.691113 C88.8584513,215.121462 83.307106,218.036003 81.5966192,223.300169 C78.5963174,232.533441 84.3876343,238.042037 87.8272287,242.361265 C90.4341343,245.635109 90.6032947,249.023562 90.6032947,249.023562 C90.6032947,249.023562 92.7318306,246.381513 96.7649287,245.265316 C102.086531,243.792703 110.009531,242.739975 113.00957,233.506703 C114.720057,228.242537 111.941631,222.621692 107.111512,221.052303" id="Fill-33" fill="#3FAD2B"></path>
            <path d="M174.263671,6.74921057 C171.656765,3.47562943 171.487605,0.0871766038 171.487605,0.0871766038 C171.487605,0.0871766038 169.359069,2.7289634 165.325708,3.84515962 C160.004369,5.31777283 152.081369,6.37050113 149.081067,15.6037728 C147.370842,20.8679389 150.149269,26.4887842 154.979388,28.0581728 C157.281018,28.8061502 159.688603,28.5137257 161.764686,27.4366068 C161.448133,28.4951049 161.116106,29.54862 160.766246,30.5963653 C160.409567,31.6464709 160.063378,32.7002483 159.644805,33.7304219 C159.231476,34.7624313 158.792708,35.7860483 158.246412,36.7745219 L160.635638,37.5508238 C160.774638,36.4299068 161.021691,35.3438709 161.293659,34.2662275 C161.560382,33.1867483 161.899489,32.1308728 162.228369,31.0713257 C162.561182,30.0180728 162.911829,28.9705898 163.27795,27.9280898 C164.324646,30.0201709 166.100174,31.6716483 168.401805,32.4196257 C173.231923,33.9890143 178.783531,31.0747351 180.49428,25.8105691 C183.494057,16.5772974 177.703003,11.0684389 174.263671,6.74921057" id="Fill-35" fill="#429B44"></path>
            <path d="M49.1078345,185.069662 C49.9864194,184.399315 50.8739213,183.742081 51.7729628,183.10032 C52.6788232,182.460133 53.5783892,181.811292 54.5225402,181.224082 C55.463544,180.632152 56.4200213,180.061728 57.4431138,179.583096 L55.9665666,177.550548 C55.1949855,178.375632 54.3570515,179.109184 53.5033817,179.821232 C52.6533836,180.537737 51.7580138,181.192611 50.8694628,181.856401 C49.9809119,182.512848 49.0816081,183.154347 48.1728628,183.782469 C48.5557685,181.474807 48.0897251,179.095022 46.6672043,177.136958 C43.6821138,173.028328 37.4777308,172.12273 32.9998326,175.376116 C25.1455458,181.082722 26.5924572,188.943303 26.8363628,194.459505 C27.0212591,198.640258 25.166527,201.480841 25.166527,201.480841 C25.166527,201.480841 28.4411572,200.59465 32.3604326,202.062281 C37.5309704,203.998839 44.5596496,207.804292 52.4139364,202.097686 C56.8920968,198.844299 57.9482345,192.663782 54.9628817,188.555152 C53.5403609,186.597088 51.4207421,185.418473 49.1078345,185.069662" id="Fill-37" fill="#3FAD2B"></path>
            <path d="M236.92432,47.62974 C236.92432,47.62974 233.64969,48.5159306 229.730414,47.0483004 C224.559614,45.1117419 217.531197,41.3062891 209.676648,47.0128947 C205.19875,50.2662815 204.142612,56.4467985 207.127965,60.5554287 C208.550486,62.5134928 210.670105,63.6921079 212.98275,64.0409192 C212.104427,64.7112664 211.216663,65.3685004 210.317884,66.0102608 C209.412024,66.6504475 208.512458,67.2995513 207.568044,67.8867608 C206.627303,68.4784287 205.670825,69.0488532 204.647733,69.5274853 L206.12428,71.5600325 C206.895861,70.7349494 207.733795,70.0013966 208.587465,69.2893494 C209.437463,68.5728438 210.332571,67.9179702 211.221384,67.2541796 C212.109935,66.5977325 213.008976,65.9562343 213.917984,65.3281117 C213.535078,67.635774 214.001122,70.0155589 215.423642,71.973623 C218.408733,76.0822532 224.613116,76.9878513 229.091014,73.7344645 C236.945301,68.0278589 235.49839,60.1672777 235.254484,54.6510758 C235.069588,50.470323 236.92432,47.62974 236.92432,47.62974" id="Fill-39" fill="#429B44"></path>
            <path d="M234.477894,153.221851 C233.00528,147.900511 231.952552,139.977249 222.71928,136.977209 C217.455114,135.266722 211.834007,138.045149 210.26488,142.875268 C209.516641,145.17716 209.809065,147.584483 210.886446,149.660828 C209.827948,149.344275 208.774433,149.012249 207.726688,148.662388 C206.67632,148.305709 205.622805,147.95952 204.592631,147.540685 C203.560622,147.127356 202.537005,146.688588 201.548269,146.142292 L200.771967,148.531518 C201.893146,148.670781 202.97892,148.917571 204.056826,149.189802 C205.136305,149.456262 206.19218,149.795632 207.251465,150.124511 C208.304718,150.457324 209.352201,150.807971 210.394963,151.17383 C208.302882,152.220526 206.651143,153.996317 205.903428,156.297947 C204.333777,161.128066 207.248318,166.679673 212.512484,168.39016 C221.745756,171.3902 227.254614,165.599145 231.573843,162.159551 C234.847424,159.552645 238.235877,159.383485 238.235877,159.383485 C238.235877,159.383485 235.59409,157.255211 234.477894,153.221851" id="Fill-41" fill="#3FAD2B"></path>
            <path d="M58.0340474,99.9208581 C56.9545681,99.6541355 55.8984304,99.3147657 54.8391455,98.9861487 C53.7858926,98.6533355 52.7386719,98.3026883 51.6959096,97.9365675 C53.7879908,96.8901336 55.4394681,95.114343 56.1874455,92.8124506 C57.7568342,87.9823317 54.8425549,82.4307242 49.5783889,80.7204996 C40.3451172,77.7201977 34.8362587,83.5115147 30.5170304,86.9511091 C27.2434492,89.5580147 23.8549964,89.7269128 23.8549964,89.7269128 C23.8549964,89.7269128 26.4967832,91.8554487 27.6129794,95.8888091 C29.0855926,101.210149 30.1383209,109.133149 39.3715926,112.133451 C44.6357587,113.843675 50.2568662,111.065511 51.8259926,106.235392 C52.57397,103.9335 52.2815455,101.526177 51.2044266,99.4498317 C52.2629247,99.7663845 53.3164398,100.098411 54.3641851,100.448271 C55.414553,100.804951 56.4680681,101.151139 57.4982417,101.569975 C58.5302511,101.983303 59.5538681,102.421809 60.5423417,102.968105 L61.3186436,100.578879 C60.1977266,100.439879 59.1116908,100.193088 58.0340474,99.9208581" id="Fill-43" fill="#3CB200"></path>
            <path d="M197.909721,188.489376 C194.656072,184.011216 188.475555,182.955078 184.366925,185.940431 C182.408861,187.362952 181.230508,189.482571 180.881434,191.795478 C180.211349,190.917156 179.554115,190.029129 178.912093,189.13035 C178.272168,188.22449 177.623065,187.324924 177.035855,186.380773 C176.443925,185.439769 175.873763,184.483292 175.394868,183.460199 L173.362583,184.936746 C174.187666,185.708327 174.921219,186.546261 175.633266,187.399931 C176.349772,188.250192 177.004646,189.145299 177.668174,190.034112 C178.324883,190.922401 178.966382,191.821705 179.594242,192.730712 C177.286842,192.347807 174.906795,192.813588 172.948731,194.236108 C168.8401,197.221199 167.934765,203.425582 171.188151,207.903742 C176.894495,215.758029 184.755338,214.310856 190.271278,214.06695 C194.452031,213.882054 197.292614,215.736786 197.292614,215.736786 C197.292614,215.736786 196.406685,212.462156 197.874053,208.543142 C199.810612,203.372342 203.616065,196.343663 197.909721,188.489376" id="Fill-45" fill="#3CB200"></path>
            <path d="M90.9026168,41.2069434 C85.1960111,33.3526566 77.3356923,34.7998302 71.8194904,35.0437358 C67.6387375,35.2286321 64.7981545,33.3736377 64.7981545,33.3736377 C64.7981545,33.3736377 65.6843451,36.6485302 64.2167149,40.5675434 C62.2801564,45.7380811 58.4747036,52.7670226 64.181047,60.6213094 C67.434696,65.0992075 73.615213,66.1553453 77.7238432,63.1702547 C79.6819074,61.7474717 80.8602602,59.6281151 81.2093338,57.3152075 C81.8796809,58.1935302 82.5369149,59.0812943 83.1786753,59.9803358 C83.8185998,60.8861962 84.4677036,61.7855 85.054913,62.7299132 C85.6468432,63.6706547 86.2172677,64.6273943 86.6958998,65.6504868 L88.7281847,64.1736774 C87.9031017,63.4023585 87.1698111,62.5641623 86.457764,61.7104925 C85.740996,60.8602321 85.0861225,59.9651245 84.4225942,59.0765736 C83.7658847,58.1882849 83.1246489,57.2887189 82.4965262,56.3799736 C84.8039262,56.7628792 87.1837111,56.2970981 89.1420375,54.8743151 C93.2506677,51.8892245 94.1560036,45.6848415 90.9026168,41.2069434" id="Fill-47" fill="#429B44"></path>
            <path d="M138.102217,205.55855 C135.681782,205.55855 133.482697,206.580594 131.840923,208.246758 C131.814697,207.142101 131.804993,206.037445 131.81391,204.93305 C131.828859,203.823935 131.832531,202.71482 131.912259,201.605705 C131.986742,200.49659 132.087451,199.387475 132.301459,198.27836 L129.789493,198.27836 C130.003238,199.387475 130.10421,200.49659 130.178431,201.605705 C130.258421,202.71482 130.261831,203.823935 130.276517,204.93305 C130.285434,206.037445 130.275731,207.142101 130.250029,208.246758 C128.608255,206.580594 126.408908,205.55855 123.988734,205.55855 C118.909989,205.55855 114.530702,210.045628 114.530702,215.580975 C114.530702,225.289207 121.740606,228.738767 126.346489,231.783916 C129.837487,234.091578 131.045476,237.26209 131.045476,237.26209 C131.045476,237.26209 132.253202,234.091578 135.7442,231.783916 C140.350083,228.738767 147.560249,225.289207 147.560249,215.580975 C147.560249,210.045628 143.1807,205.55855 138.102217,205.55855" id="Fill-49" fill="#429B44"></path>
            <path d="M135.744148,17.3267434 C132.25315,15.0188189 131.045423,11.8485698 131.045423,11.8485698 C131.045423,11.8485698 129.837697,15.0188189 126.346437,17.3267434 C121.740554,20.3716302 114.53065,23.8211906 114.53065,33.5296849 C114.53065,39.0647698 118.909937,43.5521094 123.988682,43.5521094 C126.408855,43.5521094 128.608203,42.530066 130.249976,40.8639019 C130.275678,41.9685585 130.285906,43.0729528 130.276727,44.1776094 C130.26204,45.2867245 130.258369,46.3958396 130.178378,47.5049547 C130.104157,48.6140698 130.003186,49.7231849 129.78944,50.8323 L132.301406,50.8323 C132.087661,49.7231849 131.986689,48.6140698 131.912469,47.5049547 C131.832478,46.3958396 131.828806,45.2867245 131.814382,44.1776094 C131.80494,43.0729528 131.814906,41.9685585 131.840871,40.8639019 C133.482644,42.530066 135.681991,43.5521094 138.102165,43.5521094 C143.180648,43.5521094 147.560197,39.0647698 147.560197,33.5296849 C147.560197,23.8211906 140.350031,20.3716302 135.744148,17.3267434" id="Fill-51" fill="#3FAD2B"></path>
            <path d="M89.1420638,194.236135 C87.1837374,192.813614 84.8039525,192.347833 82.4962902,192.730738 C83.1246751,191.821731 83.7659109,190.922427 84.4226204,190.034138 C85.0861487,189.145325 85.7410223,188.250218 86.4577902,187.399957 C87.1695751,186.546288 87.9031279,185.708354 88.7282109,184.936772 L86.695926,183.460225 C86.217294,184.483318 85.6468694,185.439795 85.0549392,186.380799 C84.4677298,187.32495 83.818626,188.224516 83.1787015,189.130376 C82.5366789,190.029155 81.8797072,190.917182 81.20936,191.795505 C80.8602864,189.482597 79.6819336,187.362978 77.7238694,185.940457 C73.6152392,182.955105 67.43446,184.011242 64.1810732,188.489403 C58.4747298,196.343689 62.2801826,203.372369 64.2167411,208.543169 C65.6843713,212.462182 64.7981808,215.736812 64.7981808,215.736812 C64.7981808,215.736812 67.6387638,213.88208 71.8195166,214.066976 C77.3354562,214.310882 85.1960374,215.758055 90.902643,207.903506 C94.1560298,203.425608 93.250694,197.221225 89.1420638,194.236135" id="Fill-53" fill="#429B44"></path>
            <path d="M197.874106,40.5675172 C196.406475,36.648504 197.292666,33.3736115 197.292666,33.3736115 C197.292666,33.3736115 194.452083,35.2286058 190.27133,35.0437096 C184.755391,34.799804 176.894547,33.3526304 171.188204,41.2069172 C167.934817,45.6850775 168.840153,51.8891983 172.948783,54.8745511 C174.906847,56.2970719 177.286894,56.762853 179.594557,56.3799474 C178.966172,57.2889549 178.324936,58.1882587 177.668226,59.0765474 C177.004698,59.9650983 176.349825,60.8604681 175.633057,61.7107285 C174.921009,62.5643983 174.187719,63.4023323 173.362636,64.1736511 L175.394921,65.6504606 C175.873553,64.6273681 176.443977,63.6706285 177.035908,62.729887 C177.623117,61.7854738 178.272221,60.88617 178.912145,59.9803096 C179.553906,59.0812681 180.21114,58.193504 180.881487,57.3151813 C181.23056,59.6280889 182.408913,61.7477077 184.366977,63.1702285 C188.475608,66.1553191 194.655862,65.0991813 197.909774,60.6212832 C203.616117,52.7669964 199.810664,45.7383172 197.874106,40.5675172" id="Fill-55" fill="#3CB200"></path>
            <path d="M58.0340474,149.189697 C59.1116908,148.917466 60.1977266,148.670676 61.3186436,148.531676 L60.5423417,146.142449 C59.5538681,146.688746 58.5302511,147.127251 57.4982417,147.54058 C56.4680681,147.959415 55.414553,148.305604 54.3641851,148.662283 C53.3164398,149.012144 52.2629247,149.34417 51.2044266,149.660723 C52.2812832,147.584378 52.57397,145.177055 51.8259926,142.875163 C50.2568662,138.045044 44.6357587,135.26688 39.3715926,136.977366 C30.1383209,139.977406 29.0855926,147.900406 27.6129794,153.221746 C26.4967832,157.255106 23.8549964,159.383642 23.8549964,159.383642 C23.8549964,159.383642 27.2434492,159.55254 30.5170304,162.159708 C34.8362587,165.59904 40.3451172,171.390357 49.5783889,168.390317 C54.8425549,166.679831 57.7568342,161.128223 56.1874455,156.298104 C55.4394681,153.996212 53.7879908,152.220421 51.6959096,151.173987 C52.7386719,150.807866 53.7858926,150.457219 54.8391455,150.124406 C55.8984304,149.795527 56.9545681,149.456419 58.0340474,149.189697" id="Fill-57" fill="#3FAD2B"></path>
            <path d="M231.573764,86.9509779 C227.254536,83.5113836 221.745677,77.7203289 212.512405,80.7203685 C207.248239,82.4308553 204.33396,87.9824628 205.903349,92.8125817 C206.651326,95.1144742 208.303066,96.8900025 210.394885,97.9366987 C209.352385,98.3028194 208.304639,98.6534666 207.251649,98.9860175 C206.192364,99.3148968 205.136226,99.6542666 204.056747,99.9209892 C202.979104,100.192957 201.893068,100.439748 200.772151,100.57901 L201.548453,102.968236 C202.536926,102.42194 203.560543,101.983435 204.592553,101.569844 C205.622726,101.15127 206.676241,100.805082 207.726609,100.448402 C208.774355,100.098542 209.82787,99.7665157 210.886368,99.4497006 C209.809249,101.526046 209.516562,103.933368 210.264802,106.235261 C211.833928,111.06538 217.455036,113.843806 222.719202,112.133319 C231.952473,109.13328 233.005202,101.21028 234.477815,95.8886779 C235.594011,91.8555798 238.235798,89.727044 238.235798,89.727044 C238.235798,89.727044 234.847345,89.5578836 231.573764,86.9509779" id="Fill-59" fill="#3CB200"></path>
            <path d="M44.3899123,366.897607 C46.8116594,368.662383 49.6957783,370.082019 53.0456783,371.158088 C56.3937425,372.234683 60.100584,372.772587 64.1675142,372.772587 C68.1730745,372.772587 71.866016,372.324115 75.2447651,371.427172 C78.6224651,370.53049 81.5527425,369.229922 84.0348104,367.52573 C86.515567,365.821275 88.4439953,363.773779 89.8203575,361.381668 C91.1951462,358.990605 91.8833274,356.26909 91.8833274,353.219483 C91.8833274,350.409322 91.4797028,347.972364 90.6724538,345.909394 C89.8652047,343.846162 88.6388575,342.052538 86.9947236,340.527472 C85.3495406,339.00293 83.3020443,337.733047 80.8506613,336.715462 C78.3982292,335.699451 75.5280104,334.862828 72.2400047,334.204283 C68.9506877,333.546787 66.1997991,332.979247 63.9883877,332.50009 C61.7754028,332.021983 59.9969896,331.528926 58.6515745,331.019872 C57.3058972,330.512653 56.3488953,329.959013 55.7813557,329.360526 C55.2122425,328.763613 54.9292594,328.015111 54.9292594,327.118168 C54.9292594,326.221224 55.1826066,325.474558 55.6916613,324.875809 C56.1988802,324.278896 56.8574255,323.815213 57.6646745,323.485809 C58.4719236,323.157717 59.3985028,322.91827 60.4454613,322.767992 C61.4908462,322.619551 62.5823896,322.544019 63.7190425,322.544019 C65.2734821,322.544019 66.5895236,322.709245 67.6655934,323.037338 C68.7421877,323.366741 69.6388689,323.75463 70.3566858,324.203102 C71.0739783,324.651573 71.6263066,325.086145 72.0160311,325.50367 C72.4039198,325.92303 72.6884764,326.221224 72.8678651,326.400875 C73.4062934,326.880032 73.9289858,327.238809 74.437516,327.476945 C74.9449972,327.716655 75.6177047,327.835985 76.4559009,327.835985 L88.2055972,327.835985 C88.6837047,327.835985 89.1167028,327.642434 89.5061651,327.252972 C89.8945783,326.864558 90.0891783,326.400875 90.0891783,325.862447 C90.0291198,323.949492 89.3409387,321.946843 88.0264708,319.852926 C86.710167,317.760845 84.8869066,315.847628 82.5548538,314.112488 C80.2230632,312.378922 77.4564387,310.959287 74.2583896,309.852007 C71.058767,308.746302 67.5452142,308.192662 63.7190425,308.192662 C59.8315009,308.192662 56.3192594,308.716928 53.1802198,309.762575 C50.0409179,310.809534 47.3639877,312.22917 45.1523142,314.023056 C42.9395915,315.816681 41.2506104,317.879913 40.084584,320.211704 C38.9188198,322.544019 38.3355443,324.996451 38.3355443,327.566639 C38.3355443,332.710164 39.7554425,336.82063 42.5960255,339.899873 C45.4355594,342.980166 49.93575,345.177677 56.0952858,346.492145 C59.3830292,347.209962 62.2393481,347.808187 64.660833,348.286032 C67.0825802,348.765451 69.0700179,349.25877 70.6255066,349.766251 C72.1799462,350.274781 73.3457104,350.828421 74.1235858,351.425596 C74.90015,352.023821 75.2896123,352.771011 75.2896123,353.667955 C75.2896123,355.461841 74.2274425,356.7034 72.1057255,357.390007 C69.9824349,358.078188 67.3364519,358.421755 64.1675142,358.421755 C62.3736274,358.421755 60.8629858,358.21273 59.6382123,357.793632 C58.4118651,357.376107 57.3958538,356.882788 56.5886047,356.313938 C55.7813557,355.746136 55.1377594,355.192496 54.6599142,354.65433 C54.1807575,354.116426 53.8219802,353.728013 53.5838443,353.488304 C53.1044255,353.070779 52.6263179,352.756849 52.1484726,352.546513 C51.669316,352.337751 51.0120821,352.232583 50.1754594,352.232583 L38.4255009,352.232583 C37.9460821,352.232583 37.5128217,352.427445 37.124933,352.815858 C36.7352085,353.205321 36.5416575,353.667955 36.5416575,354.205858 C36.600667,356.479164 37.3182217,358.721522 38.6943217,360.933196 C40.0691104,363.145919 41.9684274,365.134668 44.3899123,366.897607" id="Fill-61" fill="#000000"></path>
            <path d="M159.871165,371.158115 C160.34901,370.680269 160.588457,370.11273 160.588457,369.453922 L160.588457,311.511379 C160.588457,310.854145 160.34901,310.286343 159.871165,309.807186 C159.391746,309.329341 158.824206,309.089632 158.166972,309.089632 L147.762429,309.089632 C146.565718,309.089632 145.668774,309.419035 145.071336,310.076532 C144.473112,310.735077 144.084961,311.212922 143.905572,311.511379 L129.375089,336.356973 L114.844344,311.511379 C114.665218,311.212922 114.275493,310.735077 113.67858,310.076532 C113.080093,309.419035 112.18315,309.089632 110.987487,309.089632 L100.583206,309.089632 C99.9243987,309.089632 99.3568591,309.329341 98.8787515,309.807186 C98.3995949,310.286343 98.1614591,310.854145 98.1614591,311.511379 L98.1614591,369.453922 C98.1614591,370.11273 98.3995949,370.680269 98.8787515,371.158115 C99.3568591,371.637534 99.9243987,371.875669 100.583206,371.875669 L112.333165,371.875669 C112.990399,371.875669 113.557938,371.637534 114.037357,371.158115 C114.515202,370.680269 114.754912,370.11273 114.754912,369.453922 L114.754912,339.765358 L123.18618,354.564662 C123.484636,355.044081 123.888261,355.537137 124.397053,356.044618 C124.904272,356.553411 125.607665,356.80702 126.504608,356.80702 L132.245308,356.80702 C133.142252,356.80702 133.844333,356.553411 134.353125,356.044618 C134.860344,355.537137 135.263968,355.044081 135.563736,354.564662 L143.995267,339.765358 L143.995267,369.453922 C143.995267,370.11273 144.233402,370.680269 144.712821,371.158115 C145.190667,371.637534 145.758206,371.875669 146.417014,371.875669 L158.166972,371.875669 C158.824206,371.875669 159.391746,371.637534 159.871165,371.158115" id="Fill-63" fill="#000000"></path>
            <path d="M207.9472,344.429202 C207.886879,345.745505 207.826558,346.940643 207.767549,348.017237 C207.467781,351.007835 206.422396,353.48833 204.628509,355.461605 C202.834622,357.435143 200.083471,358.421781 196.37663,358.421781 C192.668215,358.421781 189.903164,357.435143 188.079903,355.461605 C186.255069,353.48833 185.223585,351.007835 184.985186,348.017237 C184.864807,346.940643 184.790586,345.745505 184.761213,344.429202 C184.730266,343.114734 184.716366,341.769056 184.716366,340.392956 C184.716366,339.018168 184.730266,337.688226 184.761213,336.40182 C184.790586,335.116464 184.864807,333.965911 184.985186,332.948588 C185.104517,331.454469 185.418447,330.078107 185.927239,328.822386 C186.434458,327.566666 187.152013,326.476434 188.079903,325.548805 C189.00622,324.622488 190.156773,323.88946 191.533135,323.351032 C192.907924,322.812866 194.522422,322.544045 196.37663,322.544045 C198.229264,322.544045 199.844024,322.812866 201.220124,323.351032 C202.594913,323.88946 203.745466,324.622488 204.673356,325.548805 C205.599673,326.476434 206.317228,327.566666 206.82602,328.822386 C207.333239,330.078107 207.647169,331.454469 207.767549,332.948588 C207.826558,333.965911 207.886879,335.116464 207.9472,336.40182 C208.005947,337.688226 208.036894,339.018168 208.036894,340.392956 C208.036894,341.769056 208.005947,343.114734 207.9472,344.429202 M224.361264,332.500117 C224.181613,329.15179 223.448585,325.997277 222.163752,323.037364 C220.877085,320.077188 219.053824,317.507 216.692398,315.323651 C214.329398,313.141351 211.445279,311.407785 208.036894,310.121379 C204.628509,308.836022 200.740705,308.192688 196.37663,308.192688 C191.95066,308.192688 188.048956,308.836022 184.671518,310.121379 C181.292507,311.407785 178.422288,313.141351 176.060862,315.323651 C173.697862,317.507 171.874602,320.077188 170.589507,323.037364 C169.302839,325.997277 168.571122,329.15179 168.391996,332.500117 C168.271354,335.071617 168.212345,337.762447 168.212345,340.572345 C168.212345,343.383817 168.271354,346.014326 168.391996,348.465709 C168.571122,351.815085 169.302839,354.968549 170.589507,357.928462 C171.874602,360.888375 173.697862,363.475349 176.060862,365.687022 C178.422288,367.899745 181.292507,369.633573 184.671518,370.889294 C188.048956,372.145015 191.95066,372.772613 196.37663,372.772613 C200.740705,372.772613 204.628509,372.145015 208.036894,370.889294 C211.445279,369.633573 214.329398,367.899745 216.692398,365.687022 C219.053824,363.475349 220.877085,360.888375 222.163752,357.928462 C223.448585,354.968549 224.181613,351.815085 224.361264,348.465709 C224.480332,346.014326 224.540652,343.383817 224.540652,340.572345 C224.540652,337.762447 224.480332,335.071617 224.361264,332.500117" id="Fill-65" fill="#000000"></path>
            <path d="M40.1552642,299.146647 L67.8595377,299.146647 C68.2149057,299.146647 68.522017,299.017875 68.7813962,298.758496 C69.0399887,298.499904 69.1695472,298.192792 69.1695472,297.836638 L69.1695472,290.510288 C69.1695472,290.154658 69.0399887,289.847809 68.7813962,289.58843 C68.522017,289.329838 68.2149057,289.200279 67.8595377,289.200279 L55.0505566,289.200279 L67.9080566,274.984251 C68.3279415,274.564366 68.5388019,274.030396 68.5388019,273.383128 L68.5388019,266.493449 C68.5388019,266.138081 68.4089811,265.83097 68.1506509,265.57159 C67.8912717,265.312998 67.5844226,265.183439 67.2285302,265.183439 L40.6404528,265.183439 C40.2840358,265.183439 39.9769245,265.312998 39.7185943,265.57159 C39.4594774,265.83097 39.3301811,266.138081 39.3301811,266.493449 L39.3301811,273.72276 C39.3301811,274.079177 39.4594774,274.386026 39.7185943,274.644619 C39.9769245,274.903736 40.2840358,275.03277 40.6404528,275.03277 L53.1583208,275.03277 L39.5730377,289.15176 C39.443217,289.281581 39.2895302,289.483787 39.1119774,289.758115 C38.9339,290.033492 38.8452547,290.397515 38.8452547,290.849921 L38.8452547,297.836638 C38.8452547,298.192792 38.9740264,298.499904 39.2334057,298.758496 C39.4919981,299.017875 39.7991094,299.146647 40.1552642,299.146647" id="Fill-67" fill="#000000"></path>
            <path d="M85.5684525,286.0465 L90.0807072,286.0465 C90.8244883,286.0465 91.3825864,286.297487 91.7547392,286.798674 C92.1261053,287.300385 92.3125751,287.841698 92.3125751,288.423925 C92.3125751,288.974417 92.1426279,289.508125 91.8029958,290.025047 C91.463626,290.543019 90.8890053,290.801349 90.0807072,290.801349 L85.5684525,290.801349 L85.5684525,286.0465 Z M85.5684525,273.528895 L89.6440374,273.528895 C90.3552977,273.528895 90.8646147,273.771227 91.1725128,274.256415 C91.4793619,274.741866 91.6333109,275.243578 91.6333109,275.7605 C91.6333109,276.278472 91.4793619,276.772053 91.1725128,277.240457 C90.8646147,277.709647 90.3552977,277.943849 89.6440374,277.943849 L85.5684525,277.943849 L85.5684525,273.528895 Z M74.7487449,299.146595 L91.34246,299.146595 C95.7734128,299.146595 99.1613411,298.281647 101.506769,296.550966 C103.851935,294.82081 105.024781,292.127881 105.024781,288.472444 C105.024781,287.664408 104.903352,286.895449 104.660758,286.167928 C104.418164,285.439883 104.085875,284.769274 103.66599,284.154264 C103.245318,283.540042 102.752,282.998204 102.186296,282.529013 C101.619805,282.06061 101.029449,281.696587 100.415226,281.437208 C100.803377,281.243395 101.223262,280.960412 101.676717,280.588259 C102.129385,280.21663 102.550056,279.779961 102.938207,279.277987 C103.326358,278.777062 103.649205,278.194836 103.908847,277.531308 C104.167177,276.868828 104.296735,276.148651 104.296735,275.372349 C104.296735,271.944295 103.22119,269.38853 101.0701,267.706368 C98.9187468,266.024993 95.5150826,265.183387 90.8570091,265.183387 L74.7487449,265.183387 C74.3925902,265.183387 74.0854789,265.312945 73.8268864,265.5718 C73.5677694,265.830917 73.4387355,266.138028 73.4387355,266.493396 L73.4387355,297.836585 C73.4387355,298.19274 73.5677694,298.499851 73.8268864,298.758444 C74.0854789,299.017823 74.3925902,299.146595 74.7487449,299.146595 L74.7487449,299.146595 Z" id="Fill-69" fill="#000000"></path>
            <path d="M121.181065,274.207975 L124.722943,274.207975 C125.531241,274.207975 126.105599,274.491483 126.445494,275.056924 C126.785126,275.623152 126.955073,276.229769 126.955073,276.876513 C126.955073,277.524043 126.768603,278.097877 126.396975,278.598802 C126.024822,279.100775 125.466724,279.350713 124.722943,279.350713 L121.181065,279.350713 L121.181065,274.207975 Z M110.361358,299.146673 L119.871056,299.146673 C120.226686,299.146673 120.533535,299.017902 120.793177,298.75826 C121.051507,298.49993 121.181065,298.192818 121.181065,297.836664 L121.181065,288.56956 L123.170339,288.56956 L127.342962,297.836664 C127.439999,298.06326 127.650073,298.338637 127.973707,298.661485 C128.296816,298.985381 128.781743,299.146673 129.429273,299.146673 L139.375641,299.146673 C139.666754,299.146673 139.916954,299.04203 140.127815,298.831432 C140.337888,298.621358 140.443056,298.370371 140.443056,298.079258 C140.443056,297.917703 140.394799,297.739626 140.297762,297.545288 L134.329941,286.483249 C135.882545,285.512609 137.143773,284.235383 138.11415,282.649996 C139.08479,281.065658 139.569716,279.173685 139.569716,276.973551 C139.569716,275.129834 139.230084,273.480192 138.55082,272.024626 C137.871818,270.56906 136.901179,269.331698 135.639688,268.312802 C134.378198,267.294168 132.825594,266.517866 130.981877,265.984158 C129.13816,265.450188 127.052111,265.183466 124.722943,265.183466 L110.361358,265.183466 C110.005203,265.183466 109.698092,265.313024 109.439499,265.571617 C109.180382,265.830996 109.051348,266.137845 109.051348,266.493475 L109.051348,297.836664 C109.051348,298.192818 109.180382,298.49993 109.439499,298.75826 C109.698092,299.017902 110.005203,299.146673 110.361358,299.146673 L110.361358,299.146673 Z" id="Fill-71" fill="#000000"></path>
            <path d="M159.704417,276.245636 L162.469993,285.270146 L156.987361,285.270146 L159.704417,276.245636 Z M142.480219,299.146542 L151.45621,299.146542 C152.102953,299.146542 152.555359,299.009378 152.814476,298.734263 C153.07333,298.459672 153.251408,298.19295 153.348445,297.93357 L154.512898,294.731325 L164.944193,294.731325 L166.108908,297.93357 C166.205945,298.19295 166.383236,298.459672 166.642615,298.734263 C166.900945,299.009378 167.353613,299.146542 168.001144,299.146542 L176.976872,299.146542 C177.268247,299.146542 177.518447,299.042161 177.729308,298.831301 C177.939119,298.621227 178.044549,298.37024 178.044549,298.079127 C178.044549,297.950355 178.027764,297.836533 177.99603,297.739495 L167.176323,266.784719 C167.079285,266.428827 166.852689,266.073459 166.496796,265.717042 C166.140642,265.361674 165.639717,265.183335 164.992974,265.183335 L154.464379,265.183335 C153.816849,265.183335 153.315925,265.361674 152.960295,265.717042 C152.603878,266.073459 152.377806,266.428827 152.280768,266.784719 L141.461061,297.739495 C141.42854,297.836533 141.412804,297.950355 141.412804,298.079127 C141.412804,298.37024 141.517185,298.621227 141.728045,298.831301 C141.938119,299.042161 142.189106,299.146542 142.480219,299.146542 L142.480219,299.146542 Z" id="Fill-73" fill="#000000"></path>
            <path d="M182.022493,299.146647 L206.476003,299.146647 C206.831633,299.146647 207.138744,299.017875 207.397861,298.758496 C207.656454,298.499904 207.786012,298.192792 207.786012,297.836638 L207.786012,290.510288 C207.786012,290.154658 207.656454,289.847809 207.397861,289.58843 C207.138744,289.329838 206.831633,289.200279 206.476003,289.200279 L193.036276,289.200279 L193.036276,266.493449 C193.036276,266.138081 192.906718,265.83097 192.648388,265.57159 C192.388746,265.312998 192.081635,265.183439 191.726267,265.183439 L182.022493,265.183439 C181.666338,265.183439 181.359227,265.312998 181.100635,265.57159 C180.841518,265.83097 180.712484,266.138081 180.712484,266.493449 L180.712484,297.836638 C180.712484,298.192792 180.841518,298.499904 181.100635,298.758496 C181.359227,299.017875 181.666338,299.146647 182.022493,299.146647" id="Fill-75" fill="#000000"></path>
            <path d="M212.394937,299.146647 L222.292786,299.146647 C222.648417,299.146647 222.955528,299.017875 223.214645,298.758496 C223.472975,298.499904 223.602796,298.192792 223.602796,297.836638 L223.602796,266.493449 C223.602796,266.138081 223.472975,265.83097 223.214645,265.57159 C222.955528,265.312998 222.648417,265.183439 222.292786,265.183439 L212.394937,265.183439 C212.038783,265.183439 211.731671,265.312998 211.473079,265.57159 C211.2137,265.83097 211.084928,266.138081 211.084928,266.493449 L211.084928,297.836638 C211.084928,298.192792 211.2137,298.499904 211.473079,298.758496 C211.731671,299.017875 212.038783,299.146647 212.394937,299.146647" id="Fill-77" fill="#000000"></path>
            <path d="M56.3013992,395.806591 C55.8162106,396.211265 55.314237,396.413208 54.7975766,396.413208 L51.4009936,396.413208 L51.4009936,391.027352 L54.7975766,391.027352 C55.670654,391.027352 56.260486,391.33525 56.5683842,391.94921 C56.8752332,392.56422 57.0291823,393.178705 57.0291823,393.792927 C57.0291823,394.731308 56.7868502,395.402442 56.3013992,395.806591 M65.6411502,384.938365 C64.363137,383.951989 62.8273181,383.215814 61.03212,382.730888 C59.2366596,382.245437 57.2392558,382.002842 55.0399087,382.002842 L40.3386917,382.002842 C39.9822747,382.002842 39.6751634,382.132401 39.4168332,382.391255 C39.1577162,382.650372 39.0289445,382.957484 39.0289445,383.312852 L39.0289445,414.65604 C39.0289445,415.012195 39.1577162,415.319306 39.4168332,415.577899 C39.6751634,415.837278 39.9822747,415.96605 40.3386917,415.96605 L50.3335785,415.96605 C50.6892087,415.96605 50.9960577,415.837278 51.255437,415.577899 C51.5140294,415.319306 51.6435879,415.012195 51.6435879,414.65604 L51.6435879,405.388937 L55.0399087,405.388937 C57.2392558,405.388937 59.2366596,405.170733 61.03212,404.734063 C62.8273181,404.297393 64.363137,403.610523 65.6411502,402.67188 C66.9186389,401.734286 67.9050143,400.53705 68.6008011,399.081484 C69.2963257,397.625918 69.6440879,395.896023 69.6440879,393.889965 C69.6440879,391.884955 69.2963257,390.138276 68.6008011,388.649927 C67.9050143,387.162627 66.9186389,385.925265 65.6411502,384.938365" id="Fill-79" fill="#000000"></path>
            <path d="M93.3692636,403.060083 C93.3039598,404.418612 92.9569843,405.41338 92.3259768,406.044125 C91.6952315,406.674608 90.8462825,406.990112 89.7788674,406.990112 C88.7114523,406.990112 87.8622409,406.674608 87.2317579,406.044125 C86.6007504,405.41338 86.2527258,404.418612 86.1884711,403.060083 C86.0914334,400.311293 86.0914334,397.593974 86.1884711,394.908914 C86.2527258,393.550385 86.6086183,392.555617 87.255624,391.924872 C87.9023674,391.294389 88.7431862,390.978885 89.7788674,390.978885 C90.8137617,390.978885 91.6543183,391.294389 92.3018485,391.924872 C92.9485919,392.555617 93.3039598,393.550385 93.3692636,394.908914 C93.4663013,397.593974 93.4663013,400.311293 93.3692636,403.060083 M104.625641,389.135168 C103.816818,387.485527 102.709015,386.095002 101.301967,384.962546 C99.8951825,383.830876 98.2127579,382.973272 96.2562674,382.391046 C94.2987277,381.808819 92.1397692,381.517706 89.7788674,381.517706 C87.3849202,381.517706 85.2180938,381.808819 83.2773391,382.391046 C81.3365843,382.973272 79.6625523,383.830876 78.2555051,384.962546 C76.8487202,386.095002 75.7401296,387.485527 74.9320938,389.135168 C74.1230089,390.78481 73.6706032,392.677046 73.5735655,394.811876 C73.5082617,396.202925 73.4765277,397.642755 73.4765277,399.130055 C73.4765277,400.618142 73.5082617,402.025451 73.5735655,403.351197 C73.6706032,405.518548 74.1230089,407.419176 74.9320938,409.052295 C75.7401296,410.685938 76.8487202,412.052597 78.2555051,413.151746 C79.6625523,414.251944 81.3365843,415.076765 83.2773391,415.62647 C85.2180938,416.176176 87.3849202,416.451291 89.7788674,416.451291 C92.1397692,416.451291 94.2987277,416.176176 96.2562674,415.62647 C98.2127579,415.076765 99.8951825,414.251944 101.301967,413.151746 C102.709015,412.052597 103.816818,410.685938 104.625641,409.052295 C105.433677,407.419176 105.886869,405.518548 105.984169,403.351197 C106.048686,402.025451 106.081207,400.618142 106.081207,399.130055 C106.081207,397.642755 106.048686,396.202925 105.984169,394.811876 C105.886869,392.677046 105.433677,390.78481 104.625641,389.135168" id="Fill-81" fill="#000000"></path>
            <path d="M127.137819,390.97878 C127.720045,390.97878 128.212839,391.05169 128.617775,391.197246 C129.021924,391.342803 129.361556,391.52088 129.636409,391.730954 C129.911,391.941814 130.121598,392.151888 130.267417,392.361437 C130.412711,392.572297 130.534139,392.742245 130.631177,392.871278 C130.92229,393.227433 131.390956,393.404724 132.038224,393.404724 L142.760894,393.404724 C143.052007,393.404724 143.302207,393.300343 143.513068,393.089482 C143.722879,392.879409 143.828309,392.628422 143.828309,392.337571 C143.795788,390.882005 143.383247,389.498824 142.591209,388.189077 C141.79786,386.879067 140.690581,385.731137 139.267536,384.744237 C137.843704,383.757862 136.105417,382.973429 134.051626,382.391203 C131.997311,381.808714 129.692534,381.517863 127.137819,381.517863 C124.743609,381.517863 122.56026,381.784586 120.587772,382.318294 C118.614496,382.852001 116.916073,383.652431 115.49329,384.720109 C114.069458,385.787262 112.953524,387.129792 112.145488,388.746912 C111.336666,390.36482 110.883998,392.240533 110.78696,394.375101 C110.721656,395.766412 110.689922,397.237714 110.689922,398.790318 C110.689922,400.342922 110.721656,401.78249 110.78696,403.108497 C110.883998,405.373148 111.328273,407.338031 112.121098,409.003671 C112.913398,410.669835 114.013334,412.052754 115.420381,413.151903 C116.827428,414.251839 118.517458,415.076922 120.490734,415.626365 C122.463485,416.176071 124.679355,416.451186 127.137819,416.451186 C129.595496,416.451186 131.844149,416.167678 133.881941,415.602237 C135.919734,415.036533 137.674019,414.187584 139.146107,413.055128 C140.617672,411.922933 141.766126,410.532146 142.591209,408.882505 C143.415768,407.232863 143.828309,405.308631 143.828309,403.108497 L143.828309,396.801045 C143.828309,396.445677 143.698751,396.138565 143.440158,395.879448 C143.180779,395.620594 142.87393,395.491035 142.5183,395.491035 L129.175611,395.491035 C128.819194,395.491035 128.512083,395.620594 128.253753,395.879448 C127.994636,396.138565 127.865602,396.445677 127.865602,396.801045 L127.865602,402.186639 C127.865602,402.543056 127.994636,402.850167 128.253753,403.108497 C128.512083,403.367877 128.819194,403.496648 129.175611,403.496648 L131.455998,403.496648 C131.455998,404.758139 131.075453,405.655869 130.315673,406.189577 C129.55537,406.723284 128.560864,406.990269 127.331894,406.990269 C126.134921,406.990269 125.197064,406.66716 124.5178,406.019892 C123.838536,405.373148 123.466383,404.321469 123.401866,402.865903 C123.304828,400.052071 123.304828,397.303018 123.401866,394.617695 C123.498904,392.191752 124.743609,390.97878 127.137819,390.97878" id="Fill-83" fill="#000000"></path>
            <path d="M179.246689,382.002895 L169.736729,382.002895 C169.380574,382.002895 169.073463,382.132453 168.815133,382.391046 C168.555754,382.650425 168.426982,382.957536 168.426982,383.312904 L168.426982,402.963046 C168.426982,405.454293 167.230008,406.698998 164.836586,406.698998 C162.442376,406.698998 161.245927,405.454293 161.245927,402.963046 L161.245927,383.312904 C161.245927,382.957536 161.116369,382.650425 160.858038,382.391046 C160.598659,382.132453 160.29181,382.002895 159.93618,382.002895 L150.42622,382.002895 C150.070065,382.002895 149.762954,382.132453 149.504623,382.391046 C149.245244,382.650425 149.11621,382.957536 149.11621,383.312904 L149.11621,403.157121 C149.11621,405.454293 149.504623,407.435174 150.280925,409.100551 C151.057227,410.766978 152.131986,412.149634 153.507299,413.249046 C154.881825,414.348982 156.539859,415.158066 158.480352,415.674989 C160.421369,416.191912 162.555937,416.451291 164.884842,416.451291 C167.181227,416.451291 169.291929,416.191912 171.216686,415.674989 C173.140918,415.158066 174.790559,414.348982 176.16561,413.249046 C177.540137,412.149634 178.615944,410.766978 179.392246,409.100551 C180.168548,407.435174 180.556699,405.454293 180.556699,403.157121 L180.556699,383.312904 C180.556699,382.957536 180.426878,382.650425 180.168548,382.391046 C179.909169,382.132453 179.602057,382.002895 179.246689,382.002895" id="Fill-85" fill="#000000"></path>
            <path d="M221.699938,382.002895 L214.034219,382.002895 C213.386689,382.002895 212.901501,382.181234 212.578653,382.536602 C212.254757,382.893019 212.044946,383.151349 211.947646,383.312904 L204.91241,394.957432 L197.877174,383.312904 C197.780399,383.151349 197.569538,382.893019 197.246691,382.536602 C196.922795,382.181234 196.437606,382.002895 195.790863,382.002895 L188.124882,382.002895 C187.768727,382.002895 187.461616,382.132453 187.203285,382.391046 C186.943906,382.650425 186.814872,382.957536 186.814872,383.312904 L186.814872,414.656093 C186.814872,415.012248 186.943906,415.319359 187.203285,415.577951 C187.461616,415.837331 187.768727,415.966102 188.124882,415.966102 L196.907059,415.966102 C197.262427,415.966102 197.569538,415.837331 197.828655,415.577951 C198.087248,415.319359 198.216806,415.012248 198.216806,414.656093 L198.216806,401.361923 L201.419314,406.601961 C201.580606,406.861078 201.79881,407.128063 202.074187,407.402653 C202.348516,407.677506 202.729061,407.814932 203.214512,407.814932 L206.610833,407.814932 C207.095759,407.814932 207.47578,407.677506 207.750633,407.402653 C208.025223,407.128063 208.243427,406.861078 208.406031,406.601961 L211.608276,401.361923 L211.608276,414.656093 C211.608276,415.012248 211.737048,415.319359 211.996165,415.577951 C212.254757,415.837331 212.561868,415.966102 212.918285,415.966102 L221.699938,415.966102 C222.055568,415.966102 222.362418,415.837331 222.622059,415.577951 C222.880389,415.319359 223.009948,415.012248 223.009948,414.656093 L223.009948,383.312904 C223.009948,382.957536 222.880389,382.650425 222.622059,382.391046 C222.362418,382.132453 222.055568,382.002895 221.699938,382.002895" id="Fill-87" fill="#000000"></path>
        </g>
    </g>
</svg>