<?xml version="1.0" encoding="UTF-8" standalone="no"?>
<svg
   xmlns:dc="http://purl.org/dc/elements/1.1/"
   xmlns:cc="http://creativecommons.org/ns#"
   xmlns:rdf="http://www.w3.org/1999/02/22-rdf-syntax-ns#"
   xmlns:svg="http://www.w3.org/2000/svg"
   xmlns="http://www.w3.org/2000/svg"
   xmlns:sodipodi="http://sodipodi.sourceforge.net/DTD/sodipodi-0.dtd"
   xmlns:inkscape="http://www.inkscape.org/namespaces/inkscape"
   width="389.83731"
   height="330.2926"
   viewBox="0 0 389.83731 330.29261"
   version="1.1"
   id="svg50"
   sodipodi:docname="list_desno.svg"
   inkscape:version="0.92.4 (5da689c313, 2019-01-14)">
  <metadata
     id="metadata56">
    <rdf:RDF>
      <cc:Work
         rdf:about="">
        <dc:format>image/svg+xml</dc:format>
        <dc:type
           rdf:resource="http://purl.org/dc/dcmitype/StillImage" />
        <dc:title>logo_velik</dc:title>
      </cc:Work>
    </rdf:RDF>
  </metadata>
  <defs
     id="defs54" />
  <sodipodi:namedview
     pagecolor="#ffffff"
     bordercolor="#666666"
     borderopacity="1"
     objecttolerance="10"
     gridtolerance="10"
     guidetolerance="10"
     inkscape:pageopacity="0"
     inkscape:pageshadow="2"
     inkscape:window-width="1920"
     inkscape:window-height="1001"
     id="namedview52"
     showgrid="false"
     fit-margin-top="0"
     fit-margin-left="0"
     fit-margin-right="0"
     fit-margin-bottom="0"
     inkscape:zoom="1.31"
     inkscape:cx="-240.34782"
     inkscape:cy="-170.40522"
     inkscape:window-x="-9"
     inkscape:window-y="-9"
     inkscape:window-maximized="1"
     inkscape:current-layer="svg50" />
  <title
     id="title2">logo_velik</title>
  <path
     d="M 335.05532,118.15957 C 304.60621,72.101132 270.11037,0.0026 173.0248,0.0026 c -55.35129,0 -100.222396,43.792555 -100.222396,94.577056 0,24.204104 10.217971,46.194834 26.882286,62.612404 -11.046576,0.262 -22.093253,0.359 -33.139929,0.268 -11.088577,-0.144 -22.182454,-0.181 -33.271031,-0.98099 C 22.182454,155.73707 11.091277,154.72718 0,152.5871 v 25.1221 c 11.091277,-2.14008 22.182454,-3.14977 33.27373,-3.89197 11.088577,-0.79999 22.182454,-0.83399 33.271031,-0.98099 11.046676,-0.09 22.093353,0.008 33.137329,0.267 -16.661715,16.41757 -26.879686,38.4082 -26.879686,62.6124 0,50.7844 44.871106,94.57696 100.222396,94.57696 97.08557,0 131.58141,-72.09843 162.03052,-118.15697 C 358.13468,177.226 389.84,165.1488 389.84,165.1488 c 0,0 -31.70532,-12.0798 -54.78468,-46.98953"
     id="Fill-1"
     inkscape:connector-curvature="0"
     style="fill:#429b44;fill-rule:evenodd;stroke:none;stroke-width:9.99999523" />
</svg>
