<?xml version="1.0" encoding="UTF-8"?>
<svg width="50px" height="80px" viewBox="0 0 50 80" version="1.1" xmlns="http://www.w3.org/2000/svg" xmlns:xlink="http://www.w3.org/1999/xlink">
    <title>logo_menu</title>
    <defs>
        <polygon id="path-1" points="0.0142913265 0.0212712713 6.26518189 0.0212712713 6.26518189 7.17079079 0.0142913265 7.17079079"></polygon>
        <polygon id="path-3" points="0.0253953954 0.0400850851 6.24761762 0.0400850851 6.24761762 6.70670671 0.0253953954 6.70670671"></polygon>
        <polygon id="path-5" points="0.02003003 0.0401151151 6.3441041 0.0401151151 6.3441041 6.70670671 0.02003003 6.70670671"></polygon>
        <polygon id="path-7" points="0.045955956 0.0325775776 6.04595596 0.0325775776 6.04595596 6.60660661 0.045955956 6.60660661"></polygon>
    </defs>
    <g id="PODOBA-1" stroke="none" stroke-width="1" fill="none" fill-rule="evenodd">
        <g id="logo_menu">
            <g id="Group-17" transform="translate(0.000005, 0.029029)">
                <path d="M40.133048,22.8778328 C39.551967,21.9988539 38.8936587,20.6228779 37.0409059,20.6228779 C35.9845996,20.6228779 35.1282432,21.4586637 35.1282432,22.4278829 C35.1282432,22.8896947 35.3232883,23.3094144 35.6412563,23.6227778 C35.4304454,23.6276827 35.2196847,23.6295846 35.0088739,23.6278328 C34.7972122,23.6250801 34.5855506,23.6243794 34.3739389,23.6090641 C34.1622773,23.5949499 33.9506156,23.5756807 33.738954,23.5348398 L33.738954,24.0142693 C33.9506156,23.9734284 34.1622773,23.9541592 34.3739389,23.940045 C34.5855506,23.9247297 34.7972122,23.924029 35.0088739,23.9212763 C35.2196847,23.9195245 35.4304454,23.9214264 35.6412563,23.9263814 C35.3232883,24.2396947 35.1282432,24.6594144 35.1282432,25.1212262 C35.1282432,26.0904454 35.9845996,26.9262312 37.0409059,26.9262312 C38.8936587,26.9262312 39.551967,25.5503053 40.133048,24.6712763 C40.5734885,24.0050601 41.1784935,23.7745796 41.1784935,23.7745796 C41.1784935,23.7745796 40.5734885,23.544049 40.133048,22.8778328" id="Fill-1" fill="#48AC33"></path>
                <path d="M15.5774625,23.6090841 C15.3658008,23.6243994 15.1541391,23.6250501 14.9424775,23.6278529 C14.7317167,23.6295546 14.5209059,23.6277027 14.3100951,23.6226977 C14.6280631,23.3094344 14.8231081,22.8897147 14.8231081,22.4278529 C14.8231081,21.4586336 13.9668018,20.6228979 12.9104454,20.6228979 C11.0577427,20.6228979 10.3993844,21.9988238 9.81835335,22.8778529 C9.37791291,23.544019 8.77285786,23.7745996 8.77285786,23.7745996 C8.77285786,23.7745996 9.37791291,24.0050801 9.81835335,24.6712963 C10.3993844,25.5502753 11.0577427,26.9262012 12.9104454,26.9262012 C13.9668018,26.9262012 14.8231081,26.0904655 14.8231081,25.1212462 C14.8231081,24.6593343 14.6280631,24.2397147 14.3100951,23.9264014 C14.5209059,23.9213964 14.7317167,23.9195445 14.9424775,23.9212462 C15.1541391,23.924049 15.3658008,23.9247497 15.5774625,23.939965 C15.7891241,23.9541792 16.0007858,23.9733984 16.2124474,24.0142893 L16.2124474,23.5348599 C16.0007858,23.5757007 15.7891241,23.59497 15.5774625,23.6090841" id="Fill-3" fill="#48AC33"></path>
                <path d="M37.7653504,31.9583483 C37.8118969,30.9056957 38.088023,29.4055956 36.5891742,28.3165566 C35.7345696,27.6956857 34.5505856,27.8684585 33.9808659,28.6525926 C33.7093944,29.0262663 33.6205055,29.4804204 33.6935786,29.9208108 C33.5201051,29.8009409 33.3484835,29.6785185 33.178964,29.5531932 C33.0093443,29.4265666 32.8385235,29.3015916 32.6762613,29.1648549 C32.5133483,29.028969 32.3534384,28.888979 32.2061912,28.7315215 L31.9244094,29.1193594 C32.1196547,29.2108008 32.3021872,29.3195596 32.4817668,29.4325225 C32.6619469,29.5445846 32.8336186,29.6684585 33.0064915,29.7905806 C33.1780631,29.9131532 33.3474825,30.0385285 33.5151001,30.1664064 C33.0737087,30.233023 32.6692042,30.4578979 32.3977327,30.8315716 C31.8280631,31.6157057 32.0295646,32.7951852 32.8841692,33.4160561 C34.3830681,34.5050951 35.7244094,33.7788689 36.7111962,33.4092993 C37.4590941,33.1292192 38.084019,33.2982883 38.084019,33.2982883 C38.084019,33.2982883 37.7300651,32.7561962 37.7653504,31.9583483" id="Fill-5" fill="#48AC33"></path>
                <path d="M17.4696146,18.1165766 C17.2894344,18.0045145 17.1177628,17.8806406 16.9448899,17.7585185 C16.7733684,17.635996 16.6039489,17.5105706 16.4362813,17.3826426 C16.8776727,17.3160761 17.2821772,17.0912012 17.5536486,16.7175275 C18.1233684,15.9333934 17.9218168,14.7539139 17.0672122,14.133043 C15.5683133,13.0440541 14.226972,13.7702803 13.2402352,14.1397998 C12.4922873,14.4199299 11.8673123,14.2507608 11.8673123,14.2507608 C11.8673123,14.2507608 12.2213163,14.7929029 12.1860811,15.5907508 C12.1394845,16.6434034 11.8633083,18.1435536 13.3622573,19.2325425 C14.2168118,19.8534134 15.4008458,19.6806406 15.9705155,18.8965065 C16.242037,18.5228328 16.3308759,18.0686787 16.2578529,17.6282883 C16.4312763,17.7482082 16.6029479,17.8705806 16.7724174,17.9958559 C16.942037,18.1225325 17.1128579,18.2475075 17.2751201,18.3842943 C17.438033,18.5201301 17.5979429,18.6601201 17.7451902,18.8175776 L18.026972,18.4297397 C17.8317267,18.3383483 17.6491942,18.2294895 17.4696146,18.1165766" id="Fill-7" fill="#48AC33"></path>
                <path d="M31.7014464,34.2753654 C31.37502,33.2707608 30.3155606,32.7145546 29.3937888,33.0141041 C28.9545495,33.1567968 28.6156607,33.472012 28.4159109,33.8712112 C28.346041,33.6722623 28.2791742,33.4723624 28.2156607,33.2713614 C28.1528979,33.0691592 28.0881331,32.8676577 28.0372823,32.6617017 C27.9853303,32.4559459 27.9382332,32.2487387 27.9116567,32.0348248 L27.4557007,32.182973 C27.559955,32.3716617 27.6436386,32.567007 27.7225175,32.763954 C27.8024474,32.9605005 27.8685135,33.1616016 27.9365816,33.362002 C28.0033483,33.561952 28.0667117,33.7630531 28.1271221,33.9650551 C27.7308759,33.7594494 27.2715165,33.7036436 26.8322272,33.8463864 C25.9104555,34.1458859 25.3802252,35.2185586 25.7066517,36.2231632 C26.2791742,37.9852252 27.7912362,38.1861762 28.8067518,38.4671572 C29.5764214,38.6801702 29.9826276,39.1843243 29.9826276,39.1843243 C29.9826276,39.1843243 30.0149099,38.5376777 30.5124074,37.913003 C31.1688138,37.0886787 32.273969,36.0374274 31.7014464,34.2753654" id="Fill-9" fill="#48AC33"></path>
                <path d="M24.2447497,11.325951 C23.6722272,9.56388889 22.1601652,9.36298799 21.1446496,9.08195696 C20.3749299,8.86894394 19.9687237,8.36473974 19.9687237,8.36473974 C19.9687237,8.36473974 19.9364915,9.01138639 19.4389439,9.63616116 C18.7825876,10.4604354 17.6774324,11.5116867 18.249955,13.2737487 C18.5763814,14.2784034 19.6358408,14.8345596 20.5576126,14.5350601 C20.9968519,14.3923173 21.3357407,14.0771021 21.5354404,13.6779029 C21.6053604,13.8768519 21.6722773,14.0767518 21.7357407,14.2777528 C21.7985035,14.4799049 21.8632182,14.6814064 21.9141191,14.8874625 C21.9660711,15.0931181 22.0131682,15.3003754 22.0397447,15.5142893 L22.4957007,15.3661411 C22.3914464,15.1774525 22.3077127,14.9821071 22.2288338,14.7852102 C22.1489039,14.5886136 22.0828378,14.3875125 22.0147698,14.1871121 C21.948003,13.9871121 21.8846396,13.7861111 21.8242292,13.5840591 C22.2204755,13.7896647 22.6798849,13.8454705 23.1191742,13.7027277 C24.0409459,13.4032282 24.5711261,12.3305556 24.2447497,11.325951" id="Fill-11" fill="#48AC33"></path>
                <path d="M23.1191592,33.8463714 C22.6799199,33.7036286 22.2204605,33.7594845 21.8242142,33.96504 C21.8846246,33.763038 21.948038,33.5619369 22.0148048,33.361987 C22.0828228,33.1615866 22.1488889,32.9605355 22.2288188,32.7639389 C22.3076977,32.566992 22.3914314,32.3716466 22.4956857,32.183008 L22.0397297,32.0348599 C22.0131532,32.2487237 21.9660561,32.455981 21.9141041,32.6616867 C21.8632533,32.8676426 21.7984885,33.0691942 21.7357257,33.2713463 C21.6722122,33.4723473 21.6053453,33.6722472 21.5354254,33.8711962 C21.3357257,33.472047 20.9968869,33.1568318 20.5575976,33.0140891 C19.6358258,32.7145896 18.5763664,33.2707457 18.2499399,34.2753504 C17.6774174,36.0374124 18.7825726,37.0886637 19.438979,37.912988 C19.9364765,38.5376627 19.9687588,39.1843093 19.9687588,39.1843093 C19.9687588,39.1843093 20.3749149,38.6801552 21.1446346,38.4671421 C22.1601502,38.1861612 23.6722122,37.9852102 24.2447347,36.2231481 C24.5711612,35.2185435 24.0409309,34.1458709 23.1191592,33.8463714" id="Fill-13" fill="#48AC33"></path>
                <path d="M30.5123924,9.63615115 C30.0148949,9.01142643 29.9826627,8.36477978 29.9826627,8.36477978 C29.9826627,8.36477978 29.5764565,8.86893393 28.8067367,9.08194695 C27.7912212,9.36297798 26.2791592,9.56387888 25.7066366,11.3259409 C25.3802102,12.3305455 25.9104404,13.4032182 26.8322122,13.7027177 C27.2715015,13.8454605 27.7309109,13.7896547 28.1271572,13.584049 C28.0667467,13.7861011 28.0033834,13.9871522 27.9366166,14.1871021 C27.8685485,14.3875526 27.8024825,14.5886036 27.7225526,14.7852002 C27.6436737,14.9821471 27.5599399,15.1774424 27.4556857,15.3661311 L27.9116917,15.5142793 C27.9382182,15.3003654 27.9853153,15.0931081 28.0372673,14.8874525 C28.0881181,14.6814464 28.1528829,14.4799449 28.2156456,14.2777427 C28.2791592,14.0767417 28.3460761,13.8768418 28.4158959,13.6778929 C28.6156456,14.0770921 28.9545345,14.3923073 29.3937738,14.5350501 C30.3155455,14.8345495 31.375005,14.2783934 31.7014314,13.2737888 C32.273954,11.5117267 31.1687988,10.4604254 30.5123924,9.63615115" id="Fill-15" fill="#48AC33"></path>
                <path d="M16.4363063,30.1664214 C16.6039239,30.0384935 16.7733433,29.9131181 16.9449149,29.7905956 C17.1177878,29.6684735 17.2894094,29.5445996 17.4696396,29.4325375 C17.6491692,29.3195746 17.8317518,29.2107658 18.026997,29.1193744 L17.7451652,28.7315365 C17.5979179,28.888994 17.4380581,29.0289339 17.2751451,29.1648198 C17.1128829,29.3016066 16.942012,29.4265816 16.7724424,29.5532082 C16.6029229,29.6785335 16.4312513,29.8009059 16.2578278,29.9208258 C16.3309009,29.4804354 16.242012,29.0262813 15.9704905,28.6526076 C15.4008709,27.8684735 14.2167868,27.6957007 13.3622322,28.3165716 C11.8633333,29.4056106 12.1395095,30.9057107 12.1860561,31.9583634 C12.2213413,32.7562112 11.8673373,33.2983033 11.8673373,33.2983033 C11.8673373,33.2983033 12.4923123,33.1291842 13.2402102,33.4093143 C14.2269469,33.7788839 15.5683383,34.5051101 17.0671872,33.4160711 C17.9217918,32.7951502 18.1233433,31.6157207 17.5536737,30.8315866 C17.2821522,30.4579129 16.8776977,30.233038 16.4363063,30.1664214" id="Fill-17" fill="#48AC33"></path>
                <path d="M38.084024,14.2507758 C38.084024,14.2507758 37.4590991,14.4198949 36.7111512,14.1398148 C35.7244144,13.7702452 34.3830731,13.0440691 32.8841241,14.1330581 C32.0295696,14.7539289 31.828018,15.9334084 32.3977377,16.7175425 C32.6692092,17.0911662 33.0737137,17.3160911 33.5151051,17.3826577 C33.3474875,17.5105856 33.1780681,17.636011 33.0064965,17.7584835 C32.8336236,17.8806557 32.661952,18.0045295 32.4817718,18.1165916 C32.3021922,18.2295546 32.1196597,18.3383634 31.9244144,18.4297548 L32.2061962,18.8175926 C32.3534434,18.6601351 32.5133534,18.5201451 32.6762663,18.3842593 C32.8385285,18.2475225 33.0093493,18.1225475 33.178969,17.9958709 C33.3484885,17.8705956 33.5200601,17.7481732 33.6935335,17.6283033 C33.6204605,18.0686937 33.7093994,18.5228478 33.9808709,18.8965215 C34.5505405,19.6806557 35.7345746,19.8534284 36.5891291,19.2325576 C38.088028,18.1435185 37.8119019,16.6434184 37.7653554,15.5907157 C37.7300701,14.7929179 38.084024,14.2507758 38.084024,14.2507758" id="Fill-19" fill="#48AC33"></path>
                <path d="M48.9059309,22.8778328 C48.3248498,21.9988539 47.6665415,20.6228779 45.8137888,20.6228779 C44.7574825,20.6228779 43.9011261,21.4586637 43.9011261,22.4278829 C43.9011261,22.8896947 44.0961712,23.3094144 44.4141391,23.6227778 C44.2033283,23.6276827 43.9925676,23.6295846 43.7817568,23.6278328 C43.5700951,23.6250801 43.3584334,23.6243794 43.1467718,23.6090641 C42.9351101,23.5949499 42.7234985,23.5756807 42.5118368,23.5348398 L42.5118368,24.0142693 C42.7234985,23.9734284 42.9351101,23.9541592 43.1467718,23.940045 C43.3584334,23.9247297 43.5700951,23.924029 43.7817568,23.9212763 C43.9925676,23.9195245 44.2033283,23.9214264 44.4141391,23.9263814 C44.0961712,24.2396947 43.9011261,24.6594144 43.9011261,25.1212262 C43.9011261,26.0904454 44.7574825,26.9262312 45.8137888,26.9262312 C47.6665415,26.9262312 48.3248498,25.5503053 48.9059309,24.6712763 C49.3463714,24.0050601 49.9513764,23.7745796 49.9513764,23.7745796 C49.9513764,23.7745796 49.3463714,23.544049 48.9059309,22.8778328" id="Fill-21" fill="#48AC33"></path>
                <path d="M6.8046046,23.6090841 C6.59294294,23.6243994 6.38128128,23.6250501 6.16961962,23.6278529 C5.95885886,23.6295546 5.74804805,23.6277027 5.53723724,23.6226977 C5.85520521,23.3094344 6.05025025,22.8897147 6.05025025,22.4278529 C6.05025025,21.4586336 5.19389389,20.6228979 4.13758759,20.6228979 C2.28483483,20.6228979 1.62652653,21.9988238 1.04544545,22.8778529 C0.605005005,23.544019 4.39204229e-13,23.7745996 4.39204229e-13,23.7745996 C4.39204229e-13,23.7745996 0.605005005,24.0050801 1.04544545,24.6712963 C1.62652653,25.5502753 2.28483483,26.9262012 4.13758759,26.9262012 C5.19389389,26.9262012 6.05025025,26.0904655 6.05025025,25.1212462 C6.05025025,24.6593343 5.85520521,24.2397147 5.53723724,23.9264014 C5.74804805,23.9213964 5.95885886,23.9195445 6.16961962,23.9212462 C6.38128128,23.924049 6.59294294,23.9247497 6.8046046,23.939965 C7.01626627,23.9541792 7.22792793,23.9733984 7.43958959,24.0142893 L7.43958959,23.5348599 C7.22792793,23.5757007 7.01626627,23.59497 6.8046046,23.6090841" id="Fill-23" fill="#48AC33"></path>
                <path d="M44.8627528,37.1149249 C44.9092993,36.0622723 45.1854755,34.5621722 43.6865766,33.4731331 C42.831972,32.8522623 41.647988,33.025035 41.0782683,33.8091191 C40.8067968,34.1828428 40.7179079,34.636997 40.790981,35.0773874 C40.6175075,34.9575175 40.4458859,34.8350951 40.2763664,34.7097698 C40.1067467,34.5831431 39.9359259,34.4581682 39.7736637,34.3214314 C39.6107508,34.1855455 39.4508408,34.0455556 39.3035936,33.8880981 L39.0218118,34.2759359 C39.2170571,34.3673774 39.3995896,34.4761361 39.5791692,34.5890991 C39.7593994,34.7011612 39.931021,34.825035 40.1038939,34.9471572 C40.2754154,35.0696797 40.4448849,35.1951051 40.6125025,35.322983 C40.1711111,35.3895996 39.7666066,35.6144745 39.4951351,35.9881481 C38.9254655,36.7722322 39.126967,37.9517618 39.9815716,38.5726326 C41.4804705,39.6616717 42.8218118,38.9354454 43.8085986,38.5658759 C44.5564965,38.2857958 45.1814715,38.4548649 45.1814715,38.4548649 C45.1814715,38.4548649 44.8274675,37.9127728 44.8627528,37.1149249" id="Fill-25" fill="#48AC33"></path>
                <path d="M10.3722072,12.960005 C10.191977,12.8479429 10.0203554,12.7240691 9.84748248,12.6019469 C9.67591091,12.4794244 9.50649149,12.353999 9.33887387,12.2260711 C9.78026527,12.1595045 10.1847698,11.9346296 10.4562412,11.560956 C11.025961,10.7768218 10.8244094,9.59739239 9.9698048,8.97647147 C8.47090591,7.88748248 7.12956456,8.61370871 6.14282783,8.98322823 C5.39487988,9.26335836 4.76995495,9.09423924 4.76995495,9.09423924 C4.76995495,9.09423924 5.12390891,9.63633133 5.08862362,10.4341792 C5.04207708,11.4868318 4.7659009,12.986982 6.26484985,14.075971 C7.1194044,14.6968418 8.30343844,14.5240691 8.87310811,13.7399349 C9.14457958,13.3663113 9.23351852,12.9121071 9.16044545,12.4717668 C9.33386887,12.5916366 9.50549049,12.714009 9.67501001,12.8392843 C9.84462963,12.965961 10.0154505,13.0909359 10.1777127,13.2277227 C10.3406256,13.3635586 10.5005355,13.5035485 10.6477828,13.661006 L10.9295646,13.2731682 C10.7343193,13.1817768 10.5517868,13.0729179 10.3722072,12.960005" id="Fill-27" fill="#48AC33"></path>
                <path d="M34.4124124,42.6188639 C34.085986,41.6142593 33.0265265,41.0580531 32.1047548,41.3576026 C31.6655155,41.5002953 31.3266266,41.8155105 31.1268769,42.2147097 C31.057007,42.0157608 30.9901401,41.8158609 30.9266266,41.6148599 C30.8638639,41.4126577 30.7990991,41.2112062 30.7482482,41.0052002 C30.6962963,40.7994945 30.6491992,40.5922372 30.6226226,40.3783233 L30.1666667,40.5264715 C30.2709209,40.7151602 30.3546547,40.9105055 30.4334835,41.1074525 C30.5134635,41.303999 30.5794795,41.5051001 30.6475475,41.7055506 C30.7143143,41.9054505 30.7776777,42.1065516 30.8380881,42.3085536 C30.4418418,42.1029479 29.9824825,42.0471421 29.5431932,42.1898849 C28.6214214,42.4893844 28.0911912,43.5620571 28.4176176,44.5666617 C28.9901401,46.3287237 30.5022022,46.5296747 31.5177177,46.8106557 C32.2873874,47.0236687 32.6935936,47.5278228 32.6935936,47.5278228 C32.6935936,47.5278228 32.7258759,46.8812262 33.2233734,46.2565015 C33.8797798,45.4321772 34.9849349,44.3809259 34.4124124,42.6188639" id="Fill-29" fill="#48AC33"></path>
                <g id="Group-33" transform="translate(15.365360, 0.000000)">
                    <mask id="mask-2" fill="white">
                        <use xlink:href="#path-1"></use>
                    </mask>
                    <g id="Clip-32"></g>
                    <path d="M6.1683984,2.98245245 C5.59587588,1.22039039 4.08386386,1.01948949 3.0682983,0.738458458 C2.29862863,0.525445445 1.89242242,0.0212412412 1.89242242,0.0212412412 C1.89242242,0.0212412412 1.86014014,0.667887888 1.36264264,1.29266266 C0.706236236,2.11693694 -0.398918919,3.16818819 0.173603604,4.93025025 C0.50003003,5.9349049 1.55948949,6.49106106 2.48126126,6.19156156 C2.92055055,6.04881882 3.25938939,5.7336036 3.45913914,5.3344044 C3.52900901,5.53335335 3.59592593,5.73325325 3.65943944,5.93425425 C3.72215215,6.13640641 3.78691692,6.33790791 3.83781782,6.54396396 C3.88971972,6.74961962 3.93681682,6.95687688 3.96339339,7.17079079 L4.41934935,7.02264264 C4.3150951,6.83395395 4.23136136,6.63860861 4.15253253,6.44171171 C4.07255255,6.24511512 4.00653654,6.04401401 3.93846847,5.84361361 C3.8717017,5.64361361 3.80833834,5.44256256 3.74792793,5.24056056 C4.14412412,5.44616617 4.60358358,5.50197197 5.04282282,5.35922923 C5.96459459,5.05972973 6.49482482,3.98705706 6.1683984,2.98245245" id="Fill-31" fill="#48AC33" mask="url(#mask-2)"></path>
                </g>
                <path d="M20.4081982,42.1898699 C19.9689089,42.0471271 19.5094995,42.102983 19.1132533,42.3085385 C19.1736637,42.1065365 19.2370771,41.9054354 19.3038438,41.7055355 C19.3718619,41.5050851 19.4379279,41.304034 19.5178579,41.1074374 C19.5967367,40.9104905 19.6804705,40.7151451 19.7846747,40.5265065 L19.3287688,40.3783584 C19.3021922,40.5922222 19.2550951,40.7995295 19.2031431,41.0051852 C19.1522923,41.2111912 19.0875275,41.4126927 19.0247648,41.6148949 C18.9612513,41.8158458 18.8943343,42.0157457 18.8244645,42.2146947 C18.6247648,41.8154955 18.2858759,41.5003303 17.8465866,41.3575876 C16.9248148,41.0580881 15.8654054,41.6142442 15.538979,42.6188488 C14.9664064,44.3809109 16.0716116,45.4321622 16.728018,46.2564865 C17.2255155,46.8812112 17.2577978,47.5278078 17.2577978,47.5278078 C17.2577978,47.5278078 17.663954,47.0236537 18.4336737,46.8106406 C19.4491892,46.5296597 20.9612513,46.3287087 21.5337738,44.5666466 C21.8602002,43.562042 21.32997,42.4893694 20.4081982,42.1898699" id="Fill-34" fill="#48AC33"></path>
                <path d="M33.2233784,1.29264765 C32.7258809,0.667922923 32.6935986,0.0212762763 32.6935986,0.0212762763 C32.6935986,0.0212762763 32.2873924,0.52543043 31.5176727,0.738443443 C30.5021572,1.01947447 28.9901451,1.22037538 28.4176226,2.98243744 C28.0911962,3.98704204 28.6214264,5.05971471 29.5431982,5.35921421 C29.9824875,5.50195696 30.4418969,5.44615115 30.8380931,5.24054555 C30.7776827,5.4425976 30.7143694,5.64364865 30.6475526,5.8435986 C30.5794845,6.043999 30.5134184,6.2451001 30.4335385,6.4416967 C30.3546597,6.63864364 30.2709259,6.83393894 30.1666717,7.02262763 L30.6226276,7.17077578 C30.6492042,6.95686186 30.6963013,6.7496046 30.7482032,6.54394895 C30.7991041,6.33794294 30.8638689,6.13639139 30.9266316,5.93423924 C30.9900951,5.73323824 31.057012,5.53333834 31.1268819,5.33438939 C31.3266316,5.73358859 31.6655205,6.0488038 32.1047598,6.19154655 C33.0265315,6.49104605 34.085991,5.93488989 34.4124174,4.93028529 C34.9849399,3.16822322 33.8797848,2.11692192 33.2233784,1.29264765" id="Fill-36" fill="#48AC33"></path>
                <path d="M9.33887387,35.322993 C9.50649149,35.1950651 9.67591091,35.0696396 9.84748248,34.9471672 C10.0203554,34.825045 10.191977,34.7011712 10.3722072,34.5891091 C10.5517868,34.4761461 10.7343193,34.3672873 10.9295646,34.2759459 L10.6477828,33.8881081 C10.5005355,34.0455656 10.3406256,34.1855055 10.1777127,34.3213914 C10.0154505,34.4581782 9.84462963,34.5831532 9.67501001,34.7097798 C9.50549049,34.8351051 9.33386887,34.9574775 9.16044545,35.0773974 C9.23351852,34.637007 9.14457958,34.1828529 8.87310811,33.8091291 C8.30343844,33.025045 7.1194044,32.8522723 6.26484985,33.4731431 C4.7659009,34.5621822 5.04207708,36.0622823 5.08862362,37.1149349 C5.12390891,37.9127828 4.76995495,38.4548749 4.76995495,38.4548749 C4.76995495,38.4548749 5.39487988,38.2857558 6.14282783,38.5658859 C7.12956456,38.9354555 8.47090591,39.6616817 9.9698048,38.5726426 C10.8244094,37.9517217 11.025961,36.7722422 10.4562412,35.9881582 C10.1847698,35.6144845 9.78026527,35.3896096 9.33887387,35.322993" id="Fill-38" fill="#48AC33"></path>
                <path d="M45.1814565,9.09422422 C45.1814565,9.09422422 44.5564815,9.26334334 43.8085836,8.98326326 C42.8217968,8.61369369 41.4804555,7.88746747 39.9815566,8.97645646 C39.127002,9.59737738 38.9254505,10.7768569 39.4951201,11.5609409 C39.7666416,11.9346146 40.1710961,12.1594895 40.6124875,12.2261061 C40.4448699,12.354034 40.2754505,12.4794094 40.1038789,12.6019319 C39.931006,12.7240541 39.7593844,12.8479279 39.5791542,12.95999 C39.3996246,13.072953 39.2170921,13.1817618 39.0217968,13.2731532 L39.3036286,13.660991 C39.4508258,13.5035836 39.6107858,13.3635936 39.7736987,13.2277077 C39.9359109,13.0909209 40.1067317,12.965996 40.2763514,12.8393193 C40.4458709,12.713994 40.6174925,12.5916216 40.790966,12.4717518 C40.7178929,12.9120921 40.8067818,13.3662963 41.0783033,13.73997 C41.647973,14.5240541 42.832007,14.6968268 43.6865616,14.075956 C45.1854605,12.986967 44.9092843,11.4868669 44.8627377,10.4341642 C44.8274525,9.63631632 45.1814565,9.09422422 45.1814565,9.09422422" id="Fill-40" fill="#48AC33"></path>
                <path d="M44.7145596,29.2452352 C44.4335285,28.2297197 44.2326276,26.7176577 42.4705656,26.1451852 C41.465961,25.8187087 40.3932883,26.3489389 40.0937888,27.2707107 C39.951046,27.71 40.0068519,28.1694094 40.2124074,28.5656557 C40.0104054,28.5052452 39.8093544,28.4418318 39.6094044,28.3750651 C39.409004,28.307047 39.2079029,28.240981 39.0113063,28.1610511 C38.8144094,28.0821722 38.619014,27.9984384 38.4303754,27.8941842 L38.2821772,28.3501401 C38.4961411,28.3767167 38.7033483,28.4238138 38.9090541,28.4757658 C39.1150601,28.5266667 39.3165616,28.5914314 39.5187137,28.6540941 C39.7197648,28.7176577 39.9196647,28.7845746 40.1186136,28.8543944 C39.7194144,29.0541441 39.4041992,29.392983 39.2614565,29.8322723 C38.961957,30.754044 39.5181131,31.8135035 40.5227678,32.1399299 C42.2848298,32.7124525 43.3360811,31.6072973 44.1603554,30.9508909 C44.7851301,30.4533934 45.4317267,30.4211111 45.4317267,30.4211111 C45.4317267,30.4211111 44.9275726,30.014955 44.7145596,29.2452352" id="Fill-42" fill="#48AC33"></path>
                <path d="M11.0423373,19.0733684 C10.8363313,19.0224675 10.6347798,18.9577027 10.4326276,18.89499 C10.2316266,18.8314765 10.0317267,18.7645596 9.83277778,18.6946897 C10.232027,18.4949399 10.5471922,18.1561011 10.6899349,17.7168118 C10.9894344,16.79504 10.4332783,15.7355806 9.42867367,15.4092042 C7.66661161,14.8366316 6.61531031,15.9418368 5.79103604,16.5981932 C5.16631131,17.0956907 4.51966466,17.127973 4.51966466,17.127973 C4.51966466,17.127973 5.02381882,17.5341792 5.23683183,18.3038488 C5.51786286,19.3194144 5.71876376,20.8314264 7.48082583,21.4039489 C8.48543043,21.7303754 9.5581031,21.2001952 9.8576026,20.2784234 C10.0003453,19.8390841 9.94453954,19.3797247 9.73893393,18.9834785 C9.94098599,19.0438889 10.142037,19.1072523 10.341987,19.174019 C10.5423874,19.2420871 10.7434885,19.3081532 10.9400851,19.3880831 C11.136982,19.466962 11.3323273,19.5506957 11.521016,19.6549499 L11.6691642,19.1989439 C11.4552503,19.1724174 11.247993,19.1253203 11.0423373,19.0733684" id="Fill-44" fill="#48AC33"></path>
                <path d="M37.735951,35.9756507 C37.11503,35.121046 35.9356006,34.9194945 35.1515165,35.4891642 C34.7777928,35.7606857 34.5529179,36.1651401 34.4863514,36.6065315 C34.3584234,36.438964 34.232998,36.2694945 34.1104755,36.0979229 C33.9883534,35.9250501 33.8644795,35.7534785 33.7524174,35.5732482 C33.6395045,35.3936687 33.5306456,35.2111361 33.4392543,35.0158408 L33.0514164,35.2976727 C33.2088739,35.4449199 33.3488639,35.6048298 33.4847497,35.7677427 C33.6214865,35.930005 33.7464615,36.1008258 33.8731381,36.2704454 C33.9984134,36.4399149 34.1208358,36.6115866 34.2407057,36.78501 C33.8003153,36.711987 33.3461612,36.8008258 32.9724875,37.0723473 C32.1884034,37.642017 32.0155806,38.8260511 32.6364515,39.6806056 C33.7254905,41.1795546 35.2255906,40.9033283 36.2782432,40.8567818 C37.0760911,40.8214965 37.6182332,41.1755506 37.6182332,41.1755506 C37.6182332,41.1755506 37.4491141,40.5505255 37.7291942,39.8026276 C38.0987638,38.8158909 38.8249399,37.4744995 37.735951,35.9756507" id="Fill-46" fill="#48AC33"></path>
                <path d="M17.3149149,7.86848849 C16.2258759,6.36958959 14.7258258,6.64576577 13.6731231,6.69231231 C12.8752753,6.7275976 12.3331832,6.37359359 12.3331832,6.37359359 C12.3331832,6.37359359 12.5023023,6.99856857 12.2222222,7.74646647 C11.8526527,8.73325325 11.1264264,10.0745946 12.2154154,11.5734935 C12.8363363,12.4280981 14.0157658,12.6295996 14.7998999,12.0599299 C15.1735736,11.7884585 15.3984484,11.383954 15.4650651,10.9425626 C15.592993,11.1101802 15.7184184,11.2795996 15.8408909,11.4511712 C15.963013,11.624044 16.0868869,11.7956657 16.1989489,11.9758959 C16.3118619,12.1554254 16.4207207,12.338008 16.5121121,12.5332533 L16.8999499,12.2514214 C16.7424925,12.1042242 16.6025526,11.9443143 16.4666667,11.7814014 C16.3298799,11.6191391 16.2049049,11.4482683 16.0782783,11.2786987 C15.952953,11.1091792 15.8305806,10.9375576 15.7107107,10.7640841 C16.1510511,10.8371572 16.6052052,10.7482683 16.9789289,10.4767968 C17.763013,9.90707708 17.9357858,8.72309309 17.3149149,7.86848849" id="Fill-48" fill="#48AC33"></path>
                <path d="M26.3224124,39.2330581 C25.8605005,39.2330581 25.4408308,39.4281031 25.1275175,39.7460711 C25.1225125,39.5352603 25.1206607,39.3244995 25.1223624,39.1136887 C25.1252152,38.902027 25.1258659,38.6903654 25.1411311,38.4787538 C25.1552953,38.267042 25.1745646,38.0554304 25.2154054,37.8437187 L24.735976,37.8437187 C24.7768168,38.0554304 24.7960861,38.267042 24.8102503,38.4787538 C24.8255155,38.6903654 24.8261662,38.902027 24.828969,39.1136887 C24.8306707,39.3244995 24.8288188,39.5352603 24.8239139,39.7460711 C24.5105506,39.4281031 24.0908809,39.2330581 23.629019,39.2330581 C22.6597998,39.2330581 21.8240641,40.0893644 21.8240641,41.1457207 C21.8240641,42.9984234 23.19999,43.6567818 24.078969,44.2378629 C24.7451852,44.6783033 24.9757157,45.2833083 24.9757157,45.2833083 C24.9757157,45.2833083 25.2061962,44.6783033 25.8724124,44.2378629 C26.7513914,43.6567818 28.1273674,42.9984234 28.1273674,41.1457207 C28.1273674,40.0893644 27.2915816,39.2330581 26.3224124,39.2330581" id="Fill-50" fill="#48AC33"></path>
                <path d="M25.8724024,3.31124625 C25.2061862,2.87080581 24.9757057,2.2658008 24.9757057,2.2658008 C24.9757057,2.2658008 24.7451752,2.87080581 24.078959,3.31124625 C23.19998,3.89232733 21.8240541,4.55063564 21.8240541,6.40338839 C21.8240541,7.45969469 22.6597898,8.31605105 23.629009,8.31605105 C24.0908709,8.31605105 24.5105906,8.12100601 24.8239039,7.80303804 C24.8288088,8.01384885 24.8307107,8.22460961 24.829009,8.43542042 C24.8262062,8.64708208 24.8255055,8.85874374 24.8102402,9.07040541 C24.7960761,9.28206707 24.7768068,9.49367868 24.735966,9.70534034 L25.2153954,9.70534034 C25.1745546,9.49367868 25.1552853,9.28206707 25.1411712,9.07040541 C25.1258559,8.85874374 25.1252052,8.64708208 25.1224024,8.43542042 C25.1206507,8.22460961 25.1225526,8.01384885 25.1275075,7.80303804 C25.4408208,8.12100601 25.8605405,8.31605105 26.3224024,8.31605105 C27.2915716,8.31605105 28.1273574,7.45969469 28.1273574,6.40338839 C28.1273574,4.55063564 26.7513814,3.89232733 25.8724024,3.31124625" id="Fill-52" fill="#48AC33"></path>
                <path d="M16.9789139,37.0723524 C16.6052402,36.8008308 16.151036,36.711992 15.7106957,36.7850651 C15.8305656,36.6115916 15.9529379,36.4399199 16.0782633,36.2704505 C16.2049399,36.1008308 16.3299149,35.93001 16.4666517,35.7677477 C16.6024875,35.6048348 16.7424775,35.4448749 16.8999349,35.2976777 L16.5120971,35.0158458 C16.4207558,35.2110911 16.3118969,35.3936737 16.198984,35.5732533 C16.0868719,35.7534334 15.963048,35.9250551 15.8408759,36.0979279 C15.7183534,36.2694995 15.592978,36.438969 15.4650501,36.6065365 C15.3984334,36.1651451 15.1735586,35.7606907 14.7998849,35.4891692 C14.0158008,34.9194995 12.8363213,35.1210511 12.2154505,35.9756557 C11.1264114,37.4745045 11.8526376,38.8158959 12.2222072,39.8026326 C12.5022873,40.5505305 12.3331682,41.1755055 12.3331682,41.1755055 C12.3331682,41.1755055 12.8752603,40.8215015 13.6731081,40.8567868 C14.7258108,40.9033333 16.2259109,41.1795596 17.3148999,39.6806106 C17.9358208,38.8260561 17.763048,37.642022 16.9789139,37.0723524" id="Fill-54" fill="#48AC33"></path>
                <path d="M37.7291792,7.74646647 C37.4490991,6.99856857 37.6182182,6.37359359 37.6182182,6.37359359 C37.6182182,6.37359359 37.0761261,6.7275976 36.2782783,6.69231231 C35.2256256,6.64576577 33.7254755,6.36958959 32.6364865,7.86848849 C32.0155656,8.72309309 32.1883884,9.90707708 32.9724725,10.4767968 C33.3461461,10.7482683 33.8003504,10.8371572 34.2406907,10.7640841 C34.1208208,10.9375576 33.9983984,11.1091792 33.8731231,11.2786987 C33.7464464,11.4482683 33.6214715,11.6190891 33.4847347,11.7814014 C33.3488488,11.9443143 33.2089089,12.1042242 33.0514515,12.2514214 L33.4392893,12.5332533 C33.5306306,12.338008 33.6394895,12.1554254 33.7524525,11.9758959 C33.8645145,11.7956657 33.9883383,11.624044 34.1105105,11.4511712 C34.232983,11.2795996 34.3584084,11.1101802 34.4863363,10.9425626 C34.552953,11.383954 34.7778278,11.7884585 35.1515015,12.0599299 C35.9355856,12.6295996 37.115015,12.4280981 37.7359359,11.5734935 C38.824975,10.0745946 38.0987487,8.73325325 37.7291792,7.74646647" id="Fill-56" fill="#48AC33"></path>
                <path d="M11.0423373,28.4757658 C11.247993,28.4238138 11.4552503,28.3767167 11.6691642,28.3501401 L11.521016,27.8941842 C11.3323273,27.9984384 11.136982,28.0821722 10.9400851,28.1610511 C10.7434885,28.240981 10.5423874,28.307047 10.341987,28.3750651 C10.142037,28.4418318 9.94098599,28.5052452 9.73893393,28.5656557 C9.94448949,28.1694094 10.0003453,27.7099499 9.8576026,27.2707107 C9.5581031,26.3489389 8.48543043,25.8187087 7.48082583,26.1451852 C5.71876376,26.7176577 5.51786286,28.2297197 5.23683183,29.2452352 C5.02381882,30.014955 4.51966466,30.4211111 4.51966466,30.4211111 C4.51966466,30.4211111 5.16631131,30.4533934 5.79103604,30.9508909 C6.61531031,31.6072973 7.66661161,32.7124525 9.42867367,32.1399299 C10.4332783,31.8135035 10.9894344,30.7540941 10.6899349,29.8323223 C10.5471922,29.392983 10.232027,29.0541441 9.83277778,28.8543944 C10.0317267,28.7845746 10.2316266,28.7176577 10.4326276,28.6540941 C10.6347798,28.5914314 10.8363313,28.5266667 11.0423373,28.4757658" id="Fill-58" fill="#48AC33"></path>
                <path d="M44.1603654,16.5982132 C43.3360911,15.9418068 42.2847898,14.8366517 40.5227277,15.4091742 C39.5181231,15.7356006 38.961967,16.7950601 39.2614665,17.7168318 C39.4042092,18.1560711 39.7194244,18.49496 40.1186236,18.6947097 C39.9196747,18.7645796 39.7197247,18.8314965 39.5187237,18.89501 C39.3165716,18.9577227 39.1150701,19.0224875 38.9090641,19.0733884 C38.7033584,19.1252903 38.4961512,19.1723874 38.2822372,19.198964 L38.4303854,19.6549199 C38.619024,19.5506657 38.8143694,19.4669319 39.0113163,19.3880531 C39.2079129,19.3081732 39.408964,19.2421071 39.6094144,19.174039 C39.8093644,19.1072723 40.0104154,19.0438589 40.2124174,18.9834484 C40.0068619,19.3796947 39.951006,19.8391041 40.0937988,20.2783934 C40.3932482,21.2001652 41.465971,21.7303954 42.4705756,21.403969 C44.2326376,20.8314464 44.4335385,19.3194344 44.7145696,18.3038689 C44.9275826,17.5341992 45.4317367,17.127993 45.4317367,17.127993 C45.4317367,17.127993 44.7850901,17.0957107 44.1603654,16.5982132" id="Fill-60" fill="#48AC33"></path>
            </g>
            <path d="M8.43851852,70.0518118 C8.90068068,70.3885986 9.45108108,70.6594695 10.0903203,70.8648248 C10.7293093,71.0703303 11.4367167,71.1729329 12.2128428,71.1729329 C12.9772573,71.1729329 13.682012,71.0873974 14.3268068,70.9162262 C14.9714014,70.7451051 15.5306106,70.4969069 16.0042843,70.1716817 C16.4777077,69.8464064 16.8457257,69.4556156 17.1083884,68.9991091 C17.3707508,68.5428028 17.502032,68.0234334 17.502032,67.4415015 C17.502032,66.9052152 17.425005,66.4401001 17.271001,66.0464565 C17.1169469,65.6526627 16.8829129,65.3103704 16.5691491,65.0193293 C16.2551852,64.7284384 15.8644444,64.4860961 15.3966266,64.2918519 C14.9286086,64.098008 14.3808609,63.9382983 13.7533834,63.8126727 C13.1256557,63.6871471 12.6006807,63.5788388 12.1786587,63.4874474 C11.7563363,63.3962062 11.4168969,63.3021121 11.1601401,63.2049149 C10.9033834,63.1081682 10.7207508,63.0024625 10.6124424,62.8882983 C10.5038338,62.7743343 10.4498298,62.6314915 10.4498298,62.4603203 C10.4498298,62.2891491 10.4981782,62.1466567 10.5952753,62.0324424 C10.6921221,61.9184785 10.8177978,61.83004 10.9718519,61.7671772 C11.1259059,61.7045145 11.3027327,61.6588689 11.5024825,61.6301902 C11.702032,61.6018619 11.9103403,61.5873974 12.1272573,61.5873974 C12.4238539,61.5873974 12.6750551,61.618979 12.8804104,61.6815415 C13.0858659,61.7444044 13.256987,61.8184785 13.3939239,61.904014 C13.5308609,61.9896496 13.6362663,62.0725325 13.7105906,62.1522122 C13.7846647,62.2322923 13.838969,62.2891491 13.8732032,62.3234835 C13.9759059,62.4148749 14.0757057,62.4833934 14.1727528,62.5288388 C14.2695996,62.5745846 14.397978,62.5973073 14.5579379,62.5973073 L16.8002302,62.5973073 C16.8914715,62.5973073 16.9741041,62.5604204 17.0484284,62.486046 C17.1225526,62.4119219 17.1596897,62.3234835 17.1596897,62.2207307 C17.1482282,61.8556156 17.0168969,61.4734835 16.765996,61.0738839 C16.5148448,60.6745846 16.1668969,60.3094695 15.7218519,59.9783383 C15.2768068,59.6475576 14.7488789,59.3765866 14.1385185,59.1653253 C13.527958,58.9542643 12.8574374,58.8486086 12.1272573,58.8486086 C11.3853654,58.8486086 10.7150951,58.9487087 10.116046,59.1482082 C9.5168969,59.3480581 9.00608609,59.6189289 8.58401401,59.9612713 C8.16174174,60.3035636 7.83941942,60.6973574 7.6168969,61.1423023 C7.39442442,61.5873974 7.28311311,62.0554154 7.28311311,62.545956 C7.28311311,63.5275375 7.55408408,64.311972 8.09617618,64.8996096 C8.63806807,65.4873974 9.49687688,65.9067668 10.6723023,66.1576677 C11.2997798,66.2946547 11.8448749,66.4088188 12.306987,66.50001 C12.7691491,66.5915015 13.1484284,66.6856456 13.4452753,66.7824424 C13.7418719,66.8794895 13.9643944,66.9851952 14.1128428,67.0991592 C14.261041,67.2133233 14.3353654,67.3558659 14.3353654,67.527037 C14.3353654,67.8693794 14.1326627,68.1063163 13.7277077,68.2373974 C13.3225526,68.3686787 12.8175976,68.4342943 12.2128428,68.4342943 C11.8705005,68.4342943 11.5822122,68.3944044 11.3484785,68.3144244 C11.1144444,68.2347447 10.9205005,68.1406006 10.7664464,68.032042 C10.6124424,67.9236837 10.4896196,67.818028 10.3984284,67.7152753 C10.306987,67.6126727 10.2385185,67.5385485 10.1930731,67.4928028 C10.1015816,67.4131231 10.0103403,67.3532132 9.91914915,67.313023 C9.82770771,67.2732332 9.70228228,67.2531131 9.54262262,67.2531131 L7.30023023,67.2531131 C7.20878879,67.2531131 7.12610611,67.2903504 7.05203203,67.3644745 C6.97770771,67.4387487 6.94077077,67.527037 6.94077077,67.6297397 C6.95203203,68.0635736 7.08896897,68.4914515 7.35158158,68.9135736 C7.61394394,69.3358458 7.97640641,69.7153253 8.43851852,70.0518118" id="Fill-62" fill="#FFFFFF"></path>
            <path d="M30.4767668,70.8648298 C30.567958,70.7736386 30.6136537,70.6653303 30.6136537,70.5396046 L30.6136537,59.4819469 C30.6136537,59.3565215 30.567958,59.2482132 30.4767668,59.1567217 C30.3852753,59.0655305 30.276967,59.0197848 30.1515415,59.0197848 L28.165956,59.0197848 C27.9375275,59.0197848 27.7663564,59.0826476 27.6523924,59.2081732 C27.5382282,59.3338488 27.4641542,59.42499 27.4299199,59.4819469 L24.6569469,64.2234384 L21.8839239,59.4819469 C21.8497397,59.42499 21.7753654,59.3338488 21.6614515,59.2081732 C21.5472372,59.0826476 21.3760661,59.0197848 21.1478879,59.0197848 L19.1623524,59.0197848 C19.0366266,59.0197848 18.9283183,59.0655305 18.8370771,59.1567217 C18.7456356,59.2482132 18.7001902,59.3565215 18.7001902,59.4819469 L18.7001902,70.5396046 C18.7001902,70.6653303 18.7456356,70.7736386 18.8370771,70.8648298 C18.9283183,70.9563213 19.0366266,71.0017668 19.1623524,71.0017668 L21.4046947,71.0017668 C21.5301201,71.0017668 21.6384284,70.9563213 21.7299199,70.8648298 C21.8211111,70.7736386 21.8668569,70.6653303 21.8668569,70.5396046 L21.8668569,64.8738889 L23.4758659,67.6981632 C23.5328228,67.7897047 23.6098498,67.8837988 23.7069469,67.9805956 C23.8037437,68.0777427 23.937978,68.1261411 24.1091491,68.1261411 L25.2046947,68.1261411 C25.3758659,68.1261411 25.5098498,68.0777427 25.6069469,67.9805956 C25.7037437,67.8837988 25.7807708,67.7897047 25.837978,67.6981632 L27.447037,64.8738889 L27.447037,70.5396046 C27.447037,70.6653303 27.4924825,70.7736386 27.583974,70.8648298 C27.6751652,70.9563213 27.7834735,71.0017668 27.9091992,71.0017668 L30.1515415,71.0017668 C30.276967,71.0017668 30.3852753,70.9563213 30.4767668,70.8648298" id="Fill-64" fill="#FFFFFF"></path>
            <path d="M39.6514915,65.7639289 C39.63998,66.0151802 39.6285185,66.2432082 39.6172573,66.4487137 C39.56,67.0193844 39.3605005,67.4928078 39.0181582,67.8693343 C38.6758158,68.246011 38.1507908,68.4342993 37.4433834,68.4342993 C36.7357257,68.4342993 36.207998,68.246011 35.8600501,67.8693343 C35.5118519,67.4928078 35.314955,67.0193844 35.2695095,66.4487137 C35.2465365,66.2432082 35.2323724,66.0151802 35.2267167,65.7639289 C35.2208108,65.5130781 35.2181582,65.2562713 35.2181582,64.9937087 C35.2181582,64.7313463 35.2208108,64.4774925 35.2267167,64.232047 C35.2323724,63.9867518 35.2465365,63.7671321 35.2695095,63.572988 C35.2922322,63.2879029 35.3521421,63.0252402 35.4492392,62.7855506 C35.546036,62.545961 35.682973,62.3378529 35.8600501,62.1608258 C36.0368268,61.9840991 36.2564464,61.8442092 36.5190591,61.7414565 C36.7814214,61.6387037 37.0895295,61.5874024 37.4433834,61.5874024 C37.796987,61.5874024 38.1050951,61.6387037 38.3677077,61.7414565 C38.6300701,61.8442092 38.8496396,61.9840991 39.0267167,62.1608258 C39.2034935,62.3378529 39.3404304,62.545961 39.4375275,62.7855506 C39.5343744,63.0252402 39.5942342,63.2879029 39.6172573,63.572988 C39.6285185,63.7671321 39.63998,63.9867518 39.6514915,64.232047 C39.6627027,64.4774925 39.6686086,64.7313463 39.6686086,64.9937087 C39.6686086,65.2562713 39.6627027,65.5130781 39.6514915,65.7639289 M42.7839239,63.4874525 C42.7496897,62.8484134 42.6097998,62.2464615 42.3645546,61.6815465 C42.119009,61.1166817 41.7710611,60.6261912 41.3204104,60.2094244 C40.8694595,59.793008 40.3190591,59.4622272 39.6686086,59.2166817 C39.0181582,58.9713864 38.2762162,58.8486136 37.4433834,58.8486136 C36.5987387,58.8486136 35.8541441,58.9713864 35.2095996,59.2166817 C34.5647548,59.4622272 34.017007,59.793008 33.5663564,60.2094244 C33.1154555,60.6261912 32.7675075,61.1166817 32.5222122,61.6815465 C32.2766667,62.2464615 32.1370771,62.8484134 32.1028428,63.4874525 C32.0798198,63.9781431 32.0686086,64.4916567 32.0686086,65.0279429 C32.0686086,65.5644294 32.0798198,66.0664815 32.1028428,66.5342492 C32.1370771,67.1734384 32.2766667,67.7752402 32.5222122,68.3401552 C32.7675075,68.90497 33.1154555,69.3987137 33.5663564,69.8207357 C34.017007,70.243008 34.5647548,70.5739389 35.2095996,70.8135285 C35.8541441,71.0532182 36.5987387,71.1729379 37.4433834,71.1729379 C38.2762162,71.1729379 39.0181582,71.0532182 39.6686086,70.8135285 C40.3190591,70.5739389 40.8694595,70.243008 41.3204104,69.8207357 C41.7710611,69.3987137 42.119009,68.90497 42.3645546,68.3401552 C42.6097998,67.7752402 42.7496897,67.1734384 42.7839239,66.5342492 C42.8066967,66.0664815 42.8181582,65.5644294 42.8181582,65.0279429 C42.8181582,64.4916567 42.8066967,63.9781431 42.7839239,63.4874525" id="Fill-66" fill="#FFFFFF"></path>
            <path d="M7.63038539,57.1222773 L12.9174224,57.1222773 C12.9852402,57.1222773 13.0438488,57.0977528 13.0933483,57.0482032 C13.1426977,56.9989039 13.1674224,56.9402452 13.1674224,56.8723273 L13.1674224,55.4741291 C13.1674224,55.4063113 13.1426977,55.3477528 13.0933483,55.2982032 C13.0438488,55.2489039 12.9852402,55.2241792 12.9174224,55.2241792 L10.472978,55.2241792 L12.9266817,52.5112162 C13.0068118,52.4310861 13.0470521,52.3291842 13.0470521,52.2056607 L13.0470521,50.8908458 C13.0470521,50.823028 13.0222773,50.7643694 12.972978,50.7148699 C12.9234785,50.6655205 12.8648699,50.6407958 12.797002,50.6407958 L7.72297798,50.6407958 C7.65495996,50.6407958 7.59635135,50.6655205 7.54705205,50.7148699 C7.49755255,50.7643694 7.47292793,50.823028 7.47292793,50.8908458 L7.47292793,52.2704755 C7.47292793,52.3384935 7.49755255,52.3970521 7.54705205,52.4464014 C7.59635135,52.4958509 7.65495996,52.5204254 7.72297798,52.5204254 L10.1118669,52.5204254 L7.51927427,55.2149199 C7.4944995,55.2396446 7.46517017,55.2782332 7.43128629,55.3306356 C7.3973023,55.3831381 7.38038539,55.4526577 7.38038539,55.5389439 L7.38038539,56.8723273 C7.38038539,56.9402452 7.40495996,56.9989039 7.45445946,57.0482032 C7.50380881,57.0977528 7.56236737,57.1222773 7.63038539,57.1222773" id="Fill-68" fill="#FFFFFF"></path>
            <path d="M16.296962,54.6223173 L17.1580731,54.6223173 C17.300015,54.6223173 17.4064715,54.6702152 17.4775425,54.7658108 C17.5484134,54.8616066 17.583999,54.9648599 17.583999,55.075971 C17.583999,55.1810761 17.5515666,55.2829279 17.4867518,55.3815766 C17.421987,55.4804254 17.3123273,55.5296747 17.1580731,55.5296747 L16.296962,55.5296747 L16.296962,54.6223173 Z M16.296962,52.2334284 L17.0747397,52.2334284 C17.2104755,52.2334284 17.3076727,52.2797247 17.3664314,52.3723173 C17.42499,52.4649099 17.4543694,52.5607057 17.4543694,52.6593043 C17.4543694,52.7581532 17.42499,52.8523974 17.3664314,52.9417367 C17.3076727,53.0312763 17.2104755,53.076021 17.0747397,53.076021 L16.296962,53.076021 L16.296962,52.2334284 Z M14.2321471,57.1222673 L17.3988138,57.1222673 C18.2444595,57.1222673 18.891006,56.9572523 19.3386036,56.626972 C19.7861011,56.2967417 20.009975,55.7828278 20.009975,55.0852803 C20.009975,54.931026 19.9868018,54.7842793 19.9405055,54.6454905 C19.8942092,54.5065516 19.8307958,54.3785235 19.7506657,54.2612062 C19.6703854,54.143989 19.5761912,54.0405856 19.4682833,53.951046 C19.3601752,53.8616066 19.2475125,53.7921872 19.1302953,53.7426376 C19.2043694,53.7057007 19.2844995,53.6516967 19.371036,53.5806757 C19.4574224,53.5097548 19.5377027,53.4263714 19.6117768,53.3305756 C19.6858509,53.23498 19.7474625,53.1238689 19.796962,52.9972422 C19.8463113,52.8708659 19.871036,52.7334284 19.871036,52.5852302 C19.871036,51.9310761 19.6657808,51.4433383 19.2552703,51.1223173 C18.8447097,50.8013964 18.1951101,50.6407858 17.3062212,50.6407858 L14.2321471,50.6407858 C14.1641792,50.6407858 14.1055706,50.6655105 14.0562212,50.7149099 C14.0067718,50.7643594 13.9821471,50.823018 13.9821471,50.8908358 L13.9821471,56.8723173 C13.9821471,56.9402853 14.0067718,56.9988939 14.0562212,57.0481932 C14.1055706,57.0977427 14.1641792,57.1222673 14.2321471,57.1222673 L14.2321471,57.1222673 Z" id="Fill-70" fill="#FFFFFF"></path>
            <path d="M23.0932082,52.363028 L23.7691341,52.363028 C23.9233884,52.363028 24.032998,52.4171822 24.0978629,52.5250901 C24.1626777,52.6330981 24.1950601,52.7488639 24.1950601,52.8723373 C24.1950601,52.9959109 24.1594745,53.1053704 24.0886036,53.200966 C24.0175826,53.2967618 23.9110761,53.3444595 23.7691341,53.3444595 L23.0932082,53.3444595 L23.0932082,52.363028 Z M21.0283934,57.1222873 L22.8432082,57.1222873 C22.9110761,57.1222873 22.9696346,57.0977628 23.0191842,57.0481632 C23.0684835,56.9989139 23.0932082,56.9402553 23.0932082,56.8723373 L23.0932082,55.1037688 L23.4728378,55.1037688 L24.2691341,56.8723373 C24.2876527,56.9155305 24.3277427,56.9681331 24.3895045,57.0296947 C24.4511662,57.0915065 24.5437087,57.1222873 24.6672823,57.1222873 L26.5654304,57.1222873 C26.620986,57.1222873 26.6687337,57.1023173 26.708974,57.0621772 C26.749014,57.0220871 26.7691341,56.9741892 26.7691341,56.9185836 C26.7691341,56.8877528 26.7598749,56.8537688 26.7413564,56.8166817 L25.6024675,54.7056206 C25.8987638,54.5204354 26.1395045,54.2766416 26.3246897,53.9740891 C26.5098749,53.6717367 26.6024675,53.3106757 26.6024675,52.8908058 C26.6024675,52.539004 26.5376527,52.2241391 26.408023,51.9464114 C26.2783934,51.6685836 26.0932082,51.4324975 25.8524675,51.2380531 C25.6117267,51.0436587 25.3154304,50.8954605 24.9635786,50.7936086 C24.6117267,50.6917067 24.2135786,50.6408058 23.7691341,50.6408058 L21.0283934,50.6408058 C20.9604254,50.6408058 20.9018168,50.6655305 20.8524675,50.7148799 C20.803018,50.7643794 20.7783934,50.822988 20.7783934,50.8908559 L20.7783934,56.8723373 C20.7783934,56.9402553 20.803018,56.9989139 20.8524675,57.0481632 C20.9018168,57.0977628 20.9604254,57.1222873 21.0283934,57.1222873 L21.0283934,57.1222873 Z" id="Fill-72" fill="#FFFFFF"></path>
            <path d="M30.4449449,52.7518919 L30.9727227,54.4741141 L29.9264264,54.4741141 L30.4449449,52.7518919 Z M27.1579079,57.1222623 L28.8708709,57.1222623 C28.9942943,57.1222623 29.0806306,57.0960861 29.1300801,57.0435836 C29.1794294,56.9911812 29.2134635,56.9402803 29.231982,56.8907808 L29.4542042,56.2797197 L31.4448949,56.2797197 L31.6671672,56.8907808 C31.6856857,56.9402803 31.7195195,56.9911812 31.769019,57.0435836 C31.8183183,57.0960861 31.9047047,57.1222623 32.0282783,57.1222623 L33.7411912,57.1222623 C33.7967968,57.1222623 33.8445445,57.1023423 33.8847347,57.0621522 C33.9248248,57.0220621 33.9449449,56.9741642 33.9449449,56.9185586 C33.9449449,56.894034 33.9417417,56.8723123 33.9356857,56.8537437 L31.8708709,50.9463864 C31.8523524,50.8785185 31.8090591,50.8107007 31.7411912,50.7426326 C31.6732232,50.6748148 31.5775776,50.6407808 31.4542042,50.6407808 L29.4449449,50.6407808 C29.3213714,50.6407808 29.2257758,50.6748148 29.1579079,50.7426326 C29.0898899,50.8107007 29.0467467,50.8785185 29.0282282,50.9463864 L26.9634134,56.8537437 C26.9572072,56.8723123 26.9542042,56.894034 26.9542042,56.9185586 C26.9542042,56.9741642 26.9741241,57.0220621 27.0143644,57.0621522 C27.0544545,57.1023423 27.1023524,57.1222623 27.1579079,57.1222623 L27.1579079,57.1222623 Z" id="Fill-74" fill="#FFFFFF"></path>
            <path d="M34.7040891,57.1222773 L39.3707558,57.1222773 C39.4386236,57.1222773 39.4972322,57.0977528 39.5466817,57.0482032 C39.596031,56.9989039 39.6207558,56.9402452 39.6207558,56.8723273 L39.6207558,55.4741291 C39.6207558,55.4063113 39.596031,55.3477528 39.5466817,55.2982032 C39.4972322,55.2489039 39.4386236,55.2241792 39.3707558,55.2241792 L36.8059409,55.2241792 L36.8059409,50.8908458 C36.8059409,50.823028 36.7812162,50.7643694 36.7318669,50.7148699 C36.6823674,50.6655205 36.6237588,50.6407958 36.5559409,50.6407958 L34.7040891,50.6407958 C34.6361211,50.6407958 34.5775125,50.6655205 34.5281632,50.7148699 C34.4787137,50.7643694 34.4540891,50.823028 34.4540891,50.8908458 L34.4540891,56.8723273 C34.4540891,56.9402452 34.4787137,56.9989039 34.5281632,57.0482032 C34.5775125,57.0977528 34.6361211,57.1222773 34.7040891,57.1222773" id="Fill-76" fill="#FFFFFF"></path>
            <path d="M40.5003153,57.1222773 L42.3892042,57.1222773 C42.4570721,57.1222773 42.5156807,57.0977528 42.5651301,57.0482032 C42.6144294,56.9989039 42.6392042,56.9402452 42.6392042,56.8723273 L42.6392042,50.8908458 C42.6392042,50.823028 42.6144294,50.7643694 42.5651301,50.7148699 C42.5156807,50.6655205 42.4570721,50.6407958 42.3892042,50.6407958 L40.5003153,50.6407958 C40.4323473,50.6407958 40.3737387,50.6655205 40.3243894,50.7148699 C40.2748899,50.7643694 40.2503153,50.823028 40.2503153,50.8908458 L40.2503153,56.8723273 C40.2503153,56.9402452 40.2748899,56.9989039 40.3243894,57.0482032 C40.3737387,57.0977528 40.4323473,57.1222773 40.5003153,57.1222773" id="Fill-78" fill="#FFFFFF"></path>
            <path d="M10.7116867,75.5687538 C10.6190941,75.645981 10.5232983,75.6845195 10.4246496,75.6845195 L9.7765015,75.6845195 L9.7765015,74.6566917 L10.4246496,74.6566917 C10.5913163,74.6566917 10.7038789,74.7154505 10.7626376,74.8325676 C10.8211962,74.949985 10.8505756,75.0672523 10.8505756,75.1844695 C10.8505756,75.3635485 10.8042793,75.4916266 10.7116867,75.5687538 M12.4940691,73.4946296 C12.2501752,73.3064414 11.9570821,73.165951 11.6144895,73.0734084 C11.2718468,72.9807157 10.8906657,72.9344695 10.4709459,72.9344695 L7.66539039,72.9344695 C7.59737237,72.9344695 7.53876376,72.9591942 7.48946446,73.0085936 C7.44001502,73.058043 7.41539039,73.1166016 7.41539039,73.1844194 L7.41539039,79.1659009 C7.41539039,79.2339189 7.44001502,79.2924775 7.48946446,79.3418769 C7.53876376,79.3913263 7.59737237,79.415951 7.66539039,79.415951 L9.5727978,79.415951 C9.64066567,79.415951 9.69922422,79.3913263 9.74872372,79.3418769 C9.79807307,79.2924775 9.8227978,79.2339189 9.8227978,79.1659009 L9.8227978,77.3974324 L10.4709459,77.3974324 C10.8906657,77.3974324 11.2718468,77.3557908 11.6144895,77.2724074 C11.9570821,77.1891241 12.2501752,77.058043 12.4940691,76.8788639 C12.7378629,76.699985 12.9261011,76.4715065 13.0588839,76.1936787 C13.1915666,75.915951 13.257983,75.5857708 13.257983,75.2029379 C13.257983,74.8203554 13.1915666,74.487022 13.0588839,74.2029379 C12.9261011,73.9191542 12.7378629,73.682968 12.4940691,73.4946296" id="Fill-80" fill="#FFFFFF"></path>
            <g id="Group-84" transform="translate(13.963964, 72.801802)">
                <mask id="mask-4" fill="white">
                    <use xlink:href="#path-3"></use>
                </mask>
                <g id="Clip-83"></g>
                <path d="M3.82169169,4.15114615 C3.80922923,4.41040541 3.74296296,4.60024525 3.62259259,4.72066567 C3.50222222,4.84098599 3.34021021,4.9011962 3.13650651,4.9011962 C2.9328028,4.9011962 2.77074074,4.84098599 2.65042042,4.72066567 C2.53,4.60024525 2.46358358,4.41040541 2.45132132,4.15114615 C2.4328028,3.62662162 2.4328028,3.108003 2.45132132,2.59559059 C2.46358358,2.33633133 2.53145145,2.14649149 2.65497497,2.02617117 C2.7783984,1.90585085 2.93885886,1.84564064 3.13650651,1.84564064 C3.334004,1.84564064 3.49441441,1.90585085 3.61798799,2.02617117 C3.74141141,2.14649149 3.80922923,2.33633133 3.82169169,2.59559059 C3.84021021,3.108003 3.84021021,3.62662162 3.82169169,4.15114615 M5.96983984,1.49378879 C5.81543544,1.17892392 5.60407407,0.913608609 5.33555556,0.697492492 C5.06703704,0.481476476 4.74601602,0.317812813 4.37259259,0.206751752 C3.99906907,0.0956406406 3.58705706,0.0400850851 3.13650651,0.0400850851 C2.6795996,0.0400850851 2.26613614,0.0956406406 1.89576577,0.206751752 C1.5253954,0.317812813 1.20592593,0.481476476 0.937407407,0.697492492 C0.668888889,0.913608609 0.457377377,1.17892392 0.303173173,1.49378879 C0.148768769,1.80855355 0.0624324324,2.16966466 0.0439139139,2.57712212 C0.0314514515,2.84258759 0.0253953954,3.11731231 0.0253953954,3.4011962 C0.0253953954,3.68513013 0.0314514515,3.9536987 0.0439139139,4.20675175 C0.0624324324,4.62036537 0.148768769,4.98302803 0.303173173,5.29468969 C0.457377377,5.6065015 0.668888889,5.86731231 0.937407407,6.07707207 C1.20592593,6.28698198 1.5253954,6.44443944 1.89576577,6.54934434 C2.26613614,6.65424925 2.6795996,6.70675175 3.13650651,6.70675175 C3.58705706,6.70675175 3.99906907,6.65424925 4.37259259,6.54934434 C4.74601602,6.44443944 5.06703704,6.28698198 5.33555556,6.07707207 C5.60407407,5.86731231 5.81543544,5.6065015 5.96983984,5.29468969 C6.12404404,4.98302803 6.21053053,4.62036537 6.2290991,4.20675175 C6.24141141,3.9536987 6.24761762,3.68513013 6.24761762,3.4011962 C6.24761762,3.11731231 6.24141141,2.84258759 6.2290991,2.57712212 C6.21053053,2.16966466 6.12404404,1.80855355 5.96983984,1.49378879" id="Fill-82" fill="#FFFFFF" mask="url(#mask-4)"></path>
            </g>
            <g id="Group-87" transform="translate(21.071071, 72.801802)">
                <mask id="mask-6" fill="white">
                    <use xlink:href="#path-5"></use>
                </mask>
                <g id="Clip-86"></g>
                <path d="M3.15891892,1.84562062 C3.27003003,1.84562062 3.36407407,1.85948448 3.44135135,1.88726226 C3.51842843,1.91504004 3.58324324,1.94902402 3.63574575,1.98911411 C3.68814815,2.0294044 3.72833834,2.06949449 3.75616617,2.10943443 C3.78389389,2.14972472 3.80706707,2.18210711 3.82558559,2.20673173 C3.88114114,2.27474975 3.97053053,2.30858358 4.0941041,2.30858358 L6.1404004,2.30858358 C6.19595596,2.30858358 6.2437037,2.28866366 6.28394394,2.24837337 C6.32398398,2.20828328 6.3441041,2.16038539 6.3441041,2.10487988 C6.3378979,1.82715215 6.25916917,1.56318819 6.10796797,1.31323824 C5.95661662,1.06318819 5.74530531,0.844119119 5.47373373,0.655780781 C5.20201201,0.467592593 4.87028028,0.317842843 4.47833834,0.206781782 C4.0862963,0.0956206206 3.64645646,0.0401151151 3.15891892,0.0401151151 C2.70201201,0.0401151151 2.28534535,0.091016016 1.90891892,0.192817818 C1.53229229,0.29466967 1.20821822,0.447422422 0.936696697,0.651176176 C0.664974975,0.85487988 0.452012012,1.11108609 0.297807808,1.41969469 C0.143403403,1.7284034 0.0570670671,2.08641141 0.0385485485,2.49371872 C0.0260860861,2.75923423 0.02003003,3.04006507 0.02003003,3.33636136 C0.02003003,3.63265766 0.0260860861,3.90733233 0.0385485485,4.16043544 C0.0570670671,4.59261762 0.141851852,4.96759259 0.293153153,5.28541041 C0.444354354,5.60337838 0.654264264,5.86734234 0.922782783,6.0771021 C1.1913013,6.28696196 1.51382382,6.44446947 1.8904004,6.54932432 C2.26682683,6.65422923 2.6896997,6.70673173 3.15891892,6.70673173 C3.62793794,6.70673173 4.05706707,6.65257758 4.44595596,6.54466967 C4.83484484,6.43671171 5.16962963,6.27474975 5.45056056,6.05863363 C5.73139139,5.84256757 5.95056056,5.5771021 6.10796797,5.26233734 C6.26537538,4.94747247 6.3441041,4.58030531 6.3441041,4.16043544 L6.3441041,2.95668168 C6.3441041,2.88886386 6.31937938,2.83030531 6.27003003,2.78085586 C6.22053053,2.73145646 6.16192192,2.70673173 6.0941041,2.70673173 L3.54780781,2.70673173 C3.47978979,2.70673173 3.42118118,2.73145646 3.37188188,2.78085586 C3.32238238,2.83030531 3.29780781,2.88886386 3.29780781,2.95668168 L3.29780781,3.98445946 C3.29780781,4.05252753 3.32238238,4.11108609 3.37188188,4.16043544 C3.42118118,4.20988488 3.47978979,4.23450951 3.54780781,4.23450951 L3.98299299,4.23450951 C3.98299299,4.4752002 3.91037037,4.64657157 3.76537538,4.74842342 C3.62028028,4.85027528 3.43049049,4.90122623 3.19595596,4.90122623 C2.96752753,4.90122623 2.78854855,4.83951451 2.65891892,4.71599099 C2.52928929,4.59261762 2.45821822,4.39191692 2.44595596,4.11408909 C2.42743744,3.57715215 2.42743744,3.05247748 2.44595596,2.54006507 C2.46447447,2.0771021 2.70201201,1.84562062 3.15891892,1.84562062" id="Fill-85" fill="#FFFFFF" mask="url(#mask-6)"></path>
            </g>
            <g id="Group-90" transform="translate(28.378378, 72.901902)">
                <mask id="mask-8" fill="white">
                    <use xlink:href="#path-7"></use>
                </mask>
                <g id="Clip-89"></g>
                <path d="M5.79595596,0.0325775776 L3.98114114,0.0325775776 C3.91312312,0.0325775776 3.85451451,0.0573023023 3.80521522,0.106651652 C3.75576577,0.156151151 3.73114114,0.21470971 3.73114114,0.282527528 L3.73114114,4.03257758 C3.73114114,4.50795295 3.50271271,4.74549049 3.04595596,4.74549049 C2.58904905,4.74549049 2.36077077,4.50795295 2.36077077,4.03257758 L2.36077077,0.282527528 C2.36077077,0.21470971 2.33604605,0.156151151 2.2866967,0.106651652 C2.2371972,0.0573023023 2.17863864,0.0325775776 2.11077077,0.0325775776 L0.295955956,0.0325775776 C0.227937938,0.0325775776 0.169379379,0.0573023023 0.12003003,0.106651652 C0.0705305305,0.156151151 0.045955956,0.21470971 0.045955956,0.282527528 L0.045955956,4.06961461 C0.045955956,4.50795295 0.12003003,4.88598098 0.268178178,5.20384885 C0.416326326,5.52186687 0.621481481,5.78568068 0.883943944,5.99549049 C1.14620621,6.20545045 1.46262262,6.3598048 1.83299299,6.45845345 C2.20336336,6.55715215 2.61077077,6.60665165 3.05521522,6.60665165 C3.49345345,6.60665165 3.89620621,6.55715215 4.26352352,6.45845345 C4.63074074,6.3598048 4.94555556,6.20545045 5.20796797,5.99549049 C5.47028028,5.78568068 5.67558559,5.52186687 5.82373373,5.20384885 C5.97188188,4.88598098 6.04595596,4.50795295 6.04595596,4.06961461 L6.04595596,0.282527528 C6.04595596,0.21470971 6.02118118,0.156151151 5.97188188,0.106651652 C5.92238238,0.0573023023 5.86382382,0.0325775776 5.79595596,0.0325775776" id="Fill-88" fill="#FFFFFF" mask="url(#mask-8)"></path>
            </g>
            <path d="M42.2760661,72.9344795 L40.8131532,72.9344795 C40.6895796,72.9344795 40.596987,72.9685135 40.5353253,73.0363313 C40.4735636,73.1042993 40.4335235,73.1536486 40.414955,73.1844294 L39.0723624,75.4067017 L37.7297698,73.1844294 C37.7112513,73.1536486 37.6710611,73.1042993 37.6093994,73.0363313 C37.5476376,72.9685135 37.455045,72.9344795 37.3316216,72.9344795 L35.8686587,72.9344795 C35.8006907,72.9344795 35.7420821,72.9592042 35.6927327,73.0085536 C35.6432833,73.0580531 35.6186587,73.1166116 35.6186587,73.1844294 L35.6186587,79.1659109 C35.6186587,79.2339289 35.6432833,79.2924875 35.6927327,79.3418869 C35.7420821,79.3913363 35.8006907,79.415961 35.8686587,79.415961 L37.5445846,79.415961 C37.6124525,79.415961 37.6710611,79.3913363 37.7205105,79.3418869 C37.7698599,79.2924875 37.7945846,79.2339289 37.7945846,79.1659109 L37.7945846,76.6288739 L38.4056957,77.6289239 C38.4365265,77.6783734 38.4781682,77.7293243 38.5307207,77.7817267 C38.5830731,77.8341792 38.6556957,77.8604054 38.7483383,77.8604054 L39.3964364,77.8604054 C39.489029,77.8604054 39.5615516,77.8341792 39.614004,77.7817267 C39.6664064,77.7293243 39.708048,77.6783734 39.7390791,77.6289239 L40.3501902,76.6288739 L40.3501902,79.1659109 C40.3501902,79.2339289 40.3747648,79.2924875 40.4242142,79.3418869 C40.4735636,79.3913363 40.5321722,79.415961 40.6001902,79.415961 L42.2760661,79.415961 C42.3439339,79.415961 42.4024925,79.3913363 42.452042,79.3418869 C42.5013413,79.2924875 42.5260661,79.2339289 42.5260661,79.1659109 L42.5260661,73.1844294 C42.5260661,73.1166116 42.5013413,73.0580531 42.452042,73.0085536 C42.4024925,72.9592042 42.3439339,72.9344795 42.2760661,72.9344795" id="Fill-91" fill="#FFFFFF"></path>
        </g>
    </g>
</svg>