<?xml version="1.0" encoding="UTF-8" standalone="no"?>
<svg
   xmlns:dc="http://purl.org/dc/elements/1.1/"
   xmlns:cc="http://creativecommons.org/ns#"
   xmlns:rdf="http://www.w3.org/1999/02/22-rdf-syntax-ns#"
   xmlns:svg="http://www.w3.org/2000/svg"
   xmlns="http://www.w3.org/2000/svg"
   xmlns:sodipodi="http://sodipodi.sourceforge.net/DTD/sodipodi-0.dtd"
   xmlns:inkscape="http://www.inkscape.org/namespaces/inkscape"
   width="262"
   height="428"
   viewBox="0 0 262 428"
   version="1.1"
   id="svg50"
   sodipodi:docname="logo_velik_prazniki.svg"
   inkscape:version="0.92.4 (5da689c313, 2019-01-14)"
   inkscape:export-filename="C:\GITHUB\plebiscit\img\logo_velik_prazniki.png"
   inkscape:export-xdpi="225.07526"
   inkscape:export-ydpi="225.07526">
  <metadata
     id="metadata56">
    <rdf:RDF>
      <cc:Work
         rdf:about="">
        <dc:format>image/svg+xml</dc:format>
        <dc:type
           rdf:resource="http://purl.org/dc/dcmitype/StillImage" />
        <dc:title>logo_velik</dc:title>
      </cc:Work>
    </rdf:RDF>
  </metadata>
  <defs
     id="defs54" />
  <sodipodi:namedview
     pagecolor="#ffffff"
     bordercolor="#666666"
     borderopacity="1"
     objecttolerance="10"
     gridtolerance="10"
     guidetolerance="10"
     inkscape:pageopacity="0"
     inkscape:pageshadow="2"
     inkscape:window-width="1920"
     inkscape:window-height="1001"
     id="namedview52"
     showgrid="false"
     showguides="true"
     inkscape:guide-bbox="true"
     inkscape:zoom="0.57"
     inkscape:cx="-212.40801"
     inkscape:cy="419.61608"
     inkscape:window-x="-9"
     inkscape:window-y="-9"
     inkscape:window-maximized="1"
     inkscape:current-layer="PODOBA-1" />
  <title
     id="title2">logo_velik</title>
  <g
     id="PODOBA-1"
     style="fill:none;fill-rule:evenodd;stroke:none;stroke-width:1"
     transform="translate(0,11)">
    <g
       id="g885">
      <path
         d="m 213.46936,229.68831 c 1.10912,0.08 2.21824,0.0837 3.32735,0.0983 1.10439,0.009 2.20905,-7.9e-4 3.31371,-0.027 -1.66617,-1.64178 -2.68821,-3.84086 -2.68821,-6.26103 0,-5.07875 4.48734,-9.45804 10.02242,-9.45804 9.7085,0 13.15806,7.20991 16.20268,11.81579 2.30793,3.491 5.47844,4.69899 5.47844,4.69899 0,0 -3.17051,1.20772 -5.47844,4.69872 -3.04462,4.60588 -6.49418,11.81605 -16.20268,11.81605 -5.53508,0 -10.02242,-4.37929 -10.02242,-9.45803 0,-2.42044 1.02231,-4.61952 2.68821,-6.2613 -1.10466,-0.026 -2.20932,-0.0357 -3.31371,-0.0268 -1.10912,0.0147 -2.21823,0.0184 -3.32735,0.0981 -1.10911,0.0742 -2.21823,0.17519 -3.32734,0.3892 v -2.51223 c 1.10911,0.21401 2.21823,0.31498 3.32734,0.3892"
         id="Fill-3"
         inkscape:connector-curvature="0"
         style="fill:#3cb200" />
      <path
         d="m 26.41384,225.85642 c 3.04489,-4.60588 6.49445,-11.81579 16.20295,-11.81579 5.53508,0 10.02216,4.37929 10.02216,9.45778 0,2.42043 -1.02178,4.61952 -2.68795,6.26129 1.1044,0.0262 2.20905,0.0359 3.31371,0.0268 1.10885,-0.0144 2.21823,-0.0181 3.32708,-0.0981 1.10938,-0.0742 2.21823,-0.17519 3.32735,-0.3892 v 2.51223 c -1.10912,-0.21401 -2.21797,-0.31498 -3.32735,-0.3892 -1.10885,-0.08 -2.21823,-0.0834 -3.32708,-0.0981 -1.10466,-0.009 -2.20931,7.8e-4 -3.31371,0.0267 1.66617,1.64177 2.68795,3.84085 2.68795,6.26129 0,5.07848 -4.48708,9.45777 -10.02216,9.45777 -9.7085,0 -13.15806,-7.2099 -16.20295,-11.81579 -2.30792,-3.49099 -5.47843,-4.69872 -5.47843,-4.69872 0,0 3.17051,-1.20799 5.47843,-4.69899"
         id="Fill-21"
         inkscape:connector-curvature="0"
         style="fill:#429b44" />
      <path
         d="m 44.389912,366.89761 c 2.421747,1.76477 5.305866,3.18441 8.655766,4.26048 3.348065,1.07659 7.054906,1.6145 11.121836,1.6145 4.00556,0 7.698502,-0.44848 11.077251,-1.34542 3.3777,-0.89668 6.307977,-2.19725 8.790045,-3.90144 2.480757,-1.70445 4.409185,-3.75195 5.785547,-6.14406 1.374789,-2.39106 2.06297,-5.11258 2.06297,-8.16219 0,-2.81016 -0.403624,-5.24712 -1.210873,-7.31009 -0.807249,-2.06323 -2.033597,-3.85685 -3.67773,-5.38192 -1.645183,-1.52454 -3.69268,-2.79442 -6.144063,-3.81201 -2.452432,-1.01601 -5.322651,-1.85263 -8.610656,-2.51118 -3.289317,-0.65749 -6.040206,-1.22503 -8.251617,-1.70419 -2.212985,-0.47811 -3.991398,-0.97116 -5.336813,-1.48022 -1.345678,-0.50722 -2.30268,-1.06086 -2.870219,-1.65934 -0.569113,-0.59692 -0.852097,-1.34542 -0.852097,-2.24236 0,-0.89695 0.253348,-1.64361 0.762402,-2.24236 0.507219,-0.59691 1.165764,-1.0606 1.973013,-1.39 0.80725,-0.32809 1.733829,-0.56754 2.780787,-0.71782 1.045385,-0.14844 2.136929,-0.22397 3.273581,-0.22397 1.55444,0 2.870482,0.16522 3.946551,0.49332 1.076595,0.3294 1.973276,0.71729 2.691093,1.16576 0.717292,0.44847 1.269621,0.88304 1.659345,1.30057 0.387889,0.41936 0.672445,0.71755 0.851834,0.8972 0.538428,0.47916 1.061121,0.83794 1.569651,1.07607 0.507481,0.23971 1.180189,0.35904 2.018385,0.35904 h 11.749696 c 0.478108,0 0.911106,-0.19355 1.300568,-0.58301 0.388413,-0.38841 0.583013,-0.8521 0.583013,-1.39052 -0.06006,-1.91296 -0.748239,-3.91561 -2.062707,-6.00952 -1.316304,-2.09208 -3.139564,-4.0053 -5.471617,-5.74044 -2.331791,-1.73357 -5.098415,-3.1532 -8.296464,-4.26048 -3.199623,-1.10571 -6.713176,-1.65935 -10.539348,-1.65935 -3.887541,0 -7.399783,0.52427 -10.538822,1.56992 -3.139302,1.04695 -5.816232,2.46659 -8.027906,4.26048 -2.212723,1.79362 -3.901704,3.85685 -5.06773,6.18864 -1.165764,2.33232 -1.74904,4.78475 -1.74904,7.35494 0,5.14352 1.419898,9.25399 4.260482,12.33323 2.839533,3.0803 7.339724,5.27781 13.49926,6.59227 3.287743,0.71782 6.144062,1.31605 8.565547,1.79389 2.421747,0.47942 4.409185,0.97274 5.964674,1.48022 1.554439,0.50853 2.720203,1.06217 3.498079,1.65935 0.776564,0.59822 1.166026,1.34541 1.166026,2.24235 0,1.79389 -1.06217,3.03545 -3.183886,3.72206 -2.123291,0.68818 -4.769274,1.03175 -7.938212,1.03175 -1.793887,0 -3.304528,-0.20903 -4.529302,-0.62813 -1.226347,-0.41752 -2.242358,-0.91084 -3.049607,-1.47969 -0.807249,-0.5678 -1.450846,-1.12144 -1.928691,-1.65961 -0.479157,-0.5379 -0.837934,-0.92632 -1.07607,-1.16603 -0.479419,-0.41752 -0.957526,-0.73145 -1.435371,-0.94179 -0.479157,-0.20876 -1.136391,-0.31393 -1.973014,-0.31393 H 38.425501 c -0.479419,0 -0.912679,0.19486 -1.300568,0.58328 -0.389725,0.38946 -0.583276,0.85209 -0.583276,1.39 0.05901,2.2733 0.776565,4.51566 2.152665,6.72734 1.374788,2.21272 3.274105,4.20147 5.69559,5.96441"
         id="Fill-61"
         inkscape:connector-curvature="0"
         style="fill:#000000" />
      <path
         d="m 159.87116,371.15811 c 0.47785,-0.47784 0.7173,-1.04538 0.7173,-1.70419 v -57.94254 c 0,-0.65723 -0.23945,-1.22504 -0.7173,-1.70419 -0.47941,-0.47785 -1.04695,-0.71756 -1.70419,-0.71756 h -10.40454 c -1.19671,0 -2.09366,0.3294 -2.69109,0.9869 -0.59823,0.65855 -0.98638,1.13639 -1.16577,1.43485 l -14.53048,24.84559 -14.53075,-24.84559 c -0.17912,-0.29846 -0.56885,-0.7763 -1.16576,-1.43485 -0.59849,-0.6575 -1.49543,-0.9869 -2.69109,-0.9869 h -10.40428 c -0.658811,0 -1.226351,0.23971 -1.704458,0.71756 -0.479157,0.47915 -0.717293,1.04696 -0.717293,1.70419 v 57.94254 c 0,0.65881 0.238136,1.22635 0.717293,1.70419 0.478107,0.47942 1.045647,0.71756 1.704458,0.71756 h 11.74995 c 0.65724,0 1.22478,-0.23814 1.7042,-0.71756 0.47784,-0.47784 0.71755,-1.04538 0.71755,-1.70419 v -29.68856 l 8.43127,14.7993 c 0.29846,0.47942 0.70208,0.97248 1.21087,1.47996 0.50722,0.50879 1.21061,0.7624 2.10756,0.7624 h 5.7407 c 0.89694,0 1.59902,-0.25361 2.10781,-0.7624 0.50722,-0.50748 0.91085,-1.00054 1.21062,-1.47996 l 8.43153,-14.7993 v 29.68856 c 0,0.65881 0.23813,1.22635 0.71755,1.70419 0.47785,0.47942 1.04539,0.71756 1.70419,0.71756 h 11.74996 c 0.65724,0 1.22478,-0.23814 1.70419,-0.71756"
         id="Fill-63"
         inkscape:connector-curvature="0"
         style="fill:#000000" />
      <path
         d="m 207.9472,344.4292 c -0.0603,1.3163 -0.12064,2.51144 -0.17965,3.58804 -0.29977,2.99059 -1.34515,5.47109 -3.13904,7.44437 -1.79389,1.97353 -4.54504,2.96017 -8.25188,2.96017 -3.70842,0 -6.47347,-0.98664 -8.29673,-2.96017 -1.82483,-1.97328 -2.85631,-4.45378 -3.09471,-7.44437 -0.12038,-1.0766 -0.1946,-2.27174 -0.22398,-3.58804 -0.0309,-1.31447 -0.0448,-2.66014 -0.0448,-4.03624 0,-1.37479 0.0139,-2.70473 0.0448,-3.99114 0.0294,-1.28536 0.1036,-2.43591 0.22398,-3.45323 0.11933,-1.49412 0.43326,-2.87048 0.94205,-4.1262 0.50722,-1.25572 1.22477,-2.34596 2.15266,-3.27358 0.92632,-0.92632 2.07687,-1.65935 3.45323,-2.19778 1.37479,-0.53816 2.98929,-0.80699 4.8435,-0.80699 1.85263,0 3.46739,0.26883 4.84349,0.80699 1.37479,0.53843 2.52535,1.27146 3.45324,2.19778 0.92631,0.92762 1.64387,2.01786 2.15266,3.27358 0.50722,1.25572 0.82115,2.63208 0.94153,4.1262 0.059,1.01732 0.11933,2.16787 0.17965,3.45323 0.0588,1.28641 0.0897,2.61635 0.0897,3.99114 0,1.3761 -0.0309,2.72177 -0.0897,4.03624 m 16.41406,-11.92908 c -0.17965,-3.34833 -0.91268,-6.50284 -2.19751,-9.46276 -1.28667,-2.96017 -3.10993,-5.53036 -5.47135,-7.71371 -2.363,-2.1823 -5.24712,-3.91587 -8.65551,-5.20227 -3.40838,-1.28536 -7.29619,-1.92869 -11.66026,-1.92869 -4.42597,0 -8.32767,0.64333 -11.70511,1.92869 -3.37901,1.2864 -6.24923,3.01997 -8.61066,5.20227 -2.363,2.18335 -4.18626,4.75354 -5.47135,7.71371 -1.28667,2.95992 -2.01839,6.11443 -2.19751,9.46276 -0.12065,2.5715 -0.17966,5.26233 -0.17966,8.07222 0,2.81148 0.059,5.44199 0.17966,7.89337 0.17912,3.34937 0.91084,6.50284 2.19751,9.46275 1.28509,2.95991 3.10835,5.54689 5.47135,7.75856 2.36143,2.21272 5.23165,3.94655 8.61066,5.20227 3.37744,1.25572 7.27914,1.88332 11.70511,1.88332 4.36407,0 8.25188,-0.6276 11.66026,-1.88332 3.40839,-1.25572 6.29251,-2.98955 8.65551,-5.20227 2.36142,-2.21167 4.18468,-4.79865 5.47135,-7.75856 1.28483,-2.95991 2.01786,-6.11338 2.19751,-9.46275 0.11907,-2.45138 0.17939,-5.08189 0.17939,-7.89337 0,-2.80989 -0.0603,-5.50072 -0.17939,-8.07222"
         id="Fill-65"
         inkscape:connector-curvature="0"
         style="fill:#000000" />
      <path
         d="m 40.155264,299.14665 h 27.704274 c 0.355368,0 0.662479,-0.12878 0.921858,-0.38815 0.258593,-0.2586 0.388151,-0.56571 0.388151,-0.92186 v -7.32635 c 0,-0.35563 -0.129558,-0.66248 -0.388151,-0.92186 -0.259379,-0.25859 -0.56649,-0.38815 -0.921858,-0.38815 H 55.050557 l 12.8575,-14.21603 c 0.419884,-0.41988 0.630745,-0.95385 0.630745,-1.60112 v -6.88968 c 0,-0.35537 -0.129821,-0.66248 -0.388151,-0.92186 -0.259379,-0.25859 -0.566228,-0.38815 -0.922121,-0.38815 H 40.640453 c -0.356417,0 -0.663528,0.12956 -0.921859,0.38815 -0.259117,0.25938 -0.388413,0.56649 -0.388413,0.92186 v 7.22931 c 0,0.35642 0.129296,0.66327 0.388413,0.92186 0.258331,0.25912 0.565442,0.38815 0.921859,0.38815 h 12.517868 l -13.585283,14.11899 c -0.129821,0.12982 -0.283508,0.33203 -0.461061,0.60635 -0.178077,0.27538 -0.266722,0.6394 -0.266722,1.09181 v 6.98672 c 0,0.35615 0.128771,0.66326 0.388151,0.92186 0.258592,0.25937 0.565703,0.38815 0.921858,0.38815"
         id="Fill-67"
         inkscape:connector-curvature="0"
         style="fill:#000000" />
      <path
         d="m 85.568453,286.0465 h 4.512254 c 0.743781,0 1.301879,0.25099 1.674032,0.75217 0.371366,0.50171 0.557836,1.04303 0.557836,1.62525 0,0.5505 -0.169947,1.0842 -0.509579,1.60113 -0.33937,0.51797 -0.913991,0.7763 -1.722289,0.7763 h -4.512254 z m 0,-12.51761 h 4.075584 c 0.711261,0 1.220578,0.24234 1.528476,0.72752 0.306849,0.48546 0.460798,0.98717 0.460798,1.50409 0,0.51797 -0.153949,1.01155 -0.460798,1.47996 -0.307898,0.46919 -0.817215,0.70339 -1.528476,0.70339 h -4.075584 z m -10.819708,25.6177 H 91.34246 c 4.430953,0 7.818881,-0.86494 10.16431,-2.59562 2.34516,-1.73016 3.51801,-4.42309 3.51801,-8.07853 0,-0.80803 -0.12143,-1.57699 -0.36402,-2.30451 -0.2426,-0.72805 -0.57488,-1.39866 -0.99477,-2.01367 -0.42067,-0.61422 -0.91399,-1.15606 -1.47969,-1.62525 -0.56649,-0.4684 -1.15685,-0.83242 -1.77107,-1.0918 0.38815,-0.19381 0.80803,-0.4768 1.26149,-0.84895 0.45267,-0.37163 0.87334,-0.8083 1.26149,-1.31027 0.38815,-0.50093 0.71099,-1.08315 0.97064,-1.74668 0.25833,-0.66248 0.38788,-1.38266 0.38788,-2.15896 0,-3.42806 -1.07554,-5.98382 -3.22663,-7.66598 -2.151353,-1.68138 -5.555017,-2.52298 -10.213091,-2.52298 H 74.748745 c -0.356155,0 -0.663266,0.12956 -0.921859,0.38841 -0.259117,0.25912 -0.38815,0.56623 -0.38815,0.9216 v 31.34319 c 0,0.35615 0.129033,0.66326 0.38815,0.92185 0.258593,0.25938 0.565704,0.38815 0.921859,0.38815 z"
         id="Fill-69"
         inkscape:connector-curvature="0"
         style="fill:#000000" />
      <path
         d="m 121.18107,274.20797 h 3.54187 c 0.8083,0 1.38266,0.28351 1.72255,0.84895 0.33964,0.56623 0.50958,1.17285 0.50958,1.81959 0,0.64753 -0.18647,1.22137 -0.5581,1.72229 -0.37215,0.50197 -0.93025,0.75191 -1.67403,0.75191 h -3.54187 z m -10.81971,24.9387 h 9.5097 c 0.35563,0 0.66248,-0.12877 0.92212,-0.38841 0.25833,-0.25833 0.38789,-0.56544 0.38789,-0.9216 v -9.2671 h 1.98927 l 4.17262,9.2671 c 0.097,0.2266 0.30711,0.50198 0.63075,0.82483 0.32311,0.32389 0.80803,0.48518 1.45556,0.48518 h 9.94637 c 0.29111,0 0.54131,-0.10464 0.75217,-0.31524 0.21008,-0.21007 0.31525,-0.46106 0.31525,-0.75217 0,-0.16156 -0.0483,-0.33963 -0.1453,-0.53397 l -5.96782,-11.06204 c 1.5526,-0.97064 2.81383,-2.24787 3.78421,-3.83325 0.97064,-1.58434 1.45557,-3.47632 1.45557,-5.67645 0,-1.84372 -0.33964,-3.49336 -1.0189,-4.94892 -0.679,-1.45557 -1.64964,-2.69293 -2.91113,-3.71183 -1.26149,-1.01863 -2.8141,-1.79493 -4.65781,-2.32864 -1.84372,-0.53397 -3.92977,-0.80069 -6.25894,-0.80069 h -14.36158 c -0.35616,0 -0.66327,0.12955 -0.92186,0.38815 -0.25912,0.25938 -0.38815,0.56623 -0.38815,0.92185 v 31.34319 c 0,0.35616 0.12903,0.66327 0.38815,0.9216 0.25859,0.25964 0.5657,0.38841 0.92186,0.38841 z"
         id="Fill-71"
         inkscape:connector-curvature="0"
         style="fill:#000000" />
      <path
         d="m 159.70442,276.24564 2.76557,9.02451 h -5.48263 z m -17.2242,22.9009 h 8.97599 c 0.64674,0 1.09915,-0.13716 1.35827,-0.41228 0.25885,-0.27459 0.43693,-0.54131 0.53396,-0.80069 l 1.16446,-3.20224 h 10.43129 l 1.16472,3.20224 c 0.097,0.25938 0.27433,0.5261 0.5337,0.80069 0.25833,0.27512 0.711,0.41228 1.35853,0.41228 h 8.97573 c 0.29138,0 0.54158,-0.10438 0.75244,-0.31524 0.20981,-0.21007 0.31524,-0.46106 0.31524,-0.75217 0,-0.12878 -0.0168,-0.2426 -0.0485,-0.33964 l -10.81971,-30.95477 c -0.097,-0.35589 -0.32363,-0.71126 -0.67952,-1.06768 -0.35616,-0.35537 -0.85708,-0.53371 -1.50383,-0.53371 H 154.4644 c -0.64753,0 -1.14846,0.17834 -1.50409,0.53371 -0.35641,0.35642 -0.58248,0.71179 -0.67952,1.06768 l -10.81971,30.95477 c -0.0325,0.097 -0.0483,0.21086 -0.0483,0.33964 0,0.29111 0.10438,0.5421 0.31524,0.75217 0.21008,0.21086 0.46107,0.31524 0.75218,0.31524 z"
         id="Fill-73"
         inkscape:connector-curvature="0"
         style="fill:#000000" />
      <path
         d="M 182.02249,299.14665 H 206.476 c 0.35563,0 0.66274,-0.12878 0.92186,-0.38815 0.25859,-0.2586 0.38815,-0.56571 0.38815,-0.92186 v -7.32635 c 0,-0.35563 -0.12956,-0.66248 -0.38815,-0.92186 -0.25912,-0.25859 -0.56623,-0.38815 -0.92186,-0.38815 h -13.43972 v -22.70683 c 0,-0.35537 -0.12956,-0.66248 -0.38789,-0.92186 -0.25964,-0.25859 -0.56676,-0.38815 -0.92212,-0.38815 h -9.70378 c -0.35615,0 -0.66326,0.12956 -0.92186,0.38815 -0.25911,0.25938 -0.38815,0.56649 -0.38815,0.92186 v 31.34319 c 0,0.35615 0.12904,0.66326 0.38815,0.92186 0.2586,0.25937 0.56571,0.38815 0.92186,0.38815"
         id="Fill-75"
         inkscape:connector-curvature="0"
         style="fill:#000000" />
      <path
         d="m 212.39494,299.14665 h 9.89785 c 0.35563,0 0.66274,-0.12878 0.92185,-0.38815 0.25833,-0.2586 0.38816,-0.56571 0.38816,-0.92186 v -31.34319 c 0,-0.35537 -0.12983,-0.66248 -0.38816,-0.92186 -0.25911,-0.25859 -0.56622,-0.38815 -0.92185,-0.38815 h -9.89785 c -0.35616,0 -0.66327,0.12956 -0.92186,0.38815 -0.25938,0.25938 -0.38815,0.56649 -0.38815,0.92186 v 31.34319 c 0,0.35615 0.12877,0.66326 0.38815,0.92186 0.25859,0.25937 0.5657,0.38815 0.92186,0.38815"
         id="Fill-77"
         inkscape:connector-curvature="0"
         style="fill:#000000" />
      <path
         d="m 56.301399,395.80659 c -0.485188,0.40468 -0.987162,0.60662 -1.503822,0.60662 h -3.396583 v -5.38586 h 3.396583 c 0.873077,0 1.462909,0.3079 1.770807,0.92186 0.306849,0.61501 0.460798,1.22949 0.460798,1.84372 0,0.93838 -0.242332,1.60951 -0.727783,2.01366 m 9.339751,-10.86823 c -1.278013,-0.98637 -2.813832,-1.72255 -4.60903,-2.20747 -1.79546,-0.48545 -3.792864,-0.72805 -5.992211,-0.72805 H 40.338692 c -0.356417,0 -0.663529,0.12956 -0.921859,0.38841 -0.259117,0.25912 -0.387888,0.56623 -0.387888,0.9216 v 31.34319 c 0,0.35616 0.128771,0.66327 0.387888,0.92186 0.25833,0.25938 0.565442,0.38815 0.921859,0.38815 h 9.994887 c 0.35563,0 0.662479,-0.12877 0.921858,-0.38815 0.258592,-0.25859 0.388151,-0.5657 0.388151,-0.92186 v -9.2671 h 3.396321 c 2.199347,0 4.196751,-0.21821 5.992211,-0.65488 1.795198,-0.43667 3.331017,-1.12354 4.60903,-2.06218 1.277489,-0.93759 2.263864,-2.13483 2.959651,-3.5904 0.695525,-1.45556 1.043287,-3.18546 1.043287,-5.19151 0,-2.00502 -0.347762,-3.75169 -1.043287,-5.24004 -0.695787,-1.4873 -1.682162,-2.72466 -2.959651,-3.71157"
         id="Fill-79"
         inkscape:connector-curvature="0"
         style="fill:#000000" />
      <path
         d="m 93.369264,403.06008 c -0.0653,1.35853 -0.41228,2.3533 -1.043287,2.98404 -0.630745,0.63049 -1.479695,0.94599 -2.54711,0.94599 -1.067415,0 -1.916626,-0.3155 -2.547109,-0.94599 -0.631008,-0.63074 -0.979032,-1.62551 -1.043287,-2.98404 -0.09704,-2.74879 -0.09704,-5.46611 0,-8.15117 0.06425,-1.35853 0.420147,-2.35329 1.067153,-2.98404 0.646743,-0.63048 1.487562,-0.94599 2.523243,-0.94599 1.034895,0 1.875451,0.31551 2.522982,0.94599 0.646743,0.63075 1.002111,1.62551 1.067415,2.98404 0.09704,2.68506 0.09704,5.40238 0,8.15117 m 11.256376,-13.92491 c -0.80882,-1.64964 -1.91663,-3.04017 -3.32367,-4.17262 -1.406787,-1.13167 -3.089212,-1.98928 -5.045703,-2.5715 -1.957539,-0.58223 -4.116498,-0.87334 -6.4774,-0.87334 -2.393947,0 -4.560773,0.29111 -6.501528,0.87334 -1.940755,0.58222 -3.614787,1.43983 -5.021834,2.5715 -1.406785,1.13245 -2.515375,2.52298 -3.323411,4.17262 -0.809085,1.64964 -1.261491,3.54188 -1.358529,5.67671 -0.0653,1.39104 -0.09704,2.83088 -0.09704,4.31818 0,1.48808 0.03173,2.89539 0.09704,4.22114 0.09704,2.16735 0.549444,4.06798 1.358529,5.7011 0.808036,1.63364 1.916626,3.0003 3.323411,4.09945 1.407047,1.10019 3.081079,1.92502 5.021834,2.47472 1.940755,0.54971 4.107581,0.82482 6.501528,0.82482 2.360902,0 4.519861,-0.27511 6.4774,-0.82482 1.956491,-0.5497 3.638916,-1.37453 5.045703,-2.47472 1.40704,-1.09915 2.51485,-2.46581 3.32367,-4.09945 0.80804,-1.63312 1.26123,-3.53375 1.35853,-5.7011 0.0645,-1.32575 0.097,-2.73306 0.097,-4.22114 0,-1.4873 -0.0325,-2.92714 -0.097,-4.31818 -0.0973,-2.13483 -0.55049,-4.02707 -1.35853,-5.67671"
         id="Fill-81"
         inkscape:connector-curvature="0"
         style="fill:#000000" />
      <path
         d="m 127.13782,390.97878 c 0.58223,0 1.07502,0.0729 1.47995,0.21847 0.40415,0.14555 0.74379,0.32363 1.01864,0.5337 0.27459,0.21086 0.48519,0.42094 0.63101,0.63049 0.14529,0.21086 0.26672,0.38081 0.36376,0.50984 0.29111,0.35615 0.75978,0.53344 1.40704,0.53344 h 10.72267 c 0.29112,0 0.54132,-0.10438 0.75218,-0.31524 0.20981,-0.21007 0.31524,-0.46106 0.31524,-0.75191 -0.0325,-1.45557 -0.44506,-2.83875 -1.2371,-4.14849 -0.79335,-1.31001 -1.90063,-2.45794 -3.32367,-3.44484 -1.42384,-0.98638 -3.16212,-1.77081 -5.21591,-2.35304 -2.05432,-0.58249 -4.3591,-0.87334 -6.91381,-0.87334 -2.39421,0 -4.57756,0.26673 -6.55005,0.80043 -1.97327,0.53371 -3.6717,1.33414 -5.09448,2.40182 -1.42383,1.06715 -2.53977,2.40968 -3.3478,4.0268 -0.80882,1.61791 -1.26149,3.49362 -1.35853,5.62819 -0.0653,1.39131 -0.097,2.86261 -0.097,4.41522 0,1.5526 0.0317,2.99217 0.097,4.31818 0.097,2.26465 0.54131,4.22953 1.33414,5.89517 0.7923,1.66616 1.89223,3.04908 3.29928,4.14823 1.40705,1.09994 3.09708,1.92502 5.07035,2.47447 1.97276,0.5497 4.18863,0.82482 6.64709,0.82482 2.45768,0 4.70633,-0.28351 6.74412,-0.84895 2.03779,-0.56571 3.79208,-1.41466 5.26417,-2.54711 1.47156,-1.1322 2.62002,-2.52298 3.4451,-4.17263 0.82456,-1.64964 1.2371,-3.57387 1.2371,-5.774 v -6.30746 c 0,-0.35536 -0.12956,-0.66247 -0.38815,-0.92159 -0.25938,-0.25886 -0.56623,-0.38842 -0.92186,-0.38842 h -13.34269 c -0.35642,0 -0.66353,0.12956 -0.92186,0.38842 -0.25911,0.25912 -0.38815,0.56623 -0.38815,0.92159 v 5.3856 c 0,0.35642 0.12904,0.66353 0.38815,0.92186 0.25833,0.25938 0.56544,0.38815 0.92186,0.38815 h 2.28039 c 0,1.26149 -0.38055,2.15922 -1.14033,2.69293 -0.7603,0.5337 -1.75481,0.80069 -2.98378,0.80069 -1.19697,0 -2.13483,-0.32311 -2.81409,-0.97038 -0.67926,-0.64674 -1.05142,-1.69842 -1.11593,-3.15399 -0.097,-2.81383 -0.097,-5.56288 0,-8.2482 0.097,-2.42595 1.34174,-3.63892 3.73595,-3.63892"
         id="Fill-83"
         inkscape:connector-curvature="0"
         style="fill:#000000" />
      <path
         d="m 179.24669,382.0029 h -9.50996 c -0.35616,0 -0.66327,0.12955 -0.9216,0.38815 -0.25938,0.25937 -0.38815,0.56649 -0.38815,0.92185 v 19.65015 c 0,2.49124 -1.19697,3.73595 -3.59039,3.73595 -2.39421,0 -3.59066,-1.24471 -3.59066,-3.73595 V 383.3129 c 0,-0.35536 -0.12956,-0.66248 -0.38789,-0.92185 -0.25938,-0.2586 -0.56623,-0.38815 -0.92186,-0.38815 h -9.50996 c -0.35616,0 -0.66327,0.12955 -0.9216,0.38815 -0.25938,0.25937 -0.38841,0.56649 -0.38841,0.92185 v 19.84422 c 0,2.29717 0.38841,4.27805 1.16471,5.94343 0.77631,1.66643 1.85107,3.04908 3.22638,4.1485 1.37452,1.09993 3.03256,1.90902 4.97305,2.42594 1.94102,0.51692 4.07559,0.7763 6.40449,0.7763 2.29639,0 4.40709,-0.25938 6.33185,-0.7763 1.92423,-0.51692 3.57387,-1.32601 4.94892,-2.42594 1.37453,-1.09942 2.45033,-2.48207 3.22664,-4.1485 0.7763,-1.66538 1.16445,-3.64626 1.16445,-5.94343 V 383.3129 c 0,-0.35536 -0.12982,-0.66248 -0.38815,-0.92185 -0.25938,-0.2586 -0.56649,-0.38815 -0.92186,-0.38815"
         id="Fill-85"
         inkscape:connector-curvature="0"
         style="fill:#000000" />
      <path
         d="m 221.69994,382.0029 h -7.66572 c -0.64753,0 -1.13272,0.17833 -1.45557,0.5337 -0.32389,0.35642 -0.5337,0.61475 -0.631,0.7763 l -7.03524,11.64453 -7.03524,-11.64453 c -0.0968,-0.16155 -0.30763,-0.41988 -0.63048,-0.7763 -0.3239,-0.35537 -0.80908,-0.5337 -1.45583,-0.5337 h -7.66598 c -0.35615,0 -0.66326,0.12955 -0.9216,0.38815 -0.25937,0.25937 -0.38841,0.56649 -0.38841,0.92185 v 31.34319 c 0,0.35616 0.12904,0.66327 0.38841,0.92186 0.25834,0.25938 0.56545,0.38815 0.9216,0.38815 h 8.78218 c 0.35537,0 0.66248,-0.12877 0.92159,-0.38815 0.2586,-0.25859 0.38816,-0.5657 0.38816,-0.92186 v -13.29417 l 3.2025,5.24004 c 0.1613,0.25912 0.3795,0.5261 0.65488,0.80069 0.27433,0.27486 0.65487,0.41228 1.14032,0.41228 h 3.39632 c 0.48493,0 0.86495,-0.13742 1.1398,-0.41228 0.27459,-0.27459 0.4928,-0.54157 0.6554,-0.80069 l 3.20225,-5.24004 v 13.29417 c 0,0.35616 0.12877,0.66327 0.38788,0.92186 0.2586,0.25938 0.56571,0.38815 0.92212,0.38815 h 8.78166 c 0.35563,0 0.66248,-0.12877 0.92212,-0.38815 0.25833,-0.25859 0.38789,-0.5657 0.38789,-0.92186 V 383.3129 c 0,-0.35536 -0.12956,-0.66248 -0.38789,-0.92185 -0.25964,-0.2586 -0.56649,-0.38815 -0.92212,-0.38815"
         id="Fill-87"
         inkscape:connector-curvature="0"
         style="fill:#000000" />
      <path
         d="m 141.94463,31.969912 c -3.491,-2.30792 -4.69873,-5.47817 -4.69873,-5.47817 0,0 -1.20772,3.17025 -4.69898,5.47817 -4.60589,3.04489 -11.81579,6.49445 -11.81579,16.20295 0,5.53508 4.37929,10.02242 9.45803,10.02242 2.42018,0 4.61952,-1.02204 6.2613,-2.68821 0.0257,1.10466 0.0359,2.20905 0.0267,3.31371 -0.0147,1.10911 -0.0184,2.21823 -0.0983,3.32735 -0.0742,1.10911 -0.17519,2.21823 -0.38894,3.32734 h 2.51197 c -0.21375,-1.10911 -0.31472,-2.21823 -0.38894,-3.32734 -0.08,-1.10912 -0.0837,-2.21824 -0.0981,-3.32735 -0.009,-1.10466 5.3e-4,-2.20905 0.0265,-3.31371 1.64177,1.66617 3.84112,2.68821 6.2613,2.68821 5.07848,0 9.45803,-4.48734 9.45803,-10.02242 0,-9.7085 -7.21017,-13.15806 -11.81605,-16.20295"
         id="Fill-51-5"
         inkscape:connector-curvature="0"
         style="fill:#3fad2b;fill-rule:evenodd;stroke:none;stroke-width:1" />
      <path
         sodipodi:nodetypes="cccssccssc"
         d="m 132.55128,15.763695 c 3.491,2.30792 4.69872,5.47817 4.69872,5.47817 0,0 1.20772,-3.17025 4.69899,-5.47817 4.60588,-3.04489 11.81578,-6.49445 11.81578,-16.20295 0,-5.53508 -4.37929,-10.02242 -9.45803,-10.02242 -2.42017,0 -4.61951,1.02204 -6.2613,2.68821 -1.83374,1.770005 -0.047,1.803662 -1.59088,0 -1.64178,-1.66617 -3.84113,-2.68821 -6.2613,-2.68821 -5.07848,0 -9.45803,4.48734 -9.45803,10.02242 0,9.7085 7.21016,13.15806 11.81605,16.20295"
         id="Fill-51-5-8"
         inkscape:connector-curvature="0"
         style="fill:#f52d2d;fill-opacity:1;fill-rule:evenodd;stroke:none;stroke-width:1" />
      <path
         d="m 132.94528,74.784785 c -3.00003,-9.23327 -10.92303,-10.286 -16.24463,-11.75861 -4.0331,-1.1162 -6.1619,-3.75798 -6.1619,-3.75798 0,0 -0.1689,3.38845 -2.77607,6.66203 -3.43933,4.31923 -9.23039,9.82809 -6.23035,19.06136 1.71049,5.264155 7.2621,8.178435 12.09222,6.609055 2.30163,-0.74798 4.07742,-2.39972 5.12385,-4.49154 0.36639,1.0425 0.71703,2.08998 1.04959,3.14324 0.32887,1.05928 0.66824,2.11542 0.93497,3.1949 0.27196,1.07764 0.51875,2.16368 0.65802,3.28459 l 2.38922,-0.7763 c -0.54629,-0.98873 -0.9848,-2.01235 -1.39813,-3.0441 -0.41883,-1.03017 -0.76502,-2.08395 -1.12196,-3.13406 -0.34986,-1.04774 -0.68163,-2.10126 -0.99818,-3.15975 2.07608,1.07711 4.48341,1.36954 6.7853,0.62156 4.83011,-1.569385 7.60827,-7.190225 5.89805,-12.454395"
         id="Fill-11-1"
         inkscape:connector-curvature="0"
         style="fill:#429b44;fill-rule:evenodd;stroke:none;stroke-width:1" />
      <path
         d="m 165.78796,65.930195 c -2.60664,-3.27358 -2.7758,-6.66203 -2.7758,-6.66203 0,0 -2.12854,2.64179 -6.1619,3.75798 -5.32134,1.47262 -13.24434,2.52534 -16.24464,11.75862 -1.71023,5.26416 1.0682,10.88501 5.89832,12.454395 2.30163,0.74797 4.70895,0.45555 6.7853,-0.62157 -0.31656,1.0585 -0.64858,2.11201 -0.99844,3.15976 -0.35668,1.0501 -0.70287,2.10388 -1.12171,3.13406 -0.41306,1.03174 -0.85183,2.05536 -1.39813,3.0441 l 2.38923,0.7763 c 0.139,-1.12092 0.38605,-2.20696 0.65802,-3.2846 0.26646,-1.07948 0.60583,-2.13535 0.93471,-3.1949 0.33281,-1.05325 0.68346,-2.10074 1.04932,-3.14324 1.04696,2.09182 2.82249,3.74356 5.12412,4.49154 4.83012,1.56939 10.38172,-1.34489 12.09247,-6.609055 2.99978,-9.23327 -2.79128,-14.74213 -6.23087,-19.06136"
         id="Fill-15-6"
         inkscape:connector-curvature="0"
         style="fill:#3cb200;fill-rule:evenodd;stroke:none;stroke-width:1" />
      <path
         d="m 129.9433,126.08668 c 2.42044,0 4.61952,-1.02204 6.2613,-2.68821 0.0262,1.10466 0.0359,2.20932 0.027,3.31371 -0.0149,1.10912 -0.0186,2.21823 -0.0984,3.32735 -0.0745,1.10911 -0.17519,2.21823 -0.3892,3.32734 h 2.51197 c -0.21375,-1.10911 -0.31473,-2.21823 -0.38894,-3.32734 -0.08,-1.10912 -0.0834,-2.21823 -0.0981,-3.32735 -0.009,-1.10439 7.8e-4,-2.20905 0.0265,-3.31371 1.64178,1.66617 3.84113,2.68821 6.26131,2.68821 5.07874,0 9.45802,-4.48708 9.45802,-10.02242 0,-9.70824 -7.2099,-13.1578 -11.81578,-16.20295 -3.491,-2.30766 -4.69899,-5.47817 -4.69899,-5.47817 0,0 -1.20772,3.17051 -4.69872,5.47817 -4.60588,3.04515 -11.81605,6.49471 -11.81605,16.20295 0,5.53534 4.37955,10.02242 9.45803,10.02242"
         id="Fill-49-7"
         inkscape:connector-curvature="0"
         style="fill:#429b44;fill-rule:evenodd;stroke:none;stroke-width:1" />
      <path
         d="m 108.16799,123.03359 c -0.94416,-0.58721 -1.84346,-1.23631 -2.74932,-1.87624 -0.89904,-0.64202 -1.78681,-1.29925 -2.66539,-1.96934 2.31317,-0.34907 4.43253,-1.52742 5.85531,-3.48549 2.98509,-4.10863 1.92895,-10.28915 -2.54921,-13.54253 -7.85402,-5.706606 -14.88296,-1.90116 -20.0535,0.0351 -3.91901,1.46793 -7.19417,0.58174 -7.19417,0.58174 0,0 1.85526,2.84058 1.67036,7.02134 -0.24391,5.51594 -1.69134,13.37678 6.16321,19.08313 4.4779,3.25338 10.68228,2.34805 13.66737,-1.76059 1.42278,-1.95806 1.8883,-4.33811 1.50566,-6.64577 0.90874,0.62838 1.80831,1.26962 2.69634,1.92633 0.88881,0.66379 1.78392,1.3184 2.63418,2.03517 0.85367,0.71178 1.6916,1.44534 2.46318,2.27042 l 1.47681,-2.03228 c -1.02335,-0.4789 -1.97983,-1.04906 -2.92083,-1.64099"
         id="Fill-7-9"
         inkscape:connector-curvature="0"
         style="fill:#3fad2b;fill-rule:evenodd;stroke:none;stroke-width:1" />
      <path
         d="m 192.18829,102.77673 c 0,0 -3.27463,0.88619 -7.1939,-0.58144 -5.17054,-1.93656 -12.19922,-5.742006 -20.05377,-0.0354 -4.4779,3.25339 -5.53377,9.4339 -2.54868,13.54253 1.42252,1.95807 3.54214,3.13668 5.85504,3.48549 -0.87832,0.67035 -1.76608,1.32732 -2.66512,1.96935 -0.90586,0.64018 -1.80517,1.28902 -2.74958,1.87623 -0.941,0.59193 -1.89748,1.16236 -2.92058,1.64099 l 1.47681,2.03255 c 0.77132,-0.82509 1.60926,-1.55864 2.46293,-2.27069 0.85026,-0.7165 1.74536,-1.37137 2.63418,-2.03517 0.88829,-0.65644 1.78733,-1.29794 2.69634,-1.92606 -0.38291,2.30766 0.0831,4.68744 1.50592,6.64551 2.98482,4.10863 9.18921,5.01423 13.66737,1.76084 7.85402,-5.70661 6.40711,-13.56719 6.16321,-19.08339 -0.1849,-4.18075 1.66983,-7.02134 1.66983,-7.02134"
         id="Fill-19-0"
         inkscape:connector-curvature="0"
         style="fill:#429b44;fill-rule:evenodd;stroke:none;stroke-width:1" />
      <path
         d="m 140.70523,146.40979 c 3.00003,-9.23328 10.92303,-10.28601 16.24463,-11.75862 4.0331,-1.1162 6.1619,-3.75798 6.1619,-3.75798 0,0 0.1689,3.38845 2.77607,6.66203 3.43933,4.31923 9.23039,9.82809 6.23035,19.06136 -1.71049,5.26417 -7.2621,8.17845 -12.09222,6.60907 -2.30163,-0.74798 -4.07742,-2.39972 -5.12385,-4.49154 -0.36639,1.0425 -0.71703,2.08998 -1.04959,3.14324 -0.32887,1.05928 -0.66824,2.11542 -0.93497,3.1949 -0.27196,1.07763 -0.51875,2.16368 -0.65802,3.28459 l -2.38922,-0.7763 c 0.54629,-0.98873 0.9848,-2.01235 1.39813,-3.04411 0.41883,-1.03017 0.76502,-2.08394 1.12196,-3.13405 0.34986,-1.04774 0.68163,-2.10126 0.99818,-3.15975 -2.07608,1.07711 -4.48341,1.36954 -6.7853,0.62156 -4.83011,-1.5694 -7.60827,-7.19024 -5.89805,-12.45441"
         id="Fill-11-1-8"
         inkscape:connector-curvature="0"
         style="fill:#429b44;fill-rule:evenodd;stroke:none;stroke-width:1" />
      <path
         d="m 107.86255,137.55519 c 2.60664,-3.27357 2.7758,-6.66203 2.7758,-6.66203 0,0 2.12854,2.64179 6.1619,3.75799 5.32134,1.47262 13.24434,2.52534 16.24464,11.75861 1.71023,5.26416 -1.0682,10.88501 -5.89832,12.4544 -2.30163,0.74797 -4.70895,0.45555 -6.7853,-0.62157 0.31656,1.0585 0.64858,2.11201 0.99844,3.15976 0.35668,1.0501 0.70287,2.10388 1.12171,3.13406 0.41306,1.03174 0.85183,2.05535 1.39813,3.0441 l -2.38923,0.77629 c -0.139,-1.1209 -0.38605,-2.20695 -0.65802,-3.28458 -0.26646,-1.07949 -0.60583,-2.13536 -0.93471,-3.19491 -0.33281,-1.05325 -0.68346,-2.10074 -1.04932,-3.14324 -1.04696,2.09182 -2.82249,3.74356 -5.12412,4.49154 -4.83012,1.56939 -10.38172,-1.3449 -12.09247,-6.60906 -2.99978,-9.23327 2.79128,-14.74213 6.23087,-19.06136"
         id="Fill-15-6-8"
         inkscape:connector-curvature="0"
         style="fill:#3cb200;fill-rule:evenodd;stroke:none;stroke-width:1" />
      <path
         d="m 92.61365,156.65783 c -1.07948,-0.26672 -2.13562,-0.60609 -3.1949,-0.93471 -1.05325,-0.33281 -2.10047,-0.68346 -3.14324,-1.04958 2.09208,-1.04643 3.74356,-2.82222 4.49154,-5.12412 1.56939,-4.83011 -1.34489,-10.38172 -6.60906,-12.09195 -9.23327,-3.0003 -14.74213,2.79102 -19.06136,6.23061 -3.27358,2.60691 -6.66203,2.77581 -6.66203,2.77581 0,0 2.64179,2.12853 3.75798,6.16189 1.47262,5.32134 2.52534,13.24434 11.75862,16.24464 5.26416,1.71023 10.88527,-1.06794 12.4544,-5.89806 0.74797,-2.30189 0.45555,-4.70921 -0.62157,-6.78555 1.0585,0.31655 2.11201,0.64857 3.15976,0.99843 1.05037,0.35668 2.10388,0.70287 3.13406,1.12171 1.032,0.41332 2.05562,0.85183 3.0441,1.39812 l 0.7763,-2.38922 c -1.12092,-0.139 -2.20696,-0.38579 -3.2846,-0.65802"
         id="Fill-43-8"
         inkscape:connector-curvature="0"
         style="fill:#429b44;fill-opacity:1;fill-rule:evenodd;stroke:none;stroke-width:1" />
      <path
         d="m 206.15336,143.68795 c -4.31922,-3.43959 -9.82808,-9.23065 -19.06136,-6.23061 -5.26416,1.71049 -8.17844,7.2621 -6.60905,12.09222 0.74798,2.30189 2.39972,4.07742 4.49153,5.12411 -1.0425,0.36612 -2.09024,0.71677 -3.14323,1.04932 -1.05929,0.32888 -2.11542,0.66825 -3.1949,0.93497 -1.07765,0.27197 -2.16368,0.51876 -3.2846,0.65802 l 0.7763,2.38923 c 0.98848,-0.5463 2.01209,-0.9848 3.0441,-1.3984 1.03018,-0.41857 2.08369,-0.76476 3.13406,-1.12144 1.04775,-0.34986 2.10126,-0.68188 3.15976,-0.9987 -1.07712,2.07635 -1.36981,4.48367 -0.62157,6.78556 1.56913,4.83012 7.19024,7.60855 12.4544,5.89806 9.23327,-3.00004 10.286,-10.92304 11.75861,-16.24464 1.1162,-4.0331 3.75799,-6.16163 3.75799,-6.16163 0,0 -3.38846,-0.16916 -6.66204,-2.77607"
         id="Fill-59-1"
         inkscape:connector-curvature="0"
         style="fill:#3cb200;fill-rule:evenodd;stroke:none;stroke-width:1" />
      <path
         d="m 129.9433,199.08668 c 2.42044,0 4.61952,-1.02204 6.2613,-2.68821 0.0262,1.10466 0.0359,2.20932 0.027,3.31371 -0.0149,1.10912 -0.0186,2.21823 -0.0984,3.32735 -0.0745,1.10911 -0.17519,2.21823 -0.3892,3.32734 h 2.51197 c -0.21375,-1.10911 -0.31473,-2.21823 -0.38894,-3.32734 -0.08,-1.10912 -0.0834,-2.21823 -0.0981,-3.32735 -0.009,-1.10439 7.8e-4,-2.20905 0.0265,-3.31371 1.64178,1.66617 3.84113,2.68821 6.26131,2.68821 5.07874,0 9.45802,-4.48708 9.45802,-10.02242 0,-9.70824 -7.2099,-13.1578 -11.81578,-16.20295 -3.491,-2.30766 -4.69899,-5.47818 -4.69899,-5.47818 0,0 -1.20772,3.17051 -4.69872,5.47818 -4.60588,3.04515 -11.81605,6.49471 -11.81605,16.20295 0,5.53533 4.37955,10.02242 9.45803,10.02242"
         id="Fill-49-7-7"
         inkscape:connector-curvature="0"
         style="fill:#429b44;fill-rule:evenodd;stroke:none;stroke-width:1" />
      <path
         d="m 95.26746,238.03359 c -0.94416,-0.58721 -1.84346,-1.23631 -2.74932,-1.87624 -0.89904,-0.64202 -1.78681,-1.29925 -2.66539,-1.96934 2.31317,-0.34907 4.43253,-1.52742 5.85531,-3.48549 2.98509,-4.10863 1.92895,-10.28915 -2.54921,-13.54253 -7.85402,-5.70661 -14.88296,-1.90116 -20.0535,0.0351 -3.91901,1.46793 -7.19417,0.58174 -7.19417,0.58174 0,0 1.85526,2.84058 1.67036,7.02134 -0.24391,5.51594 -1.69134,13.37678 6.16321,19.08313 4.4779,3.25338 10.68228,2.34805 13.66737,-1.76059 1.42278,-1.95806 1.8883,-4.33811 1.50566,-6.64577 0.90874,0.62838 1.80831,1.26962 2.69634,1.92633 0.88881,0.66379 1.78392,1.3184 2.63418,2.03517 0.85367,0.71178 1.6916,1.44534 2.46318,2.27042 l 1.47681,-2.03228 c -1.02335,-0.4789 -1.97983,-1.04906 -2.92083,-1.64099"
         id="Fill-7-9-8"
         inkscape:connector-curvature="0"
         style="fill:#3fad2b;fill-rule:evenodd;stroke:none;stroke-width:1" />
      <path
         d="m 207.0883,217.77673 c 0,0 -3.27463,0.88618 -7.1939,-0.58145 -5.17054,-1.93656 -12.19922,-5.742 -20.05377,-0.0354 -4.4779,3.25339 -5.53377,9.4339 -2.54868,13.54253 1.42252,1.95807 3.54214,3.13668 5.85504,3.48549 -0.87832,0.67035 -1.76608,1.32732 -2.66512,1.96935 -0.90586,0.64018 -1.80517,1.28902 -2.74958,1.87623 -0.941,0.59193 -1.89748,1.16236 -2.92058,1.64099 l 1.47681,2.03254 c 0.77132,-0.82508 1.60926,-1.55864 2.46293,-2.27069 0.85026,-0.7165 1.74536,-1.37137 2.63418,-2.03517 0.88829,-0.65644 1.78733,-1.29794 2.69634,-1.92606 -0.38291,2.30766 0.0831,4.68744 1.50592,6.64551 2.98482,4.10863 9.18921,5.01423 13.66737,1.76084 7.85402,-5.70661 6.40711,-13.56719 6.16321,-19.08339 -0.1849,-4.18075 1.66983,-7.02133 1.66983,-7.02133"
         id="Fill-19-0-4"
         inkscape:connector-curvature="0"
         style="fill:#429b44;fill-rule:evenodd;stroke:none;stroke-width:1" />
      <path
         d="m 159.08023,191.02447 c 3.00003,-9.23328 10.92303,-10.28601 16.24463,-11.75862 4.0331,-1.1162 6.1619,-3.75798 6.1619,-3.75798 0,0 0.1689,3.38845 2.77607,6.66203 3.43933,4.31923 9.23039,9.82809 6.23035,19.06136 -1.71049,5.26417 -7.2621,8.17845 -12.09222,6.60907 -2.30163,-0.74798 -4.07742,-2.39972 -5.12385,-4.49154 -0.36639,1.0425 -0.71703,2.08998 -1.04959,3.14324 -0.32887,1.05928 -0.66824,2.11542 -0.93497,3.1949 -0.27196,1.07763 -0.51875,2.16368 -0.65802,3.28459 l -2.38922,-0.7763 c 0.54629,-0.98873 0.9848,-2.01235 1.39813,-3.04411 0.41883,-1.03017 0.76502,-2.08394 1.12196,-3.13405 0.34986,-1.04774 0.68163,-2.10126 0.99818,-3.15975 -2.07608,1.07711 -4.48341,1.36954 -6.7853,0.62156 -4.83011,-1.5694 -7.60827,-7.19024 -5.89805,-12.45441"
         id="Fill-11-1-8-4"
         inkscape:connector-curvature="0"
         style="fill:#429b44;fill-rule:evenodd;stroke:none;stroke-width:1" />
      <path
         d="m 90.23755,182.16987 c 2.60664,-3.27357 2.7758,-6.66203 2.7758,-6.66203 0,0 2.12854,2.64179 6.1619,3.75799 5.32134,1.47262 13.24434,2.52534 16.24464,11.75861 1.71023,5.26416 -1.0682,10.88501 -5.89832,12.4544 -2.30163,0.74797 -4.70895,0.45555 -6.7853,-0.62157 0.31656,1.0585 0.64858,2.11201 0.99844,3.15976 0.35668,1.0501 0.70287,2.10388 1.12171,3.13406 0.41306,1.03174 0.85183,2.05535 1.39813,3.0441 l -2.38923,0.77629 c -0.139,-1.1209 -0.38605,-2.20695 -0.65802,-3.28458 -0.26646,-1.07949 -0.60583,-2.13536 -0.93471,-3.19491 -0.33281,-1.05325 -0.68346,-2.10074 -1.04932,-3.14324 -1.04696,2.09182 -2.82249,3.74356 -5.12412,4.49154 -4.83012,1.56939 -10.38172,-1.3449 -12.09247,-6.60906 -2.99978,-9.23327 2.79128,-14.74213 6.23087,-19.06136"
         id="Fill-15-6-8-7"
         inkscape:connector-curvature="0"
         style="fill:#3cb200;fill-rule:evenodd;stroke:none;stroke-width:1" />
      <path
         d="m 197.01135,197.27251 c 1.07948,-0.26672 2.13562,-0.60609 3.1949,-0.93471 1.05325,-0.33281 2.10047,-0.68346 3.14324,-1.04958 -2.09208,-1.04643 -3.74356,-2.82222 -4.49154,-5.12412 -1.56939,-4.83011 1.34489,-10.38172 6.60906,-12.09195 9.23327,-3.0003 14.74213,2.79102 19.06136,6.23061 3.27358,2.60691 6.66203,2.77581 6.66203,2.77581 0,0 -2.64179,2.12853 -3.75798,6.16189 -1.47262,5.32134 -2.52534,13.24434 -11.75862,16.24464 -5.26416,1.71023 -10.88527,-1.06794 -12.4544,-5.89806 -0.74797,-2.30189 -0.45555,-4.70921 0.62157,-6.78555 -1.0585,0.31655 -2.11201,0.64857 -3.15976,0.99843 -1.05037,0.35668 -2.10388,0.70287 -3.13406,1.12171 -1.032,0.41332 -2.05562,0.85183 -3.0441,1.39812 l -0.7763,-2.38922 c 1.12092,-0.139 2.20696,-0.38579 3.2846,-0.65802"
         id="Fill-43-8-4"
         inkscape:connector-curvature="0"
         style="fill:#429b44;fill-opacity:1;fill-rule:evenodd;stroke:none;stroke-width:1" />
      <path
         d="m 49.47164,184.30263 c 4.31922,-3.43959 9.82808,-9.23065 19.06136,-6.23061 5.26416,1.71049 8.17844,7.2621 6.60905,12.09222 -0.74798,2.30189 -2.39972,4.07742 -4.49153,5.12411 1.0425,0.36612 2.09024,0.71677 3.14323,1.04932 1.05929,0.32888 2.11542,0.66825 3.1949,0.93497 1.07765,0.27197 2.16368,0.51876 3.2846,0.65802 l -0.7763,2.38923 c -0.98848,-0.5463 -2.01209,-0.9848 -3.0441,-1.3984 -1.03018,-0.41857 -2.08369,-0.76476 -3.13406,-1.12144 -1.04775,-0.34986 -2.10126,-0.68188 -3.15976,-0.9987 1.07712,2.07635 1.36981,4.48367 0.62157,6.78556 -1.56913,4.83012 -7.19024,7.60855 -12.4544,5.89806 -9.23327,-3.00004 -10.286,-10.92304 -11.75861,-16.24464 -1.1162,-4.0331 -3.75799,-6.16163 -3.75799,-6.16163 0,0 3.38846,-0.16916 6.66204,-2.77607"
         id="Fill-59-1-3"
         inkscape:connector-curvature="0"
         style="fill:#3cb200;fill-rule:evenodd;stroke:none;stroke-width:1" />
      <path
         d="m 134.16976,226.53479 c -3.00003,-9.23328 -10.92303,-10.28601 -16.24463,-11.75862 -4.0331,-1.1162 -6.1619,-3.75798 -6.1619,-3.75798 0,0 -0.1689,3.38845 -2.77607,6.66203 -3.43933,4.31923 -9.23039,9.82809 -6.23035,19.06136 1.71049,5.26417 7.2621,8.17845 12.09222,6.60907 2.30163,-0.74798 4.07742,-2.39972 5.12385,-4.49154 0.36639,1.0425 0.71703,2.08998 1.04959,3.14324 0.32887,1.05928 0.66824,2.11542 0.93497,3.1949 0.27196,1.07763 0.51875,2.16368 0.65802,3.28459 l 2.38922,-0.7763 c -0.54629,-0.98873 -0.9848,-2.01235 -1.39813,-3.04411 -0.41883,-1.03017 -0.76502,-2.08394 -1.12196,-3.13405 -0.34986,-1.04774 -0.68163,-2.10126 -0.99818,-3.15975 2.07608,1.07711 4.48341,1.36954 6.7853,0.62156 4.83011,-1.5694 7.60827,-7.19024 5.89805,-12.45441"
         id="Fill-11-1-3"
         inkscape:connector-curvature="0"
         style="fill:#429b44;fill-rule:evenodd;stroke:none;stroke-width:1" />
      <path
         d="m 163.01244,217.68019 c -2.60664,-3.27357 -2.7758,-6.66203 -2.7758,-6.66203 0,0 -2.12854,2.64179 -6.1619,3.75799 -5.32134,1.47262 -13.24434,2.52534 -16.24464,11.75861 -1.71023,5.26416 1.0682,10.88501 5.89832,12.4544 2.30163,0.74797 4.70895,0.45555 6.7853,-0.62157 -0.31656,1.0585 -0.64858,2.11201 -0.99844,3.15976 -0.35668,1.0501 -0.70287,2.10388 -1.12171,3.13406 -0.41306,1.03174 -0.85183,2.05535 -1.39813,3.0441 l 2.38923,0.77629 c 0.139,-1.1209 0.38605,-2.20695 0.65802,-3.28458 0.26646,-1.07949 0.60583,-2.13536 0.93471,-3.19491 0.33281,-1.05325 0.68346,-2.10074 1.04932,-3.14324 1.04696,2.09182 2.82249,3.74356 5.12412,4.49154 4.83012,1.56939 10.38172,-1.3449 12.09247,-6.60906 2.99978,-9.23327 -2.79128,-14.74213 -6.23087,-19.06136"
         id="Fill-15-6-2"
         inkscape:connector-curvature="0"
         style="fill:#3cb200;fill-rule:evenodd;stroke:none;stroke-width:1" />
    </g>
  </g>
</svg>
