<?xml version="1.0" encoding="UTF-8"?>
<svg width="206px" height="206px" viewBox="0 0 206 206" version="1.1" xmlns="http://www.w3.org/2000/svg" xmlns:xlink="http://www.w3.org/1999/xlink">
    <title>zaproti_graf</title>
    <g id="PODOBA-1" stroke="none" stroke-width="1" fill="none" fill-rule="evenodd">
        <g id="zaproti_graf">
            <g id="Group-6" transform="translate(103.000000, 103.000000) rotate(-9.000000) translate(-103.000000, -103.000000) translate(13.000000, 13.000000)">
                <circle id="Oval" fill="#5F3535" cx="90" cy="90" r="90"></circle>
                <path d="M180,90 C180,40.2943725 139.705627,1.02318154e-12 90,1.02318154e-12 C40.2943725,1.02318154e-12 0,40.2943725 0,90 C0,139.705627 40.2943725,180 90,180 C129.913594,180 163.758734,154.017858 175.544738,118.044255 L90,90 L90,90 L180,90 L180,90 Z" id="Oval" fill="#48AC33"></path>
            </g>
            <path d="M65.2558522,118 C65.5858522,118 65.8708522,117.88 66.1108522,117.64 C66.3508522,117.4 66.4708522,117.115 66.4708522,116.785 L66.4708522,116.785 L66.4708522,112.015 C66.4708522,111.685 66.3508522,111.4 66.1108522,111.16 C65.8708522,110.92 65.5858522,110.8 65.2558522,110.8 L65.2558522,110.8 L51.0358522,110.8 L65.4358522,93.745 C65.8258522,93.325 66.0208522,92.83 66.0208522,92.26 L66.0208522,92.26 L66.0208522,87.715 C66.0208522,87.385 65.9008522,87.1 65.6608522,86.86 C65.4208522,86.62 65.1358522,86.5 64.8058522,86.5 L64.8058522,86.5 L41.5858522,86.5 C41.2558522,86.5 40.9708522,86.62 40.7308522,86.86 C40.4908522,87.1 40.3708522,87.385 40.3708522,87.715 L40.3708522,87.715 L40.3708522,92.485 C40.3708522,92.815 40.4908522,93.1 40.7308522,93.34 C40.9708522,93.58 41.2558522,93.7 41.5858522,93.7 L41.5858522,93.7 L54.9958522,93.7 L40.5958522,110.665 C40.4458522,110.815 40.2958522,111.01 40.1458522,111.25 C39.9958522,111.49 39.9208522,111.82 39.9208522,112.24 L39.9208522,112.24 L39.9208522,116.785 C39.9208522,117.115 40.0408522,117.4 40.2808522,117.64 C40.5208522,117.88 40.8058522,118 41.1358522,118 L41.1358522,118 L65.2558522,118 Z M75.53,118 C76.13,118 76.5575,117.8725 76.8125,117.6175 C77.0675,117.3625 77.225,117.115 77.285,116.875 L77.285,116.875 L78.545,113.14 L90.515,113.14 L91.775,116.875 C91.835,117.115 91.9925,117.3625 92.2475,117.6175 C92.5025,117.8725 92.93,118 93.53,118 L93.53,118 L99.2,118 C99.47,118 99.7025,117.9025 99.8975,117.7075 C100.0925,117.5125 100.19,117.28 100.19,117.01 C100.19,116.86 100.13,116.635 100.01,116.335 L100.01,116.335 L90.2,87.985 C90.08,87.655 89.8625,87.325 89.5475,86.995 C89.2325,86.665 88.775,86.5 88.175,86.5 L88.175,86.5 L80.885,86.5 C80.285,86.5 79.8275,86.665 79.5125,86.995 C79.1975,87.325 78.98,87.655 78.86,87.985 L78.86,87.985 L69.05,116.335 C68.93,116.635 68.87,116.86 68.87,117.01 C68.87,117.28 68.9675,117.5125 69.1625,117.7075 C69.3575,117.9025 69.59,118 69.86,118 L69.86,118 L75.53,118 Z M88.175,106.165 L80.885,106.165 L84.53,95.365 L88.175,106.165 Z" id="ZA" fill="#FFFFFF" fill-rule="nonzero"></path>
        </g>
    </g>
</svg>