<?xml version="1.0" encoding="UTF-8"?>
<svg width="761px" height="725px" viewBox="0 0 761 725" version="1.1" xmlns="http://www.w3.org/2000/svg" xmlns:xlink="http://www.w3.org/1999/xlink">
    <title>znak_outline_cel</title>
    <g id="PODOBA-1" stroke="none" stroke-width="1" fill="none" fill-rule="evenodd">
        <g id="znak_outline_cel" transform="translate(3.000000, 2.000000)" stroke="#636363" stroke-width="2">
            <path d="M462.613967,611.904 C463.013622,615.135373 463.721861,618.266192 464.503107,621.373572 C465.267795,624.485489 466.241718,627.528605 467.185536,630.583062 C468.140643,633.619374 469.146177,636.639052 470.19687,639.644366 C473.200679,633.614081 478.296841,628.852455 484.902058,626.696946 C498.763531,622.171965 514.695531,630.57399 519.604285,645.749499 C528.213797,672.367125 511.594631,688.247276 501.723685,700.69948 C494.242389,710.136543 493.756933,719.904 493.756933,719.904 L493.756933,719.904 L493.744581,719.888797 C493.435922,719.511345 487.347834,712.204693 476.074279,709.070507 C460.803102,704.826021 438.064928,701.790466 429.455416,675.17284 C424.546662,659.997331 432.520189,643.793588 446.381661,639.269363 C452.987631,637.113098 459.895411,637.956098 465.854106,641.061966 C464.945663,638.010534 463.992813,634.97271 462.988784,631.953031 C461.965186,628.925036 460.972447,625.887213 459.769719,622.91819 C458.584303,619.943119 457.325127,616.992241 455.757366,614.141919 L455.757366,614.141919 Z M292.386138,611.904 L299.241965,614.141935 C297.674962,616.991521 296.41579,619.942419 295.229624,622.917511 C294.027653,625.887311 293.034164,628.9244 292.011322,631.952416 C291.007296,634.972115 290.053697,638.00996 289.145256,641.061414 C295.103933,637.95628 302.012445,637.112518 308.618395,639.268798 C322.479825,643.793055 330.453327,659.996911 325.544588,675.172527 C316.935102,701.790339 294.196998,704.825916 278.925867,709.070431 C267.651613,712.204639 261.564238,719.511342 261.255617,719.888797 L261.243267,719.904 C261.243267,719.904 260.757812,710.136474 253.276538,700.699346 C243.405622,688.247055 226.785755,672.366792 235.395993,645.74898 C240.304732,630.573364 256.235931,622.172037 270.097362,626.696294 C276.703311,628.852574 281.799459,633.613477 284.802505,639.643804 C285.853195,636.638469 286.859479,633.61877 287.814583,630.583193 C288.758398,627.528715 289.732318,624.484821 290.497004,621.372883 C291.278247,618.266236 291.986485,615.13464 292.386138,611.904 L292.386138,611.904 Z M381.112474,573.904 C380.496943,577.091234 380.206527,580.276961 379.993052,583.464195 C379.762982,586.649921 379.753176,589.836402 379.710179,593.022882 C379.684532,596.196553 379.712442,599.369471 379.787875,602.543142 C384.509965,597.756263 390.835001,594.81994 397.796689,594.81994 C412.403486,594.81994 425,607.711283 425,623.614299 C425,651.505986 404.26203,661.417304 391.014531,670.165243 C380.973678,676.795895 377.5,685.904 377.5,685.904 C377.5,685.904 374.025568,676.795895 363.984715,670.165243 C350.737216,661.417304 330,651.505986 330,623.614299 C330,607.711283 342.59576,594.81994 357.203311,594.81994 C364.164245,594.81994 370.489281,597.756263 375.212125,602.543142 C375.286049,599.369471 375.313959,596.196553 375.288312,593.022882 C375.24607,589.836402 375.236263,586.649921 375.006193,583.464195 C374.792719,580.276961 374.502303,577.091234 373.886771,573.904 L373.886771,573.904 Z M250.269246,530.904 L256.102642,535.159164 C253.734354,537.381582 251.62879,539.796695 249.585709,542.256393 C247.529078,544.706267 245.649353,547.28536 243.744033,549.846317 C241.859038,552.405008 240.018458,554.996947 238.215518,557.616091 C244.838594,556.512816 251.670194,557.854126 257.29055,561.953622 C269.084564,570.55463 271.683206,588.431456 262.344052,601.333723 C245.964773,623.965209 223.40205,619.79468 207.568546,619.091909 C195.568267,618.559164 187.414762,623.904 187.414762,623.904 L187.414762,623.904 L187.418772,623.888785 C187.529419,623.464112 189.860483,614.205377 185.745819,603.17604 C180.187193,588.278055 169.264161,568.025411 185.644192,545.395436 C194.982594,532.492413 212.722923,529.44934 224.516184,538.050348 C230.136539,542.149844 233.51884,548.256393 234.520808,554.920625 C236.444948,552.39065 238.330695,549.83196 240.173534,547.241531 L240.173534,547.241531 L241.749988,545.005496 C243.060957,543.140231 244.355301,541.263014 245.55977,539.319869 C247.258072,536.608534 248.895398,533.851859 250.269246,530.904 L250.269246,530.904 Z M505.730009,530.904 C507.104616,533.852591 508.741948,536.608488 510.440258,539.319801 C511.644195,541.26347 512.938774,543.14044 514.24965,545.005514 L515.825765,547.241399 C517.668611,549.831806 519.55512,552.390475 521.479268,554.92043 C522.480488,548.256252 525.862803,542.149752 531.483936,538.05029 C543.277249,529.449352 561.016902,532.4924 570.356098,545.395318 C586.735448,568.025109 575.813121,588.277589 570.25447,603.175453 C566.139789,614.2047 568.470862,623.46408 568.58151,623.888784 L568.58552,623.904 C568.58552,623.904 560.431226,618.558451 548.430895,619.091193 C532.598075,619.793958 510.035253,623.964453 493.65515,601.333151 C484.316707,588.430988 486.916114,570.554308 498.709427,561.95337 C504.329807,557.853907 511.160684,556.512608 517.784542,557.615118 C515.981594,554.996751 514.140253,552.404833 512.256003,549.846163 C510.350675,547.285227 508.470942,544.706155 506.414301,542.256301 C504.370458,539.796623 502.264886,537.382285 499.896587,535.159129 L499.896587,535.159129 Z M333.386033,484.904 L340.242634,487.141935 C338.674873,489.991521 337.415697,492.942419 336.229528,495.917511 C335.027553,498.887311 334.034061,501.9244 333.011216,504.95166 C332.007187,507.972115 331.053585,511.00996 330.145142,514.061414 C336.103836,510.95628 343.013122,510.112518 349.618339,512.268798 C363.479811,516.793055 371.453338,532.996911 366.544584,548.172527 C357.935072,574.790339 335.196898,577.825916 319.925721,582.070431 C308.651433,585.204639 302.56404,592.511342 302.255418,592.888797 L302.243067,592.904 C302.243067,592.904 301.757611,583.135718 294.276315,573.699346 C284.405369,561.247055 267.786203,545.366792 276.395715,518.74898 C281.304469,503.573364 297.236469,495.172037 311.097942,499.696294 C317.703911,501.852574 322.799321,506.614233 325.802377,512.643804 C326.853823,509.638469 327.859357,506.61877 328.814464,503.582437 C329.758282,500.528715 330.732205,497.484065 331.496893,494.372883 C332.278139,491.26548 332.986378,488.13464 333.386033,484.904 L333.386033,484.904 Z M421.613967,484.904 C422.013622,488.135373 422.721861,491.265436 423.503107,494.373572 C424.267795,497.484733 425.241718,500.528605 426.185536,503.583062 C427.140643,506.619374 428.146177,509.639052 429.19687,512.644366 C432.200679,506.614081 437.296841,501.852455 443.902058,499.696946 C457.763531,495.171965 473.695531,503.57399 478.604285,518.749499 C487.213797,545.367125 470.594631,561.247276 460.723685,573.69948 C453.242389,583.135786 452.756933,592.904 452.756933,592.904 L452.756933,592.904 L452.744581,592.888797 C452.435922,592.511345 446.347834,585.204693 435.074279,582.070507 C419.803102,577.826021 397.064928,574.790466 388.455416,548.17284 C383.546662,532.997331 391.520189,516.793588 405.381661,512.269363 C411.987631,510.113098 418.895411,510.956098 424.854106,514.061966 C423.945663,511.010534 422.992813,507.97271 421.988784,504.952275 C420.965186,501.925036 419.971694,498.887213 418.769719,495.91819 C417.58355,492.943119 416.325127,489.992241 414.757366,487.141919 L414.757366,487.141919 Z M621.048866,512.61288 C629.65063,500.819645 647.5267,498.221008 660.429723,507.559389 C683.060453,523.939383 678.89068,546.502056 678.187909,562.33477 C677.655164,574.335022 683,582.488509 683,582.488509 L683,582.488509 L682.984785,582.4845 C682.560112,582.373887 673.301377,580.043547 662.27204,584.158201 C647.3733,589.716815 627.121411,600.639822 604.49068,584.259828 C591.587657,574.921447 588.54534,557.180405 597.146348,545.387171 C601.245088,539.766828 607.352393,536.384535 614.016625,535.38257 C611.485894,533.459187 608.927204,531.572691 606.337531,529.729857 L606.337531,529.729857 L604.101478,528.153753 C602.236169,526.842885 600.358798,525.548314 598.415113,524.344385 C595.703778,522.645334 592.947859,521.009518 590,519.634168 L590,519.634168 L594.254408,513.800785 C596.477582,516.169068 598.89194,518.274626 601.351637,520.318455 C603.801511,522.375082 606.380605,524.254803 608.941562,526.159366 C611.501008,528.044356 614.092191,529.885685 616.711335,531.688621 C615.60806,525.064807 616.950126,518.233975 621.048866,512.61288 Z M94.5704605,507.559389 C107.472832,498.221008 125.349804,500.819645 133.950881,512.61288 C138.049655,518.233975 139.392487,525.064807 138.289204,531.688621 C140.907613,529.884932 143.498818,528.044356 146.058284,526.159366 C148.619262,524.254803 151.198377,522.375082 153.64827,520.317703 C156.107988,518.273873 158.522366,516.169068 160.745557,513.800785 L160.745557,513.800785 L165,519.634168 C162.052117,521.008012 159.296175,522.645334 156.584818,524.344385 C154.641118,525.548314 152.763731,526.842885 150.898407,528.153753 L148.662336,529.729857 C146.071887,531.571938 143.513931,533.458434 140.98318,535.38257 C147.647466,536.384535 153.75482,539.766828 157.853594,545.387171 C166.455427,557.180405 163.41233,574.920694 150.509202,584.259828 C127.878288,600.639822 107.626234,589.716815 92.7281281,584.158201 C81.4353412,579.944826 72,582.488509 72,582.488509 C72,582.488509 77.344124,574.335022 76.8113741,562.33477 C76.1085976,546.502056 71.9387904,523.939383 94.5704605,507.559389 Z M513.049119,434.613587 C521.650952,422.819593 539.527168,420.220954 552.430295,429.55934 C575.060454,445.939344 570.891402,468.502029 570.188626,484.334753 C569.655876,496.335012 575,504.488503 575,504.488503 L575,504.488503 L574.984786,504.484494 C574.560143,504.373881 565.302053,502.043539 554.272628,506.158196 C539.373766,511.716813 519.121712,522.639826 496.490798,506.259823 C483.58767,496.921437 480.545328,479.181138 489.146406,467.387144 C493.24518,461.766798 499.352534,458.384503 506.01682,457.382537 C503.486069,455.459153 500.928113,453.573409 498.337664,451.729821 L498.337664,451.729821 L496.101461,450.153715 C494.23596,448.842848 492.358343,447.548276 490.415182,446.344346 C487.703825,444.645294 484.947883,443.009477 482,441.634126 L482,441.634126 L486.254443,435.80074 C488.477634,438.169024 490.892012,440.274583 493.35173,442.318414 C495.801623,444.375042 498.380738,446.254764 500.941716,448.159328 C503.501182,450.044319 506.092387,451.885649 508.711552,453.688586 C507.608269,447.064768 508.950345,440.233932 513.049119,434.613587 Z M202.570277,429.55934 C215.472544,420.220954 233.350126,422.819593 241.950378,434.613587 C246.049874,440.233932 247.39194,447.064768 246.288665,453.688586 C248.907053,451.884896 251.498992,450.044319 254.058438,448.159328 C256.61864,446.254764 259.198489,444.375042 261.648363,442.317661 C264.10806,440.27383 266.521662,438.169024 268.744836,435.80074 L268.744836,435.80074 L273,441.634126 C270.052141,443.008724 267.295466,444.645294 264.584887,446.344346 C262.641202,447.548276 260.763831,448.842848 258.898522,450.153715 L256.662469,451.729821 C254.07204,453.572656 251.514106,455.4584 248.983375,457.382537 C255.647607,458.384503 261.754156,461.766798 265.853652,467.387144 C274.45466,479.181138 271.411587,496.920684 258.508564,506.259823 C235.878589,522.639826 215.625945,511.716813 200.72796,506.158196 C189.43602,501.944818 180,504.488503 180,504.488503 C180,504.488503 185.344836,496.335012 184.812091,484.334753 C184.10932,468.502029 179.939547,445.939344 202.570277,429.55934 Z M112.73116,396.359792 C127.906669,391.450265 144.110412,399.423824 148.634637,413.285353 C150.790902,419.890597 149.947146,426.799911 146.842034,432.75863 C149.894222,431.850183 152.93129,430.896577 155.951725,429.892544 C158.978964,428.869694 162.016787,427.876198 164.986566,426.674218 C167.960881,425.488044 170.911759,424.228863 173.762081,422.661096 L173.762081,422.661096 L176,429.517725 C172.768627,429.917381 169.637808,430.625623 166.531184,431.406873 C163.419267,432.172316 160.374639,433.146244 157.320938,434.08856 C154.284626,435.044423 151.264948,436.050714 148.259634,437.100659 C154.290675,440.10448 159.051545,445.199911 161.20781,451.80666 C165.732035,465.668189 157.330766,481.599501 142.155257,486.508275 C115.537631,495.117822 99.6567236,478.498589 87.2052756,468.627603 C77.7682135,461.146276 68,460.660818 68,460.660818 C68,460.660818 75.6157287,454.553074 78.8334932,442.978092 C83.0787346,427.706852 86.1135341,404.968586 112.73116,396.359792 Z M606.365927,413.285353 C610.890121,399.423824 627.09375,391.450265 642.269153,396.359792 C668.886593,404.968586 671.921371,427.706852 676.166583,442.978092 C679.300747,454.252425 686.607348,460.339844 686.984797,460.648467 L687,460.660818 C687,460.660818 677.232611,461.146276 667.794859,468.627603 C655.343498,478.498589 639.463458,495.117822 612.846018,486.508275 C597.669859,481.599501 589.268649,465.667436 593.792843,451.805907 C595.949093,445.199911 600.710685,440.10448 606.740927,437.100659 C603.735635,436.050714 600.715978,435.044423 597.678931,434.08856 L597.678931,434.08856 L595.062083,433.278718 C592.880354,432.606733 590.692288,431.953618 588.469506,431.406873 C585.362147,430.625623 582.232107,429.917381 579,429.517725 L579,429.517725 L581.238659,422.661096 C584.088206,424.228863 587.039819,425.488044 590.014113,426.674218 C592.983871,427.876198 596.021673,428.869694 599.048891,429.892544 C602.069304,430.896577 605.106351,431.850183 608.157762,432.75863 C605.052671,426.799911 604.209677,419.891349 606.365927,413.285353 Z M62.2897008,312.904 C78.1919633,312.904 91.0840605,325.49976 91.0840605,340.107311 C91.0840605,347.068245 88.1477365,353.394035 83.3608579,358.11537 C86.534529,358.190803 89.7082002,358.218713 92.8811178,358.193066 C96.0675982,358.150824 99.2540786,358.141018 102.440559,357.910193 C105.627039,357.697473 108.81352,357.407057 112,356.791526 L112,356.791526 L112,364.017229 C108.81352,363.400943 105.627039,363.111281 102.440559,362.897052 C99.2540786,362.667737 96.0675982,362.657176 92.8811178,362.614934 C89.7082002,362.589287 86.534529,362.617197 83.3608579,362.69263 C88.1477365,367.414719 91.0840605,373.739001 91.0840605,380.700689 C91.0840605,395.30824 78.1919633,407.904 62.2897008,407.904 C34.3972606,407.904 24.4866963,387.166784 15.7387566,373.919285 C9.10810465,363.878432 0,360.404754 0,360.404754 C0,360.404754 9.10810465,356.929568 15.7387566,346.889469 C24.4866963,333.641216 34.3972606,312.904 62.2897008,312.904 Z M560.70988,312.904 C588.602508,312.904 598.513139,333.641806 607.261137,346.889199 C613.891834,356.929972 623,360.404377 623,360.404377 C623,360.404377 613.891834,363.878028 607.261137,373.918801 C598.513139,387.166949 588.602508,407.904 560.70988,407.904 C544.807511,407.904 531.915327,395.307586 531.915327,380.700151 C531.915327,373.740026 534.85167,367.414287 539.638581,362.692234 C536.464889,362.617556 533.29195,362.588892 530.118257,362.615293 C526.931755,362.656781 523.745254,362.667342 520.559505,362.898164 C517.373004,363.110883 514.186502,363.401296 511,364.016823 L511,364.016823 L511,356.791177 C514.186502,357.406704 517.373004,357.697117 520.559505,357.909836 C523.745254,358.140658 526.931755,358.151219 530.118257,358.192707 C533.29195,358.219108 536.464889,358.190444 539.638581,358.11652 C534.85167,353.393713 531.915327,347.067974 531.915327,340.107849 C531.915327,325.500414 544.807511,312.904 560.70988,312.904 Z M692.70988,312.904 C720.602508,312.904 730.513139,333.641806 739.261137,346.889199 C745.891834,356.929972 755,360.404377 755,360.404377 C755,360.404377 745.891834,363.878028 739.261137,373.918801 C730.513139,387.166949 720.602508,407.904 692.70988,407.904 C676.807511,407.904 663.915327,395.307586 663.915327,380.700151 C663.915327,373.740026 666.85167,367.414287 671.638581,362.692234 C668.464889,362.617556 665.29195,362.588892 662.118257,362.615293 C658.931755,362.656781 655.745254,362.667342 652.558752,362.898164 C649.37225,363.110883 646.186502,363.401296 643,364.016823 L643,364.016823 L643,356.791177 C646.186502,357.406704 649.37225,357.697117 652.558752,357.909836 C655.745254,358.140658 658.931755,358.151219 662.118257,358.192707 C665.29195,358.219108 668.464889,358.190444 671.638581,358.11652 C666.85167,353.393713 663.915327,347.067974 663.915327,340.107849 C663.915327,325.500414 676.807511,312.904 692.70988,312.904 Z M194.289701,312.904 C210.192717,312.904 223.08406,325.49976 223.08406,340.107311 C223.08406,347.068245 220.147737,353.394035 215.360858,358.11537 C218.534529,358.190803 221.7082,358.218713 224.881118,358.193066 C228.067598,358.150824 231.254079,358.141018 234.440559,357.910193 C237.627039,357.697473 240.81352,357.407057 244,356.791526 L244,356.791526 L244,364.017229 C240.81352,363.400943 237.627039,363.111281 234.440559,362.897052 C231.254079,362.667737 228.067598,362.657176 224.881118,362.614934 C221.7082,362.589287 218.534529,362.617197 215.360858,362.69263 C220.147737,367.414719 223.08406,373.739001 223.08406,380.700689 C223.08406,395.30824 210.192717,407.904 194.289701,407.904 C166.398014,407.904 156.486696,387.166784 147.73951,373.919285 C141.108858,363.878432 132,360.404754 132,360.404754 C132,360.404754 141.108858,356.929568 147.73951,346.889469 C156.486696,333.641216 166.398014,312.904 194.289701,312.904 Z M87.2052756,252.179935 C99.6567236,242.309702 115.537631,225.689716 142.155257,234.300016 C157.330766,239.208037 165.732035,255.140102 161.20781,269.001631 C159.051545,275.607627 154.290675,280.703058 148.259634,283.706879 C151.264948,284.757576 154.284626,285.763867 157.320938,286.718978 C160.374639,287.662047 163.419267,288.635974 166.531184,289.401418 C169.637808,290.182667 172.768627,290.890909 176,291.289813 L176,291.289813 L173.762081,298.147194 C170.911759,296.579427 167.960881,295.320246 164.986566,294.134072 C162.865295,293.275515 160.709308,292.523327 158.547259,291.790559 L155.951725,290.914994 C152.93129,289.910961 149.894222,288.958108 146.842034,288.049661 C149.947902,294.00838 150.790902,300.916188 148.634637,307.522937 C144.110412,321.384466 127.906669,329.357272 112.73116,324.448498 C86.1135341,315.838951 83.0787346,293.101438 78.8334932,277.829446 C75.7410962,266.70616 68.5867575,260.631004 68.0339707,260.1745 L68.0038271,260.14981 L68.0038271,260.14981 C68,260.14672 68.4658905,260.123567 69.292476,260.009446 L69.5653701,259.970306 C72.6963951,259.504754 80.0461251,257.855424 87.2052756,252.179935 Z M612.844743,234.299715 C639.462369,225.690203 655.343276,242.309369 667.794724,252.180315 C677.231786,259.661611 687,260.147067 687,260.147067 L687,260.147067 L686.984797,260.159419 C686.607345,260.468078 679.300693,266.556166 676.166507,277.829721 C671.921265,293.101651 668.886466,315.839072 642.26884,324.448584 C627.093331,329.357338 610.888832,321.383811 606.365363,307.522339 C604.208342,300.916369 605.052098,294.007836 608.15721,288.049142 C605.105778,288.957585 602.06871,289.911187 599.048275,290.915216 C596.02028,291.938814 592.983213,292.932306 590.013434,294.133528 C587.038363,295.319697 584.087485,296.578873 581.237919,298.146634 L581.237919,298.146634 L579,291.290033 C582.231373,290.890378 585.361436,290.182139 588.468816,289.401646 C591.580733,288.636205 594.624605,287.662282 597.678306,286.719217 C600.714618,285.76411 603.735052,284.757823 606.740366,283.70713 C600.710081,280.703321 595.948455,275.607159 593.79219,269.001942 C589.267965,255.140469 597.669234,239.208469 612.844743,234.299715 Z M200.728715,215.649318 C215.6267,210.091421 235.878589,199.168343 258.50932,215.54769 C271.412343,224.886131 274.455416,242.626535 265.853652,254.420599 C261.754912,260.040978 255.647607,263.423293 248.983375,264.424513 C251.514861,266.348661 254.072796,268.235169 256.662469,270.078015 L256.662469,270.078015 L258.898654,271.654129 C260.764139,272.965005 262.641742,274.259585 264.584887,275.463521 C267.296222,277.16183 270.052141,278.799163 273,280.173769 L273,280.173769 L268.745592,286.00719 C266.522418,283.638892 264.10806,281.53332 261.648363,279.49023 C259.898453,278.020664 258.082615,276.64174 256.254549,275.279387 L254.058438,273.647776 C251.499748,271.763526 248.907809,269.922939 246.289421,268.119238 C247.39194,274.743095 246.05063,281.573971 241.951134,287.19435 C233.350126,298.988414 215.4733,301.587068 202.571033,292.248626 C179.939547,275.869279 184.10932,253.305707 184.812846,237.47289 C185.344836,225.47256 180,217.318268 180,217.318268 C180,217.318268 189.43602,219.86272 200.728715,215.649318 Z M496.490042,215.547881 C519.121712,199.168571 539.373766,210.090871 554.271872,215.649508 C565.302036,219.76418 574.560142,217.433112 574.984786,217.322465 L575,217.318454 C575,217.318454 569.655876,225.472728 570.188626,237.472277 C570.891402,253.305811 575.060454,275.868577 552.42954,292.248639 C539.527168,301.587059 521.650196,298.988411 513.049119,287.194375 C508.950345,281.574009 507.607513,274.743149 508.710796,268.119307 C506.091632,269.922251 503.501182,271.763587 500.941716,273.647832 L500.941716,273.647832 L498.745587,275.279422 C496.917507,276.641728 495.101654,278.020495 493.35173,279.48952 C490.892012,281.533358 488.477634,283.638925 486.254443,286.007218 L486.254443,286.007218 L482,280.17381 C484.947883,278.799207 487.703825,277.162631 490.415182,275.463573 C492.358343,274.259639 494.23596,272.965063 496.101461,271.653916 L498.337664,270.077326 C500.928113,268.235237 503.486069,266.348734 506.01682,264.42459 C499.352534,263.423373 493.24518,260.040313 489.146406,254.4207 C480.544573,242.626663 483.58767,224.886301 496.490042,215.547881 Z M452.757685,127.904 C452.757685,127.904 452.780803,128.36989 452.894867,129.196476 L452.933989,129.46937 C453.399329,132.600395 455.048219,139.950125 460.723685,147.109276 C470.594631,159.560724 487.213797,175.441631 478.604285,202.059257 C473.695531,217.234766 457.763531,225.636035 443.902058,221.11181 C437.296841,218.955545 432.200679,214.193919 429.19687,208.163634 C428.14693,211.168948 427.140643,214.188626 426.185536,217.224938 C425.241718,220.279395 424.267795,223.323267 423.503107,226.435184 C422.721861,229.541808 422.013622,232.672627 421.614719,235.904 L421.614719,235.904 L414.757366,233.666081 C416.325127,230.815759 417.584303,227.865637 418.770472,224.890566 C419.629026,222.769295 420.38121,220.613694 421.113975,218.45159 L421.989537,215.855725 C422.993566,212.83529 423.946415,209.798222 424.854858,206.746034 C418.896164,209.851902 411.987631,210.694902 405.381661,208.538637 C391.520189,204.014412 383.546662,187.810669 388.455416,172.63516 C397.064928,146.017534 419.803102,142.982735 435.074279,138.737493 C446.649214,135.519729 452.757685,127.904 452.757685,127.904 Z M302.242406,127.904 C302.242406,127.904 308.350895,135.520431 319.925865,138.738173 C335.197089,142.983385 357.935331,146.018163 366.544869,172.635603 C371.452886,187.811006 363.480088,204.014635 349.618573,208.538829 C343.012584,210.695079 336.10403,209.852085 330.145317,206.746238 C331.053763,209.798405 332.006615,212.834696 333.010647,215.855865 L333.010647,215.855865 L333.886211,218.451381 C334.618979,220.613415 335.371166,222.769387 336.229722,224.890643 C337.415895,227.864937 338.675075,230.815794 340.24284,233.666097 L340.24284,233.666097 L333.386219,235.904 C332.986563,232.672649 332.278321,229.541853 331.497073,226.43525 C330.73163,223.322599 329.758456,220.278748 328.814636,217.225069 C327.860278,214.188778 326.853988,211.169121 325.802539,208.163829 C322.799475,214.194071 317.703297,218.955663 311.09806,221.111913 C297.236545,225.636107 281.304497,217.234897 276.395728,202.058738 C267.78619,175.441298 284.405406,159.561258 294.275629,147.109897 C299.951683,139.950223 301.600716,132.600406 302.066091,129.46937 L302.105216,129.196475 C302.219288,128.369887 302.242406,127.904 302.242406,127.904 Z M604.49068,136.547644 C627.121411,120.168298 647.3733,131.091375 662.27204,136.650025 C673.301377,140.764705 682.560112,138.433632 682.984785,138.322985 L683,138.318974 C683,138.318974 677.655164,146.472513 678.187909,158.472842 C678.89068,174.306411 683.060453,196.869228 660.429723,213.248575 C647.527456,222.587015 629.65063,219.988362 621.049622,208.195052 C616.950126,202.574673 615.60806,195.743045 616.711335,189.119941 C614.092191,190.922889 611.501008,192.763476 608.941562,194.648479 C606.380605,196.553806 603.801511,198.432787 601.352393,200.490179 C598.892695,202.534022 596.477582,204.639594 594.255164,207.007139 L594.255164,207.007139 L590,201.173719 C592.948615,199.799112 595.704534,198.162533 598.415113,196.463471 C601.136272,194.77796 603.727456,192.914788 606.337531,191.077965 C608.92796,189.235119 611.485894,187.349364 614.016625,185.425216 C607.352393,184.423244 601.245844,181.040929 597.146348,175.42055 C588.54534,163.62724 591.588413,145.886838 604.49068,136.547644 Z M92.7281281,136.649318 C107.626234,131.091421 127.878288,120.168343 150.509202,136.54769 C163.41233,145.886884 166.455427,163.626535 157.853594,175.420599 C153.75482,181.040978 147.647466,184.423293 140.98318,185.424513 C143.513931,187.348661 146.071887,189.235169 148.662336,191.078015 L148.662336,191.078015 L150.898407,192.654129 C152.763731,193.965005 154.641118,195.259585 156.584818,196.463521 C159.296175,198.16183 162.052117,199.799163 165,201.173769 L165,201.173769 L160.745557,207.00719 C158.522366,204.638892 156.107988,202.53332 153.64827,200.49023 C151.898346,199.020664 150.082493,197.64174 148.254413,196.279387 L146.058284,194.647776 C143.498818,192.763526 140.907613,190.922939 138.289204,189.119991 C139.392487,195.743095 138.049655,202.574724 133.950881,208.19435 C125.349804,219.988414 107.472832,222.587068 94.5704605,213.248626 C71.9387904,196.869279 76.1085976,174.305707 76.8113741,158.47289 C77.344124,146.47256 72,138.31902 72,138.31902 C72,138.31902 81.4353412,140.86272 92.7281281,136.649318 Z M187.414974,96.904 C187.414974,96.904 195.568513,102.248836 207.568842,101.716091 C223.402411,101.01332 245.964475,96.8435466 262.344575,119.474277 C271.683015,132.3773 269.084362,150.25337 257.291052,158.855134 C251.66992,162.953874 244.839045,164.29594 238.215941,163.192665 C240.018889,165.811809 241.859476,168.402992 243.744479,170.962438 C245.649054,173.52264 247.528787,176.102489 249.586179,178.552363 C251.630022,181.01206 253.734841,183.426418 256.103139,185.648836 L256.103139,185.648836 L250.269719,189.904 C248.895112,186.956141 247.25778,184.199466 245.559471,181.488887 C243.87396,178.767728 242.010788,176.176544 240.173965,173.566469 C238.331872,170.97604 236.445364,168.418106 234.521216,165.887375 C233.519244,172.551607 230.136929,178.658912 224.51655,182.757652 C212.722487,191.35866 194.982838,188.316343 185.643644,175.41332 C169.264298,152.782589 180.187375,132.5307 185.746025,117.63196 C189.958674,106.34002 187.414974,96.904 187.414974,96.904 Z M568.585212,96.904 C568.585212,96.904 566.041517,106.34002 570.25416,117.63196 C575.8128,132.5307 586.735859,152.782589 570.355787,175.41332 C561.016609,188.316343 543.276989,191.35866 531.483699,182.757652 C525.86333,178.658912 522.481021,172.551607 521.47905,165.887375 C519.554906,168.418106 517.668401,170.97604 515.826311,173.566469 C513.988738,176.176544 512.126322,178.767728 510.440814,181.488887 C508.741755,184.199466 507.104425,186.956141 505.730574,189.904 L505.730574,189.904 L499.897163,185.648836 C502.265457,183.426418 504.370273,181.01206 506.414112,178.552363 C508.470748,176.101733 510.350478,173.52264 512.255803,170.962438 C514.140049,168.402992 515.981387,165.811809 517.784331,163.192665 C511.161239,164.29594 504.329622,162.953874 498.709253,158.855134 C486.915962,150.25337 484.31656,132.3773 493.655738,119.474277 C510.035057,96.8435466 532.598589,101.01332 548.431378,101.716091 C560.431687,102.248836 568.585212,96.904 568.585212,96.904 Z M377.5,34.904 C377.5,34.904 380.973678,44.0121659 391.014531,50.6428625 C404.26203,59.390861 425,69.301492 425,97.1941199 C425,113.096489 412.403486,125.988673 397.796689,125.988673 C390.835755,125.988673 384.509965,123.05233 379.787875,118.265419 C379.713197,121.439111 379.684532,124.61205 379.710934,127.785743 C379.753176,130.972245 379.762982,134.158746 379.993807,137.345248 C380.206527,140.53175 380.496943,143.717498 381.112474,146.904 L381.112474,146.904 L373.886771,146.904 C374.502303,143.717498 374.792719,140.53175 375.006193,137.345248 C375.236263,134.158746 375.246824,130.972245 375.289066,127.785743 C375.314713,124.61205 375.286049,121.439111 375.212125,118.265419 C370.490035,123.05233 364.164245,125.988673 357.203311,125.988673 C342.59576,125.988673 330,113.096489 330,97.1941199 C330,69.301492 350.737216,59.390861 363.984715,50.6428625 C374.025568,44.0121659 377.5,34.904 377.5,34.904 Z M261.536529,1.22556879 C261.536529,1.22556879 267.66186,8.85866022 279.26799,12.0834406 C294.582074,16.3379381 317.382255,19.3793545 326.015531,46.0550163 C330.937835,61.2636138 322.942299,77.5026862 309.042566,82.0367758 C302.419118,84.1977424 295.490761,83.3529045 289.516374,80.240264 C290.427324,83.2983499 291.382803,86.3420394 292.389604,89.3698172 L292.389604,89.3698172 L293.26745,91.9710109 C294.002062,94.1377739 294.756092,96.2984621 295.617554,98.4243579 C296.806243,101.405158 298.068894,104.36247 299.640982,107.219007 L299.640982,107.219007 L292.765456,109.461805 C292.364698,106.223386 291.654504,103.085741 290.871856,99.9723433 C290.323604,97.7441578 289.668689,95.5511513 288.994576,93.3646063 L288.182023,90.7420158 C287.22428,87.699084 286.215215,84.6728216 285.161622,81.6609556 C282.149523,87.7043879 277.040048,92.476396 270.415844,94.6373625 C256.516111,99.1714522 240.540135,90.7518659 235.617832,75.5425107 C226.984556,48.866849 243.649594,32.9520731 253.547786,20.4734764 C261.049732,11.0150805 261.536529,1.22556879 261.536529,1.22556879 Z M493.756933,0.904 C493.756933,0.904 494.242389,10.6722135 501.723685,20.1092756 C511.594631,32.5607236 528.213797,48.4416312 519.604285,75.059257 C514.695531,90.2347665 498.763531,98.636035 484.902058,94.1118098 C478.296841,91.9555447 473.200679,87.1939186 470.19687,81.1636344 C469.146177,84.1689478 468.13989,87.1886262 467.185536,90.2249378 C466.241718,93.2786386 465.267795,96.3232668 464.502354,99.4351837 C463.721861,102.541808 463.013622,105.672627 462.613967,108.904 L462.613967,108.904 L455.757366,106.666081 C457.325127,103.815759 458.584303,100.865637 459.770472,97.890566 C460.971694,94.9207872 461.965186,91.8829635 462.988784,88.8557246 C463.993566,85.8352901 464.945663,82.7982225 465.854106,79.7460338 C459.896164,82.8519023 452.987631,83.6949022 446.381661,81.5386371 C432.520189,77.0144118 424.546662,60.8106694 429.455416,45.6351599 C438.064928,19.0175341 460.802349,15.9827346 476.073526,11.7374932 C487.648462,8.51972872 493.756933,0.904 493.756933,0.904 Z" id="Combined-Shape"></path>
        </g>
    </g>
</svg>